<svg xmlns="http://www.w3.org/2000/svg" width="260" height="252" viewBox="0 0 260 252" version="1.1"><path d="M 89.750 118.535 L 85 122.019 85 135.355 C 85 147.004, 85.231 148.899, 86.829 150.345 C 90.367 153.547, 91 152.451, 91 143.122 C 91 137.117, 91.415 133.900, 92.284 133.180 C 94.617 131.243, 95.889 133.468, 96.196 140.026 L 96.500 146.500 105 146.500 L 113.500 146.500 113.796 140.335 C 114.121 133.538, 115.855 130.805, 118.465 132.971 C 119.521 133.847, 120.009 136.838, 120.215 143.687 L 120.500 153.188 123.250 151.021 L 126 148.855 126 135.582 C 126 120.970, 126.230 121.563, 118.836 117.137 L 115.172 114.943 111.336 117.556 C 106.880 120.590, 102.117 120.398, 98.542 117.040 C 95.704 114.373, 95.337 114.436, 89.750 118.535 M 103.364 126.493 C 103.018 127.396, 103.214 128.614, 103.800 129.200 C 105.324 130.724, 108.210 129.331, 107.812 127.265 C 107.369 124.963, 104.165 124.407, 103.364 126.493 M 137.146 128.587 C 134.316 130.494, 131.957 132.604, 131.904 133.277 C 131.850 133.949, 131.856 139, 131.915 144.500 C 132.014 153.616, 132.222 154.650, 134.262 156.196 C 135.493 157.129, 136.814 157.579, 137.197 157.196 C 137.581 156.813, 138.031 153.575, 138.197 150 C 138.464 144.268, 138.736 143.500, 140.500 143.500 C 142.083 143.500, 142.604 144.333, 143 147.500 L 143.500 151.500 152 151.500 L 160.500 151.500 161 147.500 C 161.396 144.333, 161.917 143.500, 163.500 143.500 C 165.250 143.500, 165.562 144.333, 166 150.169 C 166.275 153.837, 166.774 157.111, 167.108 157.444 C 167.443 157.777, 168.793 157.179, 170.108 156.115 C 172.295 154.345, 172.530 153.313, 172.845 144.056 C 173.232 132.687, 173.068 132.292, 166.106 127.862 L 161.711 125.065 158.779 127.533 C 154.900 130.796, 149.747 130.807, 145.491 127.561 L 142.293 125.122 137.146 128.587 M 103.701 135.632 C 103.316 136.018, 103 137.190, 103 138.236 C 103 139.638, 103.593 140.055, 105.250 139.820 C 106.721 139.611, 107.500 138.812, 107.500 137.514 C 107.500 135.530, 105.028 134.306, 103.701 135.632 M 74.430 175.321 C 74.151 176.048, 74.053 181.110, 74.212 186.571 L 74.500 196.500 77.500 196.500 L 80.500 196.500 80.787 186.082 C 81.085 175.264, 80.675 174.049, 76.719 174.015 C 75.739 174.007, 74.709 174.595, 74.430 175.321" stroke="none" fill="#f4765e" fill-rule="evenodd"/><path d="M 125.934 48.579 C 123.143 51.942, 106.296 62.127, 98.593 65.108 C 88.470 69.025, 74.505 71.970, 65.973 71.987 C 56.664 72.006, 55.406 73.149, 54.731 82.211 C 54.065 91.147, 55.431 109.292, 57.556 119.735 C 59.836 130.940, 65.393 147.027, 70.125 156.123 C 74.016 163.603, 74.394 164, 77.611 164 C 79.475 164, 81 163.782, 81 163.515 C 81 163.248, 79.602 160.757, 77.892 157.980 C 67.629 141.299, 61.166 116.690, 60.537 91.893 L 60.192 78.286 68.859 77.671 C 87.373 76.356, 106.404 69.489, 122.196 58.423 C 126.882 55.140, 130.549 53.214, 131.278 53.654 C 131.950 54.059, 134.686 56.109, 137.357 58.209 C 149.738 67.942, 172.496 76.206, 190.731 77.591 L 199.500 78.258 199.804 84.965 C 200.161 92.845, 198.612 109.194, 196.589 118.895 C 194.333 129.716, 190.986 140.109, 189.961 139.476 C 189.445 139.157, 189.282 139.572, 189.599 140.397 C 189.916 141.223, 188.090 146.300, 185.542 151.680 C 181.248 160.744, 181.036 161.553, 182.646 162.730 C 183.601 163.429, 184.696 164, 185.080 164 C 186.491 164, 194.074 147.943, 197.418 137.873 C 203.457 119.694, 206.326 99.450, 205.238 82.713 C 204.618 73.168, 203.435 72, 194.388 72 C 176.107 72, 154.857 64.381, 138.402 51.926 C 131.647 46.813, 128.174 45.881, 125.934 48.579 M 105.813 84.683 C 106.534 84.972, 107.397 84.936, 107.729 84.604 C 108.061 84.272, 107.471 84.036, 106.417 84.079 C 105.252 84.127, 105.015 84.364, 105.813 84.683 M 100.500 92.161 C 96.531 94.343, 95.045 97.290, 95.022 103.024 L 95 108.547 88.253 113.024 C 84.543 115.486, 80.949 118.625, 80.268 120 C 79.464 121.623, 79.024 127.405, 79.015 136.478 L 79 150.456 85 156.077 C 88.844 159.679, 91 162.497, 91 163.919 C 91 165.649, 91.496 166.069, 93.250 165.820 C 95.258 165.534, 95.554 164.800, 96 159 C 96.495 152.560, 96.528 152.500, 99.491 152.500 C 102.430 152.500, 102.482 152.591, 102.491 157.735 C 102.496 160.614, 102.838 162.977, 103.250 162.985 C 108.111 163.082, 108 163.211, 108 157.500 C 108 152.056, 108.030 152, 111 152 C 113.991 152, 114 152.018, 114 157.839 C 114 163.127, 114.241 163.789, 116.547 164.839 C 119.933 166.382, 120 166.360, 120 163.687 C 120 162.415, 121.277 160.150, 122.839 158.655 L 125.677 155.935 129.589 159.568 C 131.740 161.567, 134.512 163.883, 135.750 164.716 C 137.484 165.883, 138 167.190, 138 170.415 C 138 174.625, 139.322 177, 141.664 177 C 142.576 177, 143.007 174.289, 143.214 167.250 L 143.500 157.500 146.250 157.184 L 149 156.867 149 164.934 C 149 173.235, 149.400 173.927, 153.066 171.965 C 154.694 171.093, 155 169.827, 155 163.965 L 155 157 158 157 C 160.971 157, 161 157.054, 161 162.517 L 161 168.034 165.885 165.558 C 168.571 164.197, 172.396 161.549, 174.385 159.673 L 178 156.264 178 143.767 C 178 129.266, 177.626 128.442, 168.545 122.938 C 163.192 119.694, 163 119.427, 163 115.257 C 163 108.655, 160.710 104.195, 156.394 102.391 C 151.927 100.525, 148.459 101.230, 144.750 104.758 C 142.367 107.025, 142 108.148, 142 113.175 C 142 118.872, 141.928 119.020, 137.924 121.548 C 131.893 125.355, 131 125.548, 131 123.041 C 131 119.417, 129.372 117.477, 122.660 113.104 L 116.234 108.918 115.793 102.810 C 115.407 97.479, 114.945 96.340, 112.160 93.851 C 108.752 90.807, 104.170 90.142, 100.500 92.161 M 102 98 C 99.510 100.490, 99.253 108.488, 101.557 111.777 C 103.250 114.195, 106.891 114.709, 108.800 112.800 C 109.477 112.123, 110 108.879, 110 105.357 C 110 100.039, 109.671 98.883, 107.777 97.557 C 104.917 95.553, 104.408 95.592, 102 98 M 84 108 C 83.099 108.582, 82.975 108.975, 83.691 108.985 C 84.346 108.993, 85.160 108.550, 85.500 108 C 86.267 106.758, 85.921 106.758, 84 108 M 148.571 108.571 C 146.755 110.388, 146.412 119.032, 148.035 122.066 C 149.208 124.258, 153.899 124.701, 155.800 122.800 C 156.471 122.129, 157 118.911, 157 115.500 C 157 112.089, 156.471 108.871, 155.800 108.200 C 154.117 106.517, 150.436 106.706, 148.571 108.571 M 135.158 110 C 135.158 111.375, 135.385 111.938, 135.662 111.250 C 135.940 110.563, 135.940 109.438, 135.662 108.750 C 135.385 108.063, 135.158 108.625, 135.158 110 M 89.750 118.535 L 85 122.019 85 135.355 C 85 147.004, 85.231 148.899, 86.829 150.345 C 90.367 153.547, 91 152.451, 91 143.122 C 91 137.117, 91.415 133.900, 92.284 133.180 C 94.617 131.243, 95.889 133.468, 96.196 140.026 L 96.500 146.500 105 146.500 L 113.500 146.500 113.796 140.335 C 114.121 133.538, 115.855 130.805, 118.465 132.971 C 119.521 133.847, 120.009 136.838, 120.215 143.687 L 120.500 153.188 123.250 151.021 L 126 148.855 126 135.582 C 126 120.970, 126.230 121.563, 118.836 117.137 L 115.172 114.943 111.336 117.556 C 106.880 120.590, 102.117 120.398, 98.542 117.040 C 95.704 114.373, 95.337 114.436, 89.750 118.535 M 103.364 126.493 C 103.018 127.396, 103.214 128.614, 103.800 129.200 C 105.324 130.724, 108.210 129.331, 107.812 127.265 C 107.369 124.963, 104.165 124.407, 103.364 126.493 M 137.146 128.587 C 134.316 130.494, 131.957 132.604, 131.904 133.277 C 131.850 133.949, 131.856 139, 131.915 144.500 C 132.014 153.616, 132.222 154.650, 134.262 156.196 C 135.493 157.129, 136.814 157.579, 137.197 157.196 C 137.581 156.813, 138.031 153.575, 138.197 150 C 138.464 144.268, 138.736 143.500, 140.500 143.500 C 142.083 143.500, 142.604 144.333, 143 147.500 L 143.500 151.500 152 151.500 L 160.500 151.500 161 147.500 C 161.396 144.333, 161.917 143.500, 163.500 143.500 C 165.250 143.500, 165.562 144.333, 166 150.169 C 166.275 153.837, 166.774 157.111, 167.108 157.444 C 167.443 157.777, 168.793 157.179, 170.108 156.115 C 172.295 154.345, 172.530 153.313, 172.845 144.056 C 173.232 132.687, 173.068 132.292, 166.106 127.862 L 161.711 125.065 158.779 127.533 C 154.900 130.796, 149.747 130.807, 145.491 127.561 L 142.293 125.122 137.146 128.587 M 103.701 135.632 C 103.316 136.018, 103 137.190, 103 138.236 C 103 139.638, 103.593 140.055, 105.250 139.820 C 106.721 139.611, 107.500 138.812, 107.500 137.514 C 107.500 135.530, 105.028 134.306, 103.701 135.632 M 184.286 140.500 C 184.294 143.250, 184.488 144.256, 184.718 142.736 C 184.947 141.216, 184.941 138.966, 184.704 137.736 C 184.467 136.506, 184.279 137.750, 184.286 140.500 M 184.158 149 C 184.158 150.375, 184.385 150.938, 184.662 150.250 C 184.940 149.563, 184.940 148.438, 184.662 147.750 C 184.385 147.063, 184.158 147.625, 184.158 149 M 158.078 174.950 L 140.656 183.879 138.557 181.859 C 135.586 178.999, 112.049 168.070, 108.778 168.032 C 107.282 168.014, 102.669 168.744, 98.528 169.654 C 91.834 171.125, 91 171.562, 91 173.595 C 91 174.853, 91.338 176.075, 91.750 176.311 C 92.163 176.546, 96.161 175.874, 100.637 174.818 L 108.773 172.896 121.826 179.069 C 134.918 185.260, 137.245 187.183, 134.709 189.719 C 133.557 190.872, 131.527 190.290, 121.637 185.975 C 109.460 180.662, 106.500 180.177, 106.500 183.497 C 106.500 185.055, 109.004 186.561, 118.500 190.711 C 132.986 197.042, 135.737 197.285, 139.653 192.579 C 141.603 190.236, 147.726 186.454, 159.084 180.579 C 168.205 175.860, 176.192 172, 176.834 172 C 177.475 172, 177.992 172.787, 177.983 173.750 C 177.972 174.926, 170.380 180.418, 154.829 190.500 C 142.104 198.750, 130.688 206.050, 129.460 206.723 C 127.517 207.786, 124.997 207.100, 110.070 201.440 C 100.634 197.863, 92.537 195.168, 92.076 195.453 C 90.584 196.375, 90.166 201, 91.575 201 C 92.288 201, 99.942 203.700, 108.582 207 C 117.223 210.300, 125.701 213, 127.422 213 C 129.776 213, 136.856 208.899, 156.025 196.429 C 170.036 187.316, 182.063 179.130, 182.750 178.238 C 184.534 175.926, 184.294 171.569, 182.250 169.153 C 178.715 164.976, 176.508 165.505, 158.078 174.950 M 70.455 171.455 C 68.124 173.786, 68 174.508, 68 185.809 C 68 197.053, 68.135 197.853, 70.452 200.354 C 73.751 203.913, 79.705 204.018, 83.694 200.587 C 86.326 198.324, 86.522 197.606, 86.851 189.035 C 87.461 173.182, 85.460 169, 77.266 169 C 73.973 169, 72.309 169.600, 70.455 171.455 M 74.430 175.321 C 74.151 176.048, 74.053 181.110, 74.212 186.571 L 74.500 196.500 77.500 196.500 L 80.500 196.500 80.787 186.082 C 81.085 175.264, 80.675 174.049, 76.719 174.015 C 75.739 174.007, 74.709 174.595, 74.430 175.321" stroke="none" fill="#547e8a" fill-rule="evenodd"/><path d="M 0 126.004 L 0 252.007 130.250 251.754 L 260.500 251.500 260.754 125.750 L 261.008 0 130.504 0 L 0 0 0 126.004 M 0.485 126.500 C 0.485 195.800, 0.604 224.003, 0.750 189.172 C 0.896 154.342, 0.896 97.642, 0.750 63.172 C 0.604 28.703, 0.485 57.200, 0.485 126.500 M 125.934 48.579 C 123.143 51.942, 106.296 62.127, 98.593 65.108 C 88.470 69.025, 74.505 71.970, 65.973 71.987 C 56.664 72.006, 55.406 73.149, 54.731 82.211 C 54.065 91.147, 55.431 109.292, 57.556 119.735 C 59.836 130.940, 65.393 147.027, 70.125 156.123 C 74.016 163.603, 74.394 164, 77.611 164 C 79.475 164, 81 163.782, 81 163.515 C 81 163.248, 79.602 160.757, 77.892 157.980 C 67.629 141.299, 61.166 116.690, 60.537 91.893 L 60.192 78.286 68.859 77.671 C 87.373 76.356, 106.404 69.489, 122.196 58.423 C 126.882 55.140, 130.549 53.214, 131.278 53.654 C 131.950 54.059, 134.686 56.109, 137.357 58.209 C 149.738 67.942, 172.496 76.206, 190.731 77.591 L 199.500 78.258 199.804 84.965 C 200.161 92.845, 198.612 109.194, 196.589 118.895 C 194.333 129.716, 190.986 140.109, 189.961 139.476 C 189.445 139.157, 189.282 139.572, 189.599 140.397 C 189.916 141.223, 188.090 146.300, 185.542 151.680 C 181.248 160.744, 181.036 161.553, 182.646 162.730 C 183.601 163.429, 184.696 164, 185.080 164 C 186.491 164, 194.074 147.943, 197.418 137.873 C 203.457 119.694, 206.326 99.450, 205.238 82.713 C 204.618 73.168, 203.435 72, 194.388 72 C 176.107 72, 154.857 64.381, 138.402 51.926 C 131.647 46.813, 128.174 45.881, 125.934 48.579 M 105.813 84.683 C 106.534 84.972, 107.397 84.936, 107.729 84.604 C 108.061 84.272, 107.471 84.036, 106.417 84.079 C 105.252 84.127, 105.015 84.364, 105.813 84.683 M 100.500 92.161 C 96.531 94.343, 95.045 97.290, 95.022 103.024 L 95 108.547 88.253 113.024 C 84.543 115.486, 80.949 118.625, 80.268 120 C 79.464 121.623, 79.024 127.405, 79.015 136.478 L 79 150.456 85 156.077 C 88.844 159.679, 91 162.497, 91 163.919 C 91 165.649, 91.496 166.069, 93.250 165.820 C 95.258 165.534, 95.554 164.800, 96 159 C 96.495 152.560, 96.528 152.500, 99.491 152.500 C 102.430 152.500, 102.482 152.591, 102.491 157.735 C 102.496 160.614, 102.838 162.977, 103.250 162.985 C 108.111 163.082, 108 163.211, 108 157.500 C 108 152.056, 108.030 152, 111 152 C 113.991 152, 114 152.018, 114 157.839 C 114 163.127, 114.241 163.789, 116.547 164.839 C 119.933 166.382, 120 166.360, 120 163.687 C 120 162.415, 121.277 160.150, 122.839 158.655 L 125.677 155.935 129.589 159.568 C 131.740 161.567, 134.512 163.883, 135.750 164.716 C 137.484 165.883, 138 167.190, 138 170.415 C 138 174.625, 139.322 177, 141.664 177 C 142.576 177, 143.007 174.289, 143.214 167.250 L 143.500 157.500 146.250 157.184 L 149 156.867 149 164.934 C 149 173.235, 149.400 173.927, 153.066 171.965 C 154.694 171.093, 155 169.827, 155 163.965 L 155 157 158 157 C 160.971 157, 161 157.054, 161 162.517 L 161 168.034 165.885 165.558 C 168.571 164.197, 172.396 161.549, 174.385 159.673 L 178 156.264 178 143.767 C 178 129.266, 177.626 128.442, 168.545 122.938 C 163.192 119.694, 163 119.427, 163 115.257 C 163 108.655, 160.710 104.195, 156.394 102.391 C 151.927 100.525, 148.459 101.230, 144.750 104.758 C 142.367 107.025, 142 108.148, 142 113.175 C 142 118.872, 141.928 119.020, 137.924 121.548 C 131.893 125.355, 131 125.548, 131 123.041 C 131 119.417, 129.372 117.477, 122.660 113.104 L 116.234 108.918 115.793 102.810 C 115.407 97.479, 114.945 96.340, 112.160 93.851 C 108.752 90.807, 104.170 90.142, 100.500 92.161 M 102 98 C 99.510 100.490, 99.253 108.488, 101.557 111.777 C 103.250 114.195, 106.891 114.709, 108.800 112.800 C 109.477 112.123, 110 108.879, 110 105.357 C 110 100.039, 109.671 98.883, 107.777 97.557 C 104.917 95.553, 104.408 95.592, 102 98 M 84 108 C 83.099 108.582, 82.975 108.975, 83.691 108.985 C 84.346 108.993, 85.160 108.550, 85.500 108 C 86.267 106.758, 85.921 106.758, 84 108 M 148.571 108.571 C 146.755 110.388, 146.412 119.032, 148.035 122.066 C 149.208 124.258, 153.899 124.701, 155.800 122.800 C 156.471 122.129, 157 118.911, 157 115.500 C 157 112.089, 156.471 108.871, 155.800 108.200 C 154.117 106.517, 150.436 106.706, 148.571 108.571 M 135.158 110 C 135.158 111.375, 135.385 111.938, 135.662 111.250 C 135.940 110.563, 135.940 109.438, 135.662 108.750 C 135.385 108.063, 135.158 108.625, 135.158 110 M 184.286 140.500 C 184.294 143.250, 184.488 144.256, 184.718 142.736 C 184.947 141.216, 184.941 138.966, 184.704 137.736 C 184.467 136.506, 184.279 137.750, 184.286 140.500 M 184.158 149 C 184.158 150.375, 184.385 150.938, 184.662 150.250 C 184.940 149.563, 184.940 148.438, 184.662 147.750 C 184.385 147.063, 184.158 147.625, 184.158 149 M 158.078 174.950 L 140.656 183.879 138.557 181.859 C 135.586 178.999, 112.049 168.070, 108.778 168.032 C 107.282 168.014, 102.669 168.744, 98.528 169.654 C 91.834 171.125, 91 171.562, 91 173.595 C 91 174.853, 91.338 176.075, 91.750 176.311 C 92.163 176.546, 96.161 175.874, 100.637 174.818 L 108.773 172.896 121.826 179.069 C 134.918 185.260, 137.245 187.183, 134.709 189.719 C 133.557 190.872, 131.527 190.290, 121.637 185.975 C 109.460 180.662, 106.500 180.177, 106.500 183.497 C 106.500 185.055, 109.004 186.561, 118.500 190.711 C 132.986 197.042, 135.737 197.285, 139.653 192.579 C 141.603 190.236, 147.726 186.454, 159.084 180.579 C 168.205 175.860, 176.192 172, 176.834 172 C 177.475 172, 177.992 172.787, 177.983 173.750 C 177.972 174.926, 170.380 180.418, 154.829 190.500 C 142.104 198.750, 130.688 206.050, 129.460 206.723 C 127.517 207.786, 124.997 207.100, 110.070 201.440 C 100.634 197.863, 92.537 195.168, 92.076 195.453 C 90.584 196.375, 90.166 201, 91.575 201 C 92.288 201, 99.942 203.700, 108.582 207 C 117.223 210.300, 125.701 213, 127.422 213 C 129.776 213, 136.856 208.899, 156.025 196.429 C 170.036 187.316, 182.063 179.130, 182.750 178.238 C 184.534 175.926, 184.294 171.569, 182.250 169.153 C 178.715 164.976, 176.508 165.505, 158.078 174.950 M 70.455 171.455 C 68.124 173.786, 68 174.508, 68 185.809 C 68 197.053, 68.135 197.853, 70.452 200.354 C 73.751 203.913, 79.705 204.018, 83.694 200.587 C 86.326 198.324, 86.522 197.606, 86.851 189.035 C 87.461 173.182, 85.460 169, 77.266 169 C 73.973 169, 72.309 169.600, 70.455 171.455" stroke="none" fill="#f6f8f9" fill-rule="evenodd"/></svg>