<svg xmlns="http://www.w3.org/2000/svg" width="200" height="200" viewBox="0 0 200 200" version="1.1"><path d="" stroke="none" fill="#080404" fill-rule="evenodd"/><path d="M 94.405 3.326 C 92.703 3.972, 88.284 6.486, 84.584 8.914 L 77.857 13.328 67.443 13.111 C 51.260 12.773, 46.804 15.588, 39.635 30.681 C 36.886 36.468, 36.447 36.869, 28.773 40.606 C 15.357 47.138, 12.330 52.392, 13.318 67.435 L 13.913 76.500 8.544 84.752 C 0.187 97.597, 0.231 102.351, 8.824 115.277 L 13.330 122.055 13.112 132.513 C 12.935 140.978, 13.257 143.783, 14.802 147.235 C 17.209 152.616, 18.859 154.055, 28.603 159.272 C 36.263 163.373, 36.620 163.731, 40.503 171.173 C 47.781 185.121, 52.220 187.689, 67.276 186.663 L 76.500 186.034 85 191.605 C 93.443 197.139, 93.544 197.174, 100 196.783 C 105.868 196.428, 107.278 195.875, 114.500 191.098 L 122.500 185.806 131.256 186.479 C 146.102 187.619, 150.682 185.096, 157.409 172.071 L 162.028 163.129 171.215 158.308 C 179.702 153.854, 180.624 153.068, 183.306 147.993 C 186.062 142.780, 186.184 142.030, 185.687 133.273 L 185.163 124.046 190.565 115.441 C 199.472 101.254, 199.591 97.377, 191.494 85.200 L 186.678 77.958 186.892 67.042 C 187.070 57.919, 186.785 55.500, 185.159 52.313 C 182.583 47.266, 180.965 45.952, 171.500 41.222 L 163.500 37.224 159.500 29 C 152.859 15.345, 147.686 12.333, 132.572 13.319 L 123.500 13.911 115.902 8.930 C 105.438 2.069, 100.864 0.876, 94.405 3.326 M 71.007 57.593 C 56.984 63.674, 54.730 82.997, 67.006 91.889 C 75.152 97.790, 85.373 96.890, 92.632 89.632 C 99.779 82.484, 100.641 73.557, 95.039 64.722 C 90.144 57.004, 79.587 53.872, 71.007 57.593 M 95.750 96.746 C 75.537 116.995, 59 134.011, 59 134.559 C 59 136.697, 62.224 140, 64.312 140 C 65.870 140, 77.268 129.239, 103.462 103.038 C 139.315 67.175, 140.384 65.994, 139.438 63.288 C 138.707 61.197, 137.719 60.429, 135.482 60.214 C 132.766 59.954, 129.217 63.217, 95.750 96.746 M 74.110 67.346 C 68.970 70.302, 67.572 76.915, 71.131 81.440 C 74.072 85.178, 77.494 86.322, 81.641 84.953 C 85.911 83.544, 88 80.548, 88 75.833 C 88 68.729, 80.100 63.901, 74.110 67.346 M 114.500 105.446 C 109.259 107.375, 103.428 113.697, 102 119 C 98.718 131.189, 108.376 144, 120.848 144 C 136.041 144, 145.595 128.509, 138.750 114.975 C 134.358 106.291, 123.643 102.080, 114.500 105.446 M 117 115.273 C 115.625 115.956, 113.675 118.200, 112.668 120.258 C 110.891 123.886, 110.891 124.114, 112.668 127.750 C 115.138 132.805, 119.019 134.611, 124.127 133.080 C 132.249 130.647, 133.359 119.305, 125.855 115.425 C 122.489 113.684, 120.271 113.646, 117 115.273" stroke="none" fill="#040404" fill-rule="evenodd"/></svg>