<?xml version="1.0" encoding="UTF-8"?>
<svg version="1.1" xmlns="http://www.w3.org/2000/svg" width="500" height="500">
<path d="M0 0 C3.07621273 0.11147536 4.66178171 0.37143685 7.32276917 1.78143311 C8.02964371 2.1467363 8.73651825 2.51203949 9.46481323 2.88841248 C10.58076118 3.49227531 10.58076118 3.49227531 11.71925354 4.1083374 C12.5129686 4.52263504 13.30668365 4.93693268 14.12445068 5.36378479 C15.81785024 6.24945902 17.50794039 7.14148512 19.19493103 8.03930664 C23.59104303 10.37876854 28.01066808 12.67315987 32.42628479 14.9755249 C33.29131119 15.42838867 34.15633759 15.88125244 35.0475769 16.34783936 C41.63458151 19.79048265 48.27333986 23.08340871 55.00050354 26.24505615 C56.77009043 27.0795736 58.53962355 27.91420506 60.30909729 28.7489624 C61.13780334 29.13970947 61.9665094 29.53045654 62.82032776 29.93304443 C74.36355488 35.42992693 85.71640531 41.30211884 97.01124573 47.28900146 C103.24038053 50.58040092 109.51416907 53.77672354 115.81300354 56.93255615 C116.69649475 57.37655762 117.57998596 57.82055908 118.49024963 58.27801514 C121.09011838 59.57502447 123.70112422 60.84744114 126.31300354 62.12005615 C127.26690979 62.60522705 128.22081604 63.09039795 129.20362854 63.590271 C134.69616043 66.35096468 134.69616043 66.35096468 140.69190979 67.04974365 C141.55687073 66.74294678 142.42183167 66.4361499 143.31300354 66.12005615 C144.10577698 65.85450928 144.89855042 65.5889624 145.71534729 65.31536865 C153.41619311 62.0641641 160.93976582 58.47392294 168.46827698 54.84442139 C174.46218626 51.95576167 180.46939644 49.09858701 186.49659729 46.2802124 C187.1998111 45.95136047 187.9030249 45.62250854 188.62754822 45.28369141 C191.43242186 43.97281849 194.23769164 42.66281063 197.04432678 41.35571289 C199.01341411 40.43864237 200.98181632 39.52012758 202.94972229 38.6005249 C203.58025513 38.30601944 204.21078796 38.01151398 204.86042786 37.70808411 C208.8339718 35.84231288 212.75801786 33.89540159 216.66847229 31.90130615 C221.65634748 29.39043428 226.66355021 27.26143852 231.93800354 25.43255615 C232.78483704 25.13784424 233.63167053 24.84313232 234.50416565 24.53948975 C242.97005367 21.71306568 251.47009251 20.18129599 260.31300354 19.12005615 C261.33909729 18.98986084 262.36519104 18.85966553 263.42237854 18.7255249 C266.05530437 18.44016444 268.66812781 18.25091207 271.31300354 18.12005615 C272.26562073 18.06720459 273.21823792 18.01435303 274.19972229 17.9598999 C295.18648195 17.35425941 314.40153217 22.90887238 330.74269104 36.3348999 C335.82535075 42.11294838 337.03934614 46.98601634 336.93800354 54.49505615 C336.92962463 55.33850586 336.92124573 56.18195557 336.91261292 57.05096436 C336.66275519 63.90543879 335.19778444 68.17197356 330.31300354 73.12005615 C329.7677301 73.77618896 329.22245667 74.43232178 328.66065979 75.1083374 C316.2177776 89.13040376 290.76728494 101.14160036 273.00050354 106.49505615 C268.7924671 107.79871835 264.96412952 109.73271134 261.05519104 111.7333374 C252.69417318 115.96239084 244.23879621 119.966794 235.75050354 123.93255615 C232.76947031 125.32848892 229.78914956 126.72593682 226.80909729 128.1239624 C226.08048492 128.46563446 225.35187256 128.80730652 224.60118103 129.15933228 C217.25551816 132.60831987 209.93909253 136.11770872 202.64283752 139.67010498 C198.6817897 141.5828251 194.72562973 143.38456299 190.62550354 144.97943115 C183.70490943 147.69612674 177.02592825 150.93401527 170.31300354 154.12005615 C168.78700666 154.84215602 167.26096349 155.56415806 165.73487854 156.28607178 C160.75845959 158.64222904 155.78561385 161.00587426 150.81300354 163.37005615 C149.03689206 164.21391187 147.26076891 165.05774305 145.4846344 165.90155029 C135.0631389 170.85398717 124.64545541 175.81421997 114.25050354 180.82220459 C107.47533561 184.07656896 100.68053662 187.21583769 93.66847229 189.9286499 C87.50405002 192.36994645 81.57696195 195.289354 75.62657166 198.20291138 C73.57680732 199.20639592 71.52493241 200.20544234 69.47242737 201.20330811 C66.7042504 202.54917247 63.93662142 203.89615141 61.16944885 205.24407959 C54.1153788 208.67791486 47.04619736 212.07895714 39.95362854 215.43255615 C36.00159086 217.30180064 32.08308348 219.22842807 28.17237854 221.18255615 C11.94037721 229.15985897 -4.11459507 234.12529555 -21.68699646 238.12005615 C-22.67554626 238.34660889 -23.66409607 238.57316162 -24.68260193 238.80657959 C-52.93887236 245.15709235 -92.73204226 252.46206435 -118.68699646 236.12005615 C-123.34440917 231.78674175 -125.7182283 227.25345461 -126.06199646 220.93255615 C-125.99957342 216.25082781 -124.46545352 212.71289801 -122.36668396 208.5770874 C-121.40089313 205.08580905 -122.1774745 203.38377534 -123.68699646 200.12005615 C-125.25979747 198.00043902 -126.81132695 196.0764171 -128.56199646 194.12005615 C-129.04668396 193.56245605 -129.53137146 193.00485596 -130.03074646 192.43035889 C-131.05671596 191.25065838 -132.08642092 190.07419739 -133.11961365 188.90081787 C-135.66221111 186.01207864 -138.17702935 183.09965565 -140.68699646 180.18255615 C-141.18328552 179.60618408 -141.67957458 179.02981201 -142.19090271 178.43597412 C-146.70278873 173.163806 -151.02099049 167.75207328 -155.25730896 162.2567749 C-156.72448166 160.36265966 -158.21331222 158.48467496 -159.74168396 156.6395874 C-160.30113708 155.95251709 -160.86059021 155.26544678 -161.43699646 154.55755615 C-161.90621521 153.99939209 -162.37543396 153.44122803 -162.85887146 152.8661499 C-163.68699646 151.12005615 -163.68699646 151.12005615 -163.80809021 148.63568115 C-162.07074114 144.73723935 -158.7600084 143.91217983 -154.99949646 142.43255615 C-153.36344395 141.74787561 -151.72805743 141.06160209 -150.09324646 140.3739624 C-148.78420349 139.83279785 -148.78420349 139.83279785 -147.44871521 139.28070068 C-142.58971771 137.23865028 -137.79724497 135.05121847 -132.99949646 132.87005615 C-132.0801532 132.45795898 -131.16080994 132.04586182 -130.21360779 131.62127686 C-126.29091739 129.84745416 -122.54798728 128.0796013 -118.91746521 125.76068115 C-115.03420289 123.78852858 -113.84242937 124.15424015 -109.68699646 125.12005615 C-107.62891104 125.79759292 -105.58859838 126.53072034 -103.56590271 127.30755615 C-102.3941449 127.75478027 -101.22238708 128.20200439 -100.01512146 128.66278076 C-98.75988157 129.14845767 -97.50467394 129.63421798 -96.24949646 130.12005615 C-94.95149593 130.6173434 -93.65331671 131.11416447 -92.35496521 131.61053467 C-85.2492709 134.33276034 -78.16590174 137.10930975 -71.09031677 139.90887451 C-69.65317322 140.47747192 -69.65317322 140.47747192 -68.18699646 141.05755615 C-67.25081482 141.42824219 -66.31463318 141.79892822 -65.3500824 142.18084717 C-59.33731906 144.53867691 -53.33549304 146.62311597 -47.11277771 148.3661499 C-44.68699646 149.12005615 -44.68699646 149.12005615 -42.66746521 150.2802124 C-39.1697813 151.76345114 -36.39155126 150.38642463 -32.97996521 149.09661865 C-29.20768225 147.45484519 -25.44186966 145.80129636 -21.68699646 144.12005615 C-20.77788513 143.71400146 -19.8687738 143.30794678 -18.93211365 142.8895874 C-7.78034837 137.89089932 3.23774602 132.79221384 13.95362854 126.9130249 C19.29300366 124.06328865 24.78504907 121.58106792 30.31300354 119.12005615 C25.97175538 113.85629276 21.34103964 109.22249303 16.31300354 104.62005615 C8.88629577 97.72417116 1.91168011 90.53244935 -4.9203949 83.05267334 C-16.76865994 70.05438123 -16.76865994 70.05438123 -29.55027771 57.99505615 C-33.96194498 54.12375764 -37.99555364 49.96474032 -41.80418396 45.50286865 C-46.0377342 40.64514472 -50.5589006 36.10139381 -55.12449646 31.55755615 C-55.93209412 30.74609131 -56.73969177 29.93462646 -57.57176208 29.09857178 C-61.91646167 24.76087412 -66.33945539 20.58407544 -70.99241638 16.57879639 C-72.92392426 14.91610231 -74.79673295 13.20871222 -76.62449646 11.43255615 C-77.1903949 10.89243896 -77.75629333 10.35232178 -78.33934021 9.7958374 C-79.85067318 7.91652771 -80.28157092 6.47562985 -80.68699646 4.12005615 C-72.84775429 2.94572084 -64.96750817 2.69624647 -57.05809021 2.3661499 C-55.53928603 2.30055971 -54.02049243 2.23472398 -52.50170898 2.1686554 C-49.3305623 2.03138505 -46.1593337 1.89627749 -42.98802185 1.76287842 C-38.9374913 1.5924348 -34.88715536 1.41780149 -30.83686733 1.24169827 C-27.70469388 1.10576931 -24.57245323 0.9714468 -21.44018745 0.83766365 C-19.94714434 0.77382095 -18.45411601 0.70963151 -16.96110344 0.64507866 C-14.87036562 0.55504837 -12.77955246 0.46703066 -10.68870544 0.37957764 C-9.50260178 0.32929916 -8.31649811 0.27902069 -7.0944519 0.22721863 C-4.72959125 0.15284515 -2.36477653 0.07700196 0 0 Z M-28.68699646 24.12005615 C-23.34347036 31.86675536 -16.81605852 38.18488925 -10.12449646 44.74505615 C-8.43096699 46.41075937 -6.739025 48.07800118 -5.05004883 49.74832153 C-4.00661795 50.77971006 -2.96052903 51.80841967 -1.91122437 52.83383179 C0.51312053 55.22524404 2.80597463 57.66236095 4.96046448 60.2958374 C6.81187824 62.51845616 8.47846258 64.27396622 10.69972229 66.08099365 C16.82483577 71.31301122 22.44967952 77.07072168 28.14186096 82.76361084 C30.13296619 84.75251054 32.13196609 86.73324618 34.13136292 88.71380615 C35.40724216 89.98675409 36.68264968 91.26017506 37.95753479 92.53411865 C38.5512941 93.12069244 39.14505341 93.70726624 39.75680542 94.31161499 C42.81824281 97.39003704 45.20410124 100.28436426 47.31300354 104.12005615 C48.88216509 105.71859363 48.88216509 105.71859363 50.68800354 107.12005615 C54.72424951 110.53011817 58.50052698 114.1519549 62.25050354 117.87005615 C62.83042053 118.43724365 63.41033752 119.00443115 64.00782776 119.58880615 C68.19437443 123.76416881 68.19437443 123.76416881 69.31300354 127.12005615 C68.50862854 127.36368896 67.70425354 127.60732178 66.87550354 127.8583374 C62.53513048 129.39555286 58.45953097 131.31455453 54.31300354 133.30755615 C53.47503235 133.70684326 52.63706116 134.10613037 51.7736969 134.51751709 C46.77564994 136.90803254 41.81638301 139.36381295 36.87550354 141.87005615 C32.78164017 143.93828539 28.69027683 145.83952359 24.43800354 147.55755615 C19.25843691 149.66323618 14.28251287 152.08145856 9.30104065 154.60931396 C2.40995594 158.09696806 -4.54085509 161.45704667 -11.49949646 164.80755615 C-13.19827942 165.6273999 -13.19827942 165.6273999 -14.93138123 166.46380615 C-17.12864972 167.52073232 -19.32918933 168.57088914 -21.53318787 169.6137085 C-23.60546356 170.60348563 -25.66575359 171.61883521 -27.7118988 172.66156006 C-28.65629822 173.12868408 -29.60069763 173.59580811 -30.57371521 174.0770874 C-31.80481018 174.70514282 -31.80481018 174.70514282 -33.06077576 175.34588623 C-38.97167771 177.08833023 -44.56350202 174.63311189 -50.05027771 172.41693115 C-50.7473735 172.14214935 -51.4444693 171.86736755 -52.16268921 171.58425903 C-53.66265148 170.9924175 -55.1614052 170.39750542 -56.65904236 169.79980469 C-59.03347385 168.85655859 -61.41423883 167.93127594 -63.79734802 167.01019287 C-71.17994065 164.14683411 -78.52143715 161.23312793 -85.76358032 158.02862549 C-88.75805669 156.71034138 -91.77115464 155.43843036 -94.78742981 154.17095947 C-96.20255299 153.56140998 -97.60831545 152.92957302 -99.00282288 152.27423096 C-106.64962876 148.5706354 -106.64962876 148.5706354 -114.92308044 148.69708252 C-119.85367605 150.61412948 -124.27219029 153.227824 -128.68699646 156.12005615 C-128.05422791 156.93977905 -128.05422791 156.93977905 -127.40867615 157.77606201 C-124.97117383 160.93373547 -122.76691001 163.97537057 -120.83152771 167.47943115 C-118.68043637 171.31463445 -116.0194011 174.51416261 -113.12449646 177.80755615 C-107.87235714 183.86122677 -107.87235714 183.86122677 -105.97215271 186.5145874 C-105.54805115 187.04439209 -105.12394958 187.57419678 -104.68699646 188.12005615 C-104.02699646 188.12005615 -103.36699646 188.12005615 -102.68699646 188.12005615 C-102.41137878 188.71101074 -102.13576111 189.30196533 -101.85179138 189.91082764 C-100.74406106 192.01182358 -99.56867554 193.65093829 -98.05027771 195.4677124 C-97.55592224 196.07292725 -97.06156677 196.67814209 -96.55223083 197.30169678 C-95.51039884 198.5636895 -94.46344309 199.82146847 -93.41160583 201.07513428 C-92.093808 202.69770533 -90.88136069 204.4045906 -89.68699646 206.12005615 C-90.8290021 209.54607308 -91.89007701 210.36527266 -94.62449646 212.62005615 C-97.19674838 214.74881636 -98.80960409 216.3039676 -100.68699646 219.12005615 C-82.11308612 229.83577365 -46.47229695 220.83786636 -26.93699646 216.30755615 C-25.48329651 215.97183594 -25.48329651 215.97183594 -24.00022888 215.6293335 C-7.88430325 211.67944411 6.87886174 205.23308848 21.75050354 197.99505615 C25.03870327 196.40460131 28.32930044 194.81919876 31.62159729 193.23724365 C32.40459702 192.86050507 33.18759674 192.48376648 33.99432373 192.09561157 C38.50307345 189.94027135 43.02970684 187.97416072 47.69752502 186.18597412 C54.29698867 183.49641394 60.69165752 180.30448735 67.12550354 177.24505615 C68.72333568 176.4879134 70.32123699 175.73091662 71.91920471 174.97406006 C83.2151482 169.6180026 94.47865715 164.19589765 105.73146057 158.74993896 C117.94798606 152.8388851 117.94798606 152.8388851 124.00050354 149.99505615 C125.01499573 149.51810303 126.02948792 149.0411499 127.07472229 148.54974365 C129.65387236 147.41105979 132.23216123 146.35797967 134.85597229 145.33099365 C141.33252684 142.76223362 147.62671029 139.81717799 153.93800354 136.87005615 C154.56015747 136.58049042 155.1823114 136.29092468 155.82331848 135.99258423 C163.24888322 132.53589685 170.63025431 129.01602555 177.92774963 125.29559326 C185.06559585 121.68735865 192.31867995 118.31997364 199.56300354 114.93255615 C200.20348633 114.63205353 200.84396912 114.3315509 201.50386047 114.02194214 C208.72710385 110.63557608 215.98349452 107.38684777 223.36476135 104.35565186 C228.65713144 102.13764217 233.85737943 99.72065888 239.06300354 97.30755615 C240.20841614 96.7776709 241.35382874 96.24778564 242.53395081 95.70184326 C249.08973089 92.65582149 255.60563378 89.55335534 262.04420471 86.26702881 C266.25047744 84.1271386 270.4921826 82.07583626 274.75831604 80.05755615 C296.67948073 71.03645901 296.67948073 71.03645901 314.31300354 56.12005615 C311.29249806 49.01210046 302.88582356 46.13439054 296.16456604 43.19036865 C273.24464758 34.58754994 247.7714021 43.61364109 226.61378479 53.03411865 C221.1153965 55.54849333 215.65696424 58.14449815 210.20314026 60.75384521 C206.33618837 62.58181132 202.42412804 64.29329325 198.50050354 65.99505615 C191.17970733 69.20172863 183.97921075 72.65034312 176.78636169 76.13253784 C174.88911774 77.05096572 172.99089808 77.96735203 171.09254456 78.88348389 C165.53311686 81.56994402 159.98536589 84.27495674 154.47315979 87.05755615 C153.61069641 87.48560547 152.74823303 87.91365479 151.8596344 88.35467529 C150.30228903 89.12824527 148.7516065 89.91545727 147.20973206 90.71942139 C146.52451477 91.0565918 145.83929749 91.39376221 145.13331604 91.7411499 C144.5585553 92.03433105 143.98379456 92.32751221 143.39161682 92.62957764 C137.89245312 93.92718392 133.02017474 91.77270088 128.23487854 89.2333374 C127.08672668 88.63110352 125.93857483 88.02886963 124.75563049 87.40838623 C123.52473454 86.74981415 122.29385938 86.0912032 121.06300354 85.43255615 C119.78258678 84.75785301 118.50157101 84.08428554 117.21998596 83.4118042 C114.57102703 82.02015645 111.92492253 80.62331149 109.28126526 79.22161865 C104.23720974 76.54808554 99.18267838 73.89483346 94.12062073 71.2555542 C91.85163852 70.07208883 89.58519993 68.88372911 87.3217926 67.68963623 C81.88150007 64.84661468 76.46834126 62.30281171 70.74147034 60.09735107 C66.39723169 58.34908654 62.24043696 56.23017991 58.06300354 54.12005615 C57.1155426 53.64439209 56.16808167 53.16872803 55.19190979 52.6786499 C47.57215254 48.8234755 40.08043197 44.75567266 32.60768127 40.62445068 C24.93447247 36.40325621 17.13908316 32.4588331 9.27980042 28.59661865 C7.97559143 27.95466553 7.97559143 27.95466553 6.64503479 27.29974365 C5.87908997 26.92575439 5.11314514 26.55176514 4.32398987 26.16644287 C2.31300354 25.12005615 2.31300354 25.12005615 -0.68699646 23.12005615 C-3.12231038 22.82823004 -3.12231038 22.82823004 -5.83543396 22.8895874 C-7.34363708 22.89248779 -7.34363708 22.89248779 -8.88230896 22.89544678 C-9.93160583 22.90769287 -10.98090271 22.91993896 -12.06199646 22.93255615 C-13.10355896 22.93320068 -14.14512146 22.93384521 -15.21824646 22.93450928 C-19.86216909 22.96123262 -24.14211983 23.09086283 -28.68699646 24.12005615 Z " fill="#0D0D0D" transform="translate(163.68699645996094,61.87994384765625)"/>
<path d="M0 0 C157.08 0 314.16 0 476 0 C476 7.26 476 14.52 476 22 C318.92 22 161.84 22 0 22 C0 14.74 0 7.48 0 0 Z " fill="#060606" transform="translate(15,416)"/>
</svg>
