<svg xmlns="http://www.w3.org/2000/svg" width="216" height="214" viewBox="0 0 216 214" version="1.1"><path d="M 69.748 37.365 C 63.828 39.575, 59.193 43.692, 56.300 49.312 C 51.644 58.355, 53.121 72.352, 60.218 86.448 C 65.934 97.798, 74.785 109, 78.039 109 C 82.130 109, 94.767 90.784, 98.969 78.829 C 101.555 71.470, 102.972 62.207, 102.289 57.115 C 101.452 50.879, 96.311 43.072, 90.803 39.675 C 85.133 36.177, 75.703 35.143, 69.748 37.365 M 115.448 61.275 C 115.147 62.058, 115.036 65.804, 115.201 69.599 C 115.475 75.927, 115.690 76.527, 117.792 76.825 C 120.042 77.144, 120.078 77.001, 119.792 68.836 C 119.546 61.845, 119.221 60.469, 117.747 60.187 C 116.783 60.003, 115.748 60.493, 115.448 61.275 M 138.701 60.632 C 138.316 61.018, 138 64.890, 138 69.236 C 138 76.860, 138.080 77.128, 140.250 76.820 C 142.369 76.519, 142.500 76.034, 142.500 68.514 C 142.500 62.098, 142.195 60.469, 140.951 60.229 C 140.099 60.065, 139.087 60.246, 138.701 60.632 M 162.701 60.632 C 162.316 61.018, 162 64.890, 162 69.236 C 162 76.860, 162.080 77.128, 164.250 76.820 C 166.369 76.519, 166.500 76.034, 166.500 68.514 C 166.500 62.098, 166.195 60.469, 164.951 60.229 C 164.099 60.065, 163.087 60.246, 162.701 60.632 M 44.542 65.275 C 32.467 72.114, 30.772 87.422, 40.053 105.794 C 44.710 115.014, 52.461 125, 54.959 125 C 56.740 125, 62.381 118.325, 67.287 110.411 L 69.822 106.321 65.296 99.911 C 57.621 89.039, 51 73.005, 51 65.290 C 51 62.430, 49.571 62.426, 44.542 65.275 M 102.592 76.702 C 100.089 84.750, 94.999 94.188, 88.511 102.809 C 83.118 109.975, 83.039 110.175, 84.505 113.010 C 86.576 117.015, 86.387 118, 83.547 118 C 81.564 118, 80.894 118.719, 80.053 121.750 C 78.519 127.274, 78.751 135.544, 80.670 143.750 L 82.366 151 130.183 151 C 176.667 151, 178.056 150.944, 180 149 C 181.926 147.074, 182 145.667, 182 111.191 C 182 83.236, 181.712 74.989, 180.689 73.590 C 179.884 72.489, 177.569 71.593, 174.689 71.268 C 170.256 70.769, 170 70.871, 170 73.147 C 170 76.615, 167.283 80, 164.500 80 C 161.758 80, 159 76.629, 159 73.277 C 159 71.141, 158.597 71, 152.500 71 C 146.403 71, 146 71.141, 146 73.277 C 146 76.576, 143.248 80, 140.598 80 C 137.619 80, 135 77.040, 135 73.671 C 135 71.073, 134.836 71, 129 71 C 123.073 71, 123 71.034, 123 73.845 C 123 77.095, 120.306 80, 117.294 80 C 114.667 80, 113.264 78.268, 112.838 74.500 C 112.531 71.775, 112.128 71.473, 108.448 71.202 L 104.395 70.904 102.592 76.702 M 99 91.500 C 99 92.551, 100.060 93, 102.544 93 L 106.088 93 105.794 100.250 L 105.500 107.500 97.181 107.792 C 91.225 108, 88.975 108.427, 89.261 109.292 C 89.908 111.251, 103.687 111.435, 106.605 109.523 C 108.775 108.102, 109 107.257, 109 100.548 C 109 91.988, 107.761 90, 102.429 90 C 100.048 90, 99 90.458, 99 91.500 M 117.655 91.829 C 115.046 94.711, 115.344 106.344, 118.096 109.096 C 119.974 110.974, 121.127 111.156, 129.177 110.846 C 140.043 110.428, 141 109.592, 141 100.531 C 141 90.946, 139.886 90, 128.598 90 C 120.870 90, 119.032 90.307, 117.655 91.829 M 149.571 91.571 C 148.427 92.716, 148 95.146, 148 100.515 C 148 109.962, 149.188 111, 160 111 C 170.944 111, 172 110.030, 172 99.978 C 172 90.315, 171.610 90, 159.637 90 C 153.248 90, 150.753 90.390, 149.571 91.571 M 119.430 94.323 C 119.134 95.093, 119.029 98.374, 119.196 101.612 L 119.500 107.500 128.500 107.500 L 137.500 107.500 137.500 100.500 L 137.500 93.500 128.734 93.211 C 121.939 92.987, 119.846 93.237, 119.430 94.323 M 151.206 100.250 L 151.500 107.500 160.250 107.789 L 169 108.078 169 100.539 L 169 93 159.956 93 L 150.912 93 151.206 100.250 M 162.507 97.992 C 159.933 100.679, 159.472 100.832, 157.992 99.492 C 156.200 97.871, 154 97.504, 154 98.826 C 154 99.951, 158.392 104, 159.612 104 C 160.719 104, 168 96.803, 168 95.708 C 168 94.042, 165.160 95.223, 162.507 97.992 M 73.922 114.146 C 72.808 116.227, 72.905 116.271, 77.099 115.600 C 82.008 114.815, 82.462 114.556, 81.541 113.067 C 80.331 111.108, 75.155 111.841, 73.922 114.146 M 75.356 119.233 C 73.746 121.838, 73.773 137.410, 75.398 143.644 C 76.279 147.024, 77 151.626, 77 153.872 C 77 158.655, 73.184 169.364, 69.600 174.638 C 68.219 176.671, 67.365 178.782, 67.704 179.329 C 68.602 180.783, 71.855 176.425, 75.265 169.196 C 79.182 160.893, 79.885 152.491, 77.508 142.397 C 75.792 135.109, 75.813 126.096, 77.561 120.250 C 78.281 117.842, 76.674 117.101, 75.356 119.233 M 86.750 120.080 C 85.303 120.923, 85 122.555, 85 129.515 C 85 139.686, 85.351 140, 96.712 140 C 107.823 140, 109 139.004, 109 129.598 C 109 119.792, 108.083 118.990, 96.921 119.030 C 92.290 119.047, 87.713 119.519, 86.750 120.080 M 117.655 120.829 C 116.463 122.146, 116 124.524, 116 129.329 C 116 138.839, 117.360 140, 128.500 140 C 139.529 140, 141 138.791, 141 129.723 C 141 119.923, 139.933 119, 128.598 119 C 120.870 119, 119.032 119.307, 117.655 120.829 M 149.571 120.571 C 148.427 121.716, 148 124.146, 148 129.515 C 148 138.962, 149.188 140, 160 140 C 170.812 140, 172 138.962, 172 129.515 C 172 119.570, 171.349 119, 160 119 C 153.281 119, 150.763 119.379, 149.571 120.571 M 87.415 123.362 C 87.127 124.111, 87.029 127.374, 87.196 130.612 L 87.500 136.500 96.500 136.500 L 105.500 136.500 105.794 129.250 L 106.088 122 97.012 122 C 90.277 122, 87.802 122.351, 87.415 123.362 M 119.430 123.323 C 119.134 124.093, 119.029 127.374, 119.196 130.612 L 119.500 136.500 128.500 136.500 L 137.500 136.500 137.500 129.500 L 137.500 122.500 128.734 122.211 C 121.939 121.987, 119.846 122.237, 119.430 123.323 M 151 129.500 L 151 137 160 137 L 169 137 169 129.500 L 169 122 160 122 L 151 122 151 129.500 M 131.271 128.191 C 128.141 131.321, 128.040 131.346, 126.034 129.530 C 123.712 127.430, 122.041 128.255, 123.602 130.731 C 126.087 134.670, 127.772 134.629, 131.974 130.525 C 135.840 126.750, 136.872 125, 135.231 125 C 134.808 125, 133.026 126.436, 131.271 128.191 M 51.592 129.621 C 51.097 130.910, 51.434 131.117, 53.235 130.634 C 54.481 130.300, 56.063 130.021, 56.750 130.014 C 57.438 130.006, 58 129.550, 58 129 C 58 127.299, 52.270 127.854, 51.592 129.621 M 56.183 136.700 C 57.873 142.823, 56.324 149.365, 50.466 160.841 C 44.918 171.710, 43.816 174.777, 45.381 174.988 C 45.866 175.053, 47.294 172.570, 48.554 169.470 C 49.813 166.370, 51.922 162.183, 53.239 160.167 C 57.031 154.362, 59.001 148.383, 58.986 142.730 C 58.969 136.185, 58.144 133, 56.464 133 C 55.444 133, 55.383 133.804, 56.183 136.700" stroke="none" fill="#0a0a0e" fill-rule="evenodd"/><path d="M 0 107.004 L 0 214.009 108.250 213.754 L 216.500 213.500 216.755 106.750 L 217.009 0 108.505 0 L 0 0 0 107.004 M 0.482 107.500 C 0.482 166.350, 0.603 190.278, 0.750 160.673 C 0.897 131.069, 0.897 82.919, 0.750 53.673 C 0.603 24.428, 0.482 48.650, 0.482 107.500 M 69.748 37.365 C 63.828 39.575, 59.193 43.692, 56.300 49.312 C 51.644 58.355, 53.121 72.352, 60.218 86.448 C 65.934 97.798, 74.785 109, 78.039 109 C 82.130 109, 94.767 90.784, 98.969 78.829 C 101.555 71.470, 102.972 62.207, 102.289 57.115 C 101.452 50.879, 96.311 43.072, 90.803 39.675 C 85.133 36.177, 75.703 35.143, 69.748 37.365 M 115.448 61.275 C 115.147 62.058, 115.036 65.804, 115.201 69.599 C 115.475 75.927, 115.690 76.527, 117.792 76.825 C 120.042 77.144, 120.078 77.001, 119.792 68.836 C 119.546 61.845, 119.221 60.469, 117.747 60.187 C 116.783 60.003, 115.748 60.493, 115.448 61.275 M 138.701 60.632 C 138.316 61.018, 138 64.890, 138 69.236 C 138 76.860, 138.080 77.128, 140.250 76.820 C 142.369 76.519, 142.500 76.034, 142.500 68.514 C 142.500 62.098, 142.195 60.469, 140.951 60.229 C 140.099 60.065, 139.087 60.246, 138.701 60.632 M 162.701 60.632 C 162.316 61.018, 162 64.890, 162 69.236 C 162 76.860, 162.080 77.128, 164.250 76.820 C 166.369 76.519, 166.500 76.034, 166.500 68.514 C 166.500 62.098, 166.195 60.469, 164.951 60.229 C 164.099 60.065, 163.087 60.246, 162.701 60.632 M 44.542 65.275 C 32.467 72.114, 30.772 87.422, 40.053 105.794 C 44.710 115.014, 52.461 125, 54.959 125 C 56.740 125, 62.381 118.325, 67.287 110.411 L 69.822 106.321 65.296 99.911 C 57.621 89.039, 51 73.005, 51 65.290 C 51 62.430, 49.571 62.426, 44.542 65.275 M 102.592 76.702 C 100.089 84.750, 94.999 94.188, 88.511 102.809 C 83.118 109.975, 83.039 110.175, 84.505 113.010 C 86.576 117.015, 86.387 118, 83.547 118 C 81.564 118, 80.894 118.719, 80.053 121.750 C 78.519 127.274, 78.751 135.544, 80.670 143.750 L 82.366 151 130.183 151 C 176.667 151, 178.056 150.944, 180 149 C 181.926 147.074, 182 145.667, 182 111.191 C 182 83.236, 181.712 74.989, 180.689 73.590 C 179.884 72.489, 177.569 71.593, 174.689 71.268 C 170.256 70.769, 170 70.871, 170 73.147 C 170 76.615, 167.283 80, 164.500 80 C 161.758 80, 159 76.629, 159 73.277 C 159 71.141, 158.597 71, 152.500 71 C 146.403 71, 146 71.141, 146 73.277 C 146 76.576, 143.248 80, 140.598 80 C 137.619 80, 135 77.040, 135 73.671 C 135 71.073, 134.836 71, 129 71 C 123.073 71, 123 71.034, 123 73.845 C 123 77.095, 120.306 80, 117.294 80 C 114.667 80, 113.264 78.268, 112.838 74.500 C 112.531 71.775, 112.128 71.473, 108.448 71.202 L 104.395 70.904 102.592 76.702 M 99 91.500 C 99 92.551, 100.060 93, 102.544 93 L 106.088 93 105.794 100.250 L 105.500 107.500 97.181 107.792 C 91.225 108, 88.975 108.427, 89.261 109.292 C 89.908 111.251, 103.687 111.435, 106.605 109.523 C 108.775 108.102, 109 107.257, 109 100.548 C 109 91.988, 107.761 90, 102.429 90 C 100.048 90, 99 90.458, 99 91.500 M 117.655 91.829 C 115.046 94.711, 115.344 106.344, 118.096 109.096 C 119.974 110.974, 121.127 111.156, 129.177 110.846 C 140.043 110.428, 141 109.592, 141 100.531 C 141 90.946, 139.886 90, 128.598 90 C 120.870 90, 119.032 90.307, 117.655 91.829 M 149.571 91.571 C 148.427 92.716, 148 95.146, 148 100.515 C 148 109.962, 149.188 111, 160 111 C 170.944 111, 172 110.030, 172 99.978 C 172 90.315, 171.610 90, 159.637 90 C 153.248 90, 150.753 90.390, 149.571 91.571 M 119.430 94.323 C 119.134 95.093, 119.029 98.374, 119.196 101.612 L 119.500 107.500 128.500 107.500 L 137.500 107.500 137.500 100.500 L 137.500 93.500 128.734 93.211 C 121.939 92.987, 119.846 93.237, 119.430 94.323 M 151.206 100.250 L 151.500 107.500 160.250 107.789 L 169 108.078 169 100.539 L 169 93 159.956 93 L 150.912 93 151.206 100.250 M 162.507 97.992 C 159.933 100.679, 159.472 100.832, 157.992 99.492 C 156.200 97.871, 154 97.504, 154 98.826 C 154 99.951, 158.392 104, 159.612 104 C 160.719 104, 168 96.803, 168 95.708 C 168 94.042, 165.160 95.223, 162.507 97.992 M 73.922 114.146 C 72.808 116.227, 72.905 116.271, 77.099 115.600 C 82.008 114.815, 82.462 114.556, 81.541 113.067 C 80.331 111.108, 75.155 111.841, 73.922 114.146 M 75.356 119.233 C 73.746 121.838, 73.773 137.410, 75.398 143.644 C 76.279 147.024, 77 151.626, 77 153.872 C 77 158.655, 73.184 169.364, 69.600 174.638 C 68.219 176.671, 67.365 178.782, 67.704 179.329 C 68.602 180.783, 71.855 176.425, 75.265 169.196 C 79.182 160.893, 79.885 152.491, 77.508 142.397 C 75.792 135.109, 75.813 126.096, 77.561 120.250 C 78.281 117.842, 76.674 117.101, 75.356 119.233 M 86.750 120.080 C 85.303 120.923, 85 122.555, 85 129.515 C 85 139.686, 85.351 140, 96.712 140 C 107.823 140, 109 139.004, 109 129.598 C 109 119.792, 108.083 118.990, 96.921 119.030 C 92.290 119.047, 87.713 119.519, 86.750 120.080 M 117.655 120.829 C 116.463 122.146, 116 124.524, 116 129.329 C 116 138.839, 117.360 140, 128.500 140 C 139.529 140, 141 138.791, 141 129.723 C 141 119.923, 139.933 119, 128.598 119 C 120.870 119, 119.032 119.307, 117.655 120.829 M 149.571 120.571 C 148.427 121.716, 148 124.146, 148 129.515 C 148 138.962, 149.188 140, 160 140 C 170.812 140, 172 138.962, 172 129.515 C 172 119.570, 171.349 119, 160 119 C 153.281 119, 150.763 119.379, 149.571 120.571 M 87.415 123.362 C 87.127 124.111, 87.029 127.374, 87.196 130.612 L 87.500 136.500 96.500 136.500 L 105.500 136.500 105.794 129.250 L 106.088 122 97.012 122 C 90.277 122, 87.802 122.351, 87.415 123.362 M 119.430 123.323 C 119.134 124.093, 119.029 127.374, 119.196 130.612 L 119.500 136.500 128.500 136.500 L 137.500 136.500 137.500 129.500 L 137.500 122.500 128.734 122.211 C 121.939 121.987, 119.846 122.237, 119.430 123.323 M 151 129.500 L 151 137 160 137 L 169 137 169 129.500 L 169 122 160 122 L 151 122 151 129.500 M 131.271 128.191 C 128.141 131.321, 128.040 131.346, 126.034 129.530 C 123.712 127.430, 122.041 128.255, 123.602 130.731 C 126.087 134.670, 127.772 134.629, 131.974 130.525 C 135.840 126.750, 136.872 125, 135.231 125 C 134.808 125, 133.026 126.436, 131.271 128.191 M 51.592 129.621 C 51.097 130.910, 51.434 131.117, 53.235 130.634 C 54.481 130.300, 56.063 130.021, 56.750 130.014 C 57.438 130.006, 58 129.550, 58 129 C 58 127.299, 52.270 127.854, 51.592 129.621 M 56.183 136.700 C 57.873 142.823, 56.324 149.365, 50.466 160.841 C 44.918 171.710, 43.816 174.777, 45.381 174.988 C 45.866 175.053, 47.294 172.570, 48.554 169.470 C 49.813 166.370, 51.922 162.183, 53.239 160.167 C 57.031 154.362, 59.001 148.383, 58.986 142.730 C 58.969 136.185, 58.144 133, 56.464 133 C 55.444 133, 55.383 133.804, 56.183 136.700" stroke="none" fill="#f9f9f9" fill-rule="evenodd"/></svg>