<svg xmlns="http://www.w3.org/2000/svg" width="860" height="842" viewBox="0 0 860 842" version="1.1"><path d="M 764.202 42.835 C 757.624 45.539, 746.016 55.069, 730.503 70.500 C 671.005 129.684, 586.796 261.743, 533.785 379 C 527.941 391.925, 522.246 404.824, 521.128 407.665 L 519.096 412.829 525.798 416.783 C 544.159 427.613, 587.217 452.103, 587.404 451.821 C 587.521 451.644, 590.543 447.675, 594.119 443 C 671.380 341.990, 758.602 177.417, 779.879 92.500 C 785.702 69.260, 786.704 50.104, 782.398 44.323 C 780.550 41.842, 779.581 41.474, 774.398 41.284 C 770.603 41.145, 766.967 41.698, 764.202 42.835 M 786.609 119.624 C 782.464 132.219, 782.363 131.420, 788.500 134.655 C 793.667 137.379, 798 141.038, 798 142.678 C 798 143.545, 784.950 167.090, 769 195 C 753.050 222.909, 739.115 247.747, 738.032 250.195 C 736.430 253.817, 736.250 255.321, 737.066 258.277 C 738.818 264.623, 747.408 269.316, 753.017 266.993 C 757.999 264.929, 762.098 258.841, 787.010 216.500 C 815.818 167.539, 830 141.247, 830 136.802 C 830 133.347, 827.005 129.028, 822.722 126.307 C 816.406 122.295, 791.630 108, 790.991 108 C 790.685 108, 788.713 113.231, 786.609 119.624 M 120.500 166.990 C 94.596 167.547, 93.203 167.678, 86.193 170.205 C 64.204 178.134, 44.447 197.462, 35.830 219.475 C 32.894 226.976, 32.637 228.676, 31.888 245.500 C 30.432 278.202, 29.697 562.867, 30.861 643 C 32.085 727.280, 31.789 723.950, 39.440 739.500 C 49.365 759.670, 65.212 773.252, 88.560 781.597 L 98.082 785 336.022 785 L 573.962 785 574.529 782.742 C 574.840 781.500, 574.736 775.763, 574.298 769.992 L 573.500 759.500 342 758.881 C 178.233 758.443, 108.535 757.933, 103.784 757.140 C 84.467 753.913, 72.588 745.147, 63.198 727.191 L 58 717.251 58 475.534 L 58 233.818 62.698 224.659 C 69.061 212.254, 77.264 204.040, 89.500 197.822 L 98.500 193.248 335.986 192.555 C 466.603 192.174, 573.628 191.705, 573.820 191.514 C 574.811 190.522, 575.165 182.135, 574.534 174.562 L 573.820 166 360.660 166.205 C 243.422 166.317, 135.350 166.671, 120.500 166.990 M 135.500 292.913 C 114.887 293.596, 113.175 294.025, 109.950 299.314 C 106.580 304.841, 107.817 311.810, 113.003 316.502 C 115.193 318.484, 116.688 318.500, 305.687 318.500 L 496.164 318.500 499.028 315.294 C 505.899 307.605, 503.016 296.401, 493.500 293.809 C 489.047 292.595, 169.232 291.795, 135.500 292.913 M 111.519 411.083 C 107.287 415.607, 106.826 416.542, 107.321 419.592 C 107.965 423.560, 111.178 428.454, 114.320 430.252 C 116.035 431.234, 155.481 431.564, 299.225 431.799 L 481.950 432.099 486.401 425.155 C 491.741 416.824, 495 410.583, 495 408.690 C 495 407.651, 492.683 407.135, 485.846 406.650 C 480.812 406.292, 395.598 406, 296.483 406 L 116.274 406 111.519 411.083 M 503.009 440.801 C 491.105 456.729, 472.676 478.796, 457.879 494.837 C 451.621 501.623, 445.506 508.386, 444.292 509.867 C 442.439 512.126, 441.179 518.040, 436.481 546.530 C 430.727 581.425, 424.809 613.746, 423.013 620.083 C 422.388 622.291, 420.494 624.875, 418.082 626.814 C 415.881 628.583, 412.965 632.416, 411.423 635.568 C 408.827 640.873, 408.740 641.500, 409.801 647.203 C 410.417 650.519, 411.679 654.387, 412.604 655.799 L 414.286 658.366 415.960 656.297 C 420.429 650.779, 474.162 558.418, 481.738 543.234 L 486.361 533.969 485.070 527.477 C 483.613 520.145, 484.107 515.973, 486.994 511.241 C 493.096 501.237, 509.699 501.544, 516.477 511.786 C 517.841 513.847, 519.231 516.905, 519.566 518.582 C 521.152 526.509, 514 537.256, 506.306 538.508 C 499.851 539.558, 498.451 540.590, 493.707 547.790 C 486.384 558.906, 428.185 659.747, 426.384 664.441 C 425.724 666.162, 426.075 666.249, 431.085 665.599 C 438.112 664.688, 444.438 661.604, 447.492 657.600 C 448.832 655.842, 450.596 651.544, 451.412 648.049 C 453.474 639.206, 452.586 640.067, 499.500 601.449 C 512.150 591.036, 526.407 579.025, 531.182 574.757 L 539.865 566.998 544.027 553.749 C 550.184 534.152, 562.966 498.688, 570.350 480.719 L 576.835 464.938 574.667 463.534 C 569.877 460.432, 513.566 428.004, 513.052 428.051 C 512.748 428.079, 508.229 433.816, 503.009 440.801 M 134.212 519.961 C 110.731 520.556, 112.472 520.015, 108.841 527.839 C 106.309 533.295, 106.849 535.332, 112.393 541.250 L 116.843 546 264.863 546 C 346.273 546, 413.091 545.662, 413.346 545.249 C 413.829 544.468, 418 521.881, 418 520.047 C 418 518.954, 176.847 518.881, 134.212 519.961 M 143 632.947 C 123.317 633.343, 114.860 633.865, 113.250 634.785 C 109.232 637.080, 107.701 640.539, 108.237 646.112 C 108.632 650.229, 109.384 651.850, 112.204 654.671 L 115.684 658.150 251.872 658.734 L 388.060 659.318 387.780 645.909 L 387.500 632.500 279 632.447 C 219.325 632.418, 158.125 632.643, 143 632.947" stroke="none" fill="#060606" fill-rule="evenodd"/><path d="M -0 421.001 L -0 842.002 430.250 841.751 L 860.500 841.500 860.751 420.750 L 861.002 -0 430.501 -0 L 0 0 -0 421.001 M 0.495 421.500 C 0.495 653.050, 0.610 747.924, 0.750 632.332 C 0.890 516.739, 0.890 327.289, 0.750 211.332 C 0.610 95.374, 0.495 189.950, 0.495 421.500 M 764.202 42.835 C 757.624 45.539, 746.016 55.069, 730.503 70.500 C 671.005 129.684, 586.796 261.743, 533.785 379 C 527.941 391.925, 522.246 404.824, 521.128 407.665 L 519.096 412.829 525.798 416.783 C 544.159 427.613, 587.217 452.103, 587.404 451.821 C 587.521 451.644, 590.543 447.675, 594.119 443 C 671.380 341.990, 758.602 177.417, 779.879 92.500 C 785.702 69.260, 786.704 50.104, 782.398 44.323 C 780.550 41.842, 779.581 41.474, 774.398 41.284 C 770.603 41.145, 766.967 41.698, 764.202 42.835 M 786.609 119.624 C 782.464 132.219, 782.363 131.420, 788.500 134.655 C 793.667 137.379, 798 141.038, 798 142.678 C 798 143.545, 784.950 167.090, 769 195 C 753.050 222.909, 739.115 247.747, 738.032 250.195 C 736.430 253.817, 736.250 255.321, 737.066 258.277 C 738.818 264.623, 747.408 269.316, 753.017 266.993 C 757.999 264.929, 762.098 258.841, 787.010 216.500 C 815.818 167.539, 830 141.247, 830 136.802 C 830 133.347, 827.005 129.028, 822.722 126.307 C 816.406 122.295, 791.630 108, 790.991 108 C 790.685 108, 788.713 113.231, 786.609 119.624 M 120.500 166.990 C 94.596 167.547, 93.203 167.678, 86.193 170.205 C 64.204 178.134, 44.447 197.462, 35.830 219.475 C 32.894 226.976, 32.637 228.676, 31.888 245.500 C 30.432 278.202, 29.697 562.867, 30.861 643 C 32.085 727.280, 31.789 723.950, 39.440 739.500 C 49.365 759.670, 65.212 773.252, 88.560 781.597 L 98.082 785 336.022 785 L 573.962 785 574.529 782.742 C 574.840 781.500, 574.736 775.763, 574.298 769.992 L 573.500 759.500 342 758.881 C 178.233 758.443, 108.535 757.933, 103.784 757.140 C 84.467 753.913, 72.588 745.147, 63.198 727.191 L 58 717.251 58 475.534 L 58 233.818 62.698 224.659 C 69.061 212.254, 77.264 204.040, 89.500 197.822 L 98.500 193.248 335.986 192.555 C 466.603 192.174, 573.628 191.705, 573.820 191.514 C 574.811 190.522, 575.165 182.135, 574.534 174.562 L 573.820 166 360.660 166.205 C 243.422 166.317, 135.350 166.671, 120.500 166.990 M 135.500 292.913 C 114.887 293.596, 113.175 294.025, 109.950 299.314 C 106.580 304.841, 107.817 311.810, 113.003 316.502 C 115.193 318.484, 116.688 318.500, 305.687 318.500 L 496.164 318.500 499.028 315.294 C 505.899 307.605, 503.016 296.401, 493.500 293.809 C 489.047 292.595, 169.232 291.795, 135.500 292.913 M 111.519 411.083 C 107.287 415.607, 106.826 416.542, 107.321 419.592 C 107.965 423.560, 111.178 428.454, 114.320 430.252 C 116.035 431.234, 155.481 431.564, 299.225 431.799 L 481.950 432.099 486.401 425.155 C 491.741 416.824, 495 410.583, 495 408.690 C 495 407.651, 492.683 407.135, 485.846 406.650 C 480.812 406.292, 395.598 406, 296.483 406 L 116.274 406 111.519 411.083 M 503.009 440.801 C 491.105 456.729, 472.676 478.796, 457.879 494.837 C 451.621 501.623, 445.506 508.386, 444.292 509.867 C 442.439 512.126, 441.179 518.040, 436.481 546.530 C 430.727 581.425, 424.809 613.746, 423.013 620.083 C 422.388 622.291, 420.494 624.875, 418.082 626.814 C 415.881 628.583, 412.965 632.416, 411.423 635.568 C 408.827 640.873, 408.740 641.500, 409.801 647.203 C 410.417 650.519, 411.679 654.387, 412.604 655.799 L 414.286 658.366 415.960 656.297 C 420.429 650.779, 474.162 558.418, 481.738 543.234 L 486.361 533.969 485.070 527.477 C 483.613 520.145, 484.107 515.973, 486.994 511.241 C 493.096 501.237, 509.699 501.544, 516.477 511.786 C 517.841 513.847, 519.231 516.905, 519.566 518.582 C 521.152 526.509, 514 537.256, 506.306 538.508 C 499.851 539.558, 498.451 540.590, 493.707 547.790 C 486.384 558.906, 428.185 659.747, 426.384 664.441 C 425.724 666.162, 426.075 666.249, 431.085 665.599 C 438.112 664.688, 444.438 661.604, 447.492 657.600 C 448.832 655.842, 450.596 651.544, 451.412 648.049 C 453.474 639.206, 452.586 640.067, 499.500 601.449 C 512.150 591.036, 526.407 579.025, 531.182 574.757 L 539.865 566.998 544.027 553.749 C 550.184 534.152, 562.966 498.688, 570.350 480.719 L 576.835 464.938 574.667 463.534 C 569.877 460.432, 513.566 428.004, 513.052 428.051 C 512.748 428.079, 508.229 433.816, 503.009 440.801 M 134.212 519.961 C 110.731 520.556, 112.472 520.015, 108.841 527.839 C 106.309 533.295, 106.849 535.332, 112.393 541.250 L 116.843 546 264.863 546 C 346.273 546, 413.091 545.662, 413.346 545.249 C 413.829 544.468, 418 521.881, 418 520.047 C 418 518.954, 176.847 518.881, 134.212 519.961 M 143 632.947 C 123.317 633.343, 114.860 633.865, 113.250 634.785 C 109.232 637.080, 107.701 640.539, 108.237 646.112 C 108.632 650.229, 109.384 651.850, 112.204 654.671 L 115.684 658.150 251.872 658.734 L 388.060 659.318 387.780 645.909 L 387.500 632.500 279 632.447 C 219.325 632.418, 158.125 632.643, 143 632.947" stroke="none" fill="#f3f3f3" fill-rule="evenodd"/></svg>