<svg xmlns="http://www.w3.org/2000/svg" width="225" height="225" viewBox="0 0 225 225" version="1.1"><path d="M -0 112.504 L -0 225.009 112.750 224.754 L 225.500 224.500 225.754 112.250 L 226.009 0 113.004 0 L 0 0 -0 112.504 M 0.483 113 C 0.483 174.875, 0.603 200.188, 0.750 169.250 C 0.897 138.313, 0.897 87.688, 0.750 56.750 C 0.603 25.813, 0.483 51.125, 0.483 113 M 110 19.008 L 110 25.016 105.962 26.632 C 102.147 28.158, 99 32.034, 99 35.206 C 99 35.924, 96.642 37.593, 93.760 38.915 C 87.395 41.836, 78.186 50.844, 75.185 57.087 C 73.972 59.609, 72.434 63.970, 71.767 66.778 C 70.902 70.422, 69.903 72.179, 68.277 72.919 C 64.738 74.532, 65.732 77.550, 70 78.149 C 72.494 78.499, 72.501 78.532, 72.781 90.750 L 73.062 103 66.031 103 L 59 103 59 97.070 C 59 91.681, 59.206 91.110, 61.250 90.820 C 63.966 90.434, 64.969 86.309, 62.570 85.389 C 61.457 84.962, 60.997 83.434, 60.991 80.143 C 60.979 74.150, 56.805 66.720, 50.591 61.628 C 46.182 58.015, 46 57.655, 46 52.540 C 46 48.421, 45.609 47.064, 44.276 46.553 C 41.719 45.571, 40 48.643, 40 54.191 C 40 56.836, 39.631 59, 39.179 59 C 37.503 59, 29.043 67.995, 27.057 71.889 C 25.925 74.106, 25 77.801, 25 80.100 C 25 82.843, 24.428 84.697, 23.338 85.495 C 21.274 87.004, 22.227 89.985, 25.005 90.712 C 26.713 91.158, 27 92.079, 27 97.117 L 27 103 20.469 103 C 12.264 103, 11.878 103.789, 15.146 113.886 C 17.484 121.110, 17.774 121.516, 20.805 121.813 L 24 122.127 24 164.011 L 24 205.895 18.750 206.198 C 13.897 206.477, 13.500 206.689, 13.500 209 L 13.500 211.500 112.500 211.500 L 211.500 211.500 211.500 209 C 211.500 206.689, 211.103 206.477, 206.250 206.198 L 201 205.895 201 164.011 L 201 122.127 204.195 121.813 C 207.226 121.516, 207.516 121.110, 209.854 113.886 C 213.158 103.676, 212.797 103, 204.031 103 L 197 103 197 97 C 197 91.797, 197.249 91, 198.878 91 C 199.910 91, 201.311 90.331, 201.989 89.513 C 203.434 87.773, 202.656 85, 200.724 85 C 199.796 85, 199.379 83.542, 199.365 80.250 C 199.339 73.944, 196.252 68.189, 190.015 62.818 C 185.210 58.680, 185.001 58.286, 185 53.372 C 185 50.035, 184.476 47.810, 183.500 47 C 180.998 44.924, 179.002 47.522, 178.987 52.872 C 178.976 57.225, 178.648 57.787, 173.466 62.331 C 166.938 68.057, 163.721 73.822, 163.609 80 C 163.563 82.540, 162.929 84.964, 162.155 85.566 C 160.139 87.132, 161.153 90.448, 163.760 90.820 C 165.792 91.109, 166 91.689, 166 97.070 L 166 103 158.969 103 L 151.938 103 152.219 90.750 C 152.499 78.532, 152.506 78.499, 155 78.149 C 159.337 77.541, 160.255 74.529, 156.610 72.868 C 154.880 72.080, 154.043 70.670, 153.577 67.758 C 151.856 56.993, 141.502 43.623, 131.240 38.915 C 127.134 37.032, 126 36.013, 126 34.210 C 126 31.404, 122.102 27.315, 118.586 26.432 C 116.329 25.866, 115.998 25.257, 115.986 21.642 C 115.965 15.101, 115.089 13, 112.383 13 C 110.137 13, 110 13.345, 110 19.008 M 93.914 45.839 C 87.652 49.811, 81.417 57.269, 79.033 63.640 C 75.901 72.013, 75.892 72, 84.500 72 L 92 72 92.015 68.250 C 92.035 63.031, 94.590 52.724, 97.065 47.872 C 98.206 45.636, 98.963 43.630, 98.748 43.414 C 98.532 43.199, 96.357 44.290, 93.914 45.839 M 126 43.520 C 126 43.828, 126.902 45.848, 128.004 48.008 C 130.419 52.742, 132.965 63.087, 132.985 68.250 L 133 72 140.500 72 C 149.120 72, 149.104 72.025, 145.929 63.541 C 143.506 57.064, 135.516 47.814, 129.847 44.922 C 127.731 43.842, 126 43.211, 126 43.520 M 79 90.500 L 79 103 112.500 103 L 146 103 146 90.500 L 146 78 112.500 78 L 79 78 79 90.500 M 84.536 84.350 C 83.260 85.283, 82.550 87.380, 82.238 91.139 C 81.697 97.670, 83.047 99.278, 88.680 98.815 L 92.500 98.500 92.804 92.026 C 93.049 86.789, 92.774 85.308, 91.362 84.276 C 89.116 82.633, 86.851 82.658, 84.536 84.350 M 100.602 84.888 C 99.309 86.316, 98.967 88.201, 99.197 92.638 C 99.488 98.267, 99.614 98.513, 102.371 98.828 C 103.950 99.009, 106.312 98.887, 107.621 98.559 C 109.749 98.025, 110 97.407, 110 92.703 C 110 86.634, 107.977 83, 104.598 83 C 103.340 83, 101.541 83.849, 100.602 84.888 M 117 85 C 115.487 86.513, 115 88.333, 115 92.481 C 115 97.419, 115.236 98.021, 117.379 98.559 C 118.688 98.887, 121.050 99.009, 122.629 98.828 C 125.405 98.511, 125.510 98.297, 125.795 92.366 C 126.016 87.758, 125.687 85.830, 124.473 84.616 C 122.291 82.434, 119.419 82.581, 117 85 M 133.527 84.616 C 132.313 85.830, 131.984 87.758, 132.205 92.366 L 132.500 98.500 136.320 98.815 C 141.551 99.245, 143 97.740, 143 91.878 C 143 84.458, 137.727 80.416, 133.527 84.616 M 33 97 L 33 103 43 103 L 53 103 53 97 L 53 91 43 91 L 33 91 33 97 M 172 97 L 172 103 181.500 103 L 191 103 191 97 L 191 91 181.500 91 L 172 91 172 97 M 30 141.500 L 30 161 56.966 161 L 83.932 161 84.216 150.250 L 84.500 139.500 112 139.233 C 136.966 138.991, 139.615 139.123, 140.750 140.674 C 141.538 141.751, 142 145.822, 142 151.691 L 142 161 168.500 161 L 195 161 195 141.500 L 195 122 112.500 122 L 30 122 30 141.500 M 41.388 129.980 C 40.227 130.449, 38.299 132.076, 37.104 133.595 C 35.162 136.063, 34.962 137.372, 35.216 145.928 L 35.500 155.500 43.914 155.793 C 49.971 156.004, 52.559 155.724, 53.149 154.793 C 53.600 154.082, 53.976 149.765, 53.985 145.200 C 54.003 135.437, 52.499 131.718, 47.881 130.108 C 44.238 128.838, 44.215 128.838, 41.388 129.980 M 65.388 129.980 C 64.227 130.449, 62.299 132.076, 61.104 133.595 C 59.162 136.063, 58.962 137.372, 59.216 145.928 L 59.500 155.500 68.500 155.500 L 77.500 155.500 77.792 146.558 C 78.141 135.847, 76.949 132.294, 72.360 130.377 C 68.630 128.819, 68.308 128.800, 65.388 129.980 M 153.388 129.980 C 148.597 131.916, 146.999 135.654, 147.015 144.885 C 147.024 149.623, 147.400 154.082, 147.851 154.793 C 148.441 155.724, 151.029 156.004, 157.086 155.793 L 165.500 155.500 165.792 146.558 C 166.141 135.847, 164.949 132.294, 160.360 130.377 C 156.630 128.819, 156.308 128.800, 153.388 129.980 M 177.500 129.945 C 172.989 131.792, 171.523 134.830, 171.147 143.110 C 170.949 147.459, 171.073 152.156, 171.422 153.547 C 172.048 156.041, 172.181 156.073, 180.779 155.789 L 189.500 155.500 189.791 146.010 C 190.124 135.144, 189.152 132.381, 184.282 130.345 C 180.651 128.827, 180.284 128.806, 177.500 129.945 M 89.500 175.500 L 89.500 206 92.147 206 L 94.794 206 95.147 189.750 C 95.470 174.871, 95.694 173.188, 97.800 169.800 C 105.973 156.657, 125.582 159.655, 129.043 174.577 C 129.543 176.735, 129.963 184.688, 129.976 192.250 L 130 206 132.918 206 L 135.837 206 135.833 175.500 L 135.830 145 112.665 145 L 89.500 145 89.500 175.500 M 30 186.484 L 30 206 57.022 206 L 84.043 206 83.772 186.750 L 83.500 167.500 56.750 167.234 L 30 166.967 30 186.484 M 142 186.500 L 142 206 168.500 206 L 195 206 195 186.500 L 195 167 168.500 167 L 142 167 142 186.500 M 42.284 173.796 C 41.065 173.980, 38.912 175.504, 37.499 177.183 C 35.075 180.064, 34.946 180.778, 35.215 189.868 L 35.500 199.500 44.500 199.500 L 53.500 199.500 53.785 189.868 C 54.052 180.820, 53.917 180.054, 51.546 177.237 C 48.985 174.193, 46.290 173.192, 42.284 173.796 M 66.284 173.796 C 65.065 173.980, 62.912 175.504, 61.499 177.183 C 59.075 180.064, 58.946 180.778, 59.215 189.868 L 59.500 199.500 68.500 199.500 L 77.500 199.500 77.785 189.868 C 78.052 180.820, 77.917 180.054, 75.546 177.237 C 72.985 174.193, 70.290 173.192, 66.284 173.796 M 154.284 173.701 C 153.065 173.937, 150.912 175.504, 149.499 177.183 C 147.075 180.064, 146.946 180.778, 147.215 189.868 L 147.500 199.500 156.500 199.500 L 165.500 199.500 165.792 190.558 C 166.135 180.027, 165.043 176.723, 160.507 174.570 C 158.687 173.707, 157.041 173.061, 156.849 173.136 C 156.657 173.211, 155.503 173.465, 154.284 173.701 M 178.374 173.689 C 177.205 173.919, 175.180 175.243, 173.874 176.631 C 171.696 178.947, 171.500 179.997, 171.500 189.328 L 171.500 199.500 180.500 199.500 L 189.500 199.500 189.792 190.558 C 190.135 180.027, 189.043 176.723, 184.507 174.570 C 182.687 173.707, 181.041 173.061, 180.849 173.136 C 180.657 173.211, 179.543 173.460, 178.374 173.689" stroke="none" fill="#f7f7f7" fill-rule="evenodd"/><path d="M 110 19.008 L 110 25.016 105.962 26.632 C 102.147 28.158, 99 32.034, 99 35.206 C 99 35.924, 96.642 37.593, 93.760 38.915 C 87.395 41.836, 78.186 50.844, 75.185 57.087 C 73.972 59.609, 72.434 63.970, 71.767 66.778 C 70.902 70.422, 69.903 72.179, 68.277 72.919 C 64.738 74.532, 65.732 77.550, 70 78.149 C 72.494 78.499, 72.501 78.532, 72.781 90.750 L 73.062 103 66.031 103 L 59 103 59 97.070 C 59 91.681, 59.206 91.110, 61.250 90.820 C 63.966 90.434, 64.969 86.309, 62.570 85.389 C 61.457 84.962, 60.997 83.434, 60.991 80.143 C 60.979 74.150, 56.805 66.720, 50.591 61.628 C 46.182 58.015, 46 57.655, 46 52.540 C 46 48.421, 45.609 47.064, 44.276 46.553 C 41.719 45.571, 40 48.643, 40 54.191 C 40 56.836, 39.631 59, 39.179 59 C 37.503 59, 29.043 67.995, 27.057 71.889 C 25.925 74.106, 25 77.801, 25 80.100 C 25 82.843, 24.428 84.697, 23.338 85.495 C 21.274 87.004, 22.227 89.985, 25.005 90.712 C 26.713 91.158, 27 92.079, 27 97.117 L 27 103 20.469 103 C 12.264 103, 11.878 103.789, 15.146 113.886 C 17.484 121.110, 17.774 121.516, 20.805 121.813 L 24 122.127 24 164.011 L 24 205.895 18.750 206.198 C 13.897 206.477, 13.500 206.689, 13.500 209 L 13.500 211.500 112.500 211.500 L 211.500 211.500 211.500 209 C 211.500 206.689, 211.103 206.477, 206.250 206.198 L 201 205.895 201 164.011 L 201 122.127 204.195 121.813 C 207.226 121.516, 207.516 121.110, 209.854 113.886 C 213.158 103.676, 212.797 103, 204.031 103 L 197 103 197 97 C 197 91.797, 197.249 91, 198.878 91 C 199.910 91, 201.311 90.331, 201.989 89.513 C 203.434 87.773, 202.656 85, 200.724 85 C 199.796 85, 199.379 83.542, 199.365 80.250 C 199.339 73.944, 196.252 68.189, 190.015 62.818 C 185.210 58.680, 185.001 58.286, 185 53.372 C 185 50.035, 184.476 47.810, 183.500 47 C 180.998 44.924, 179.002 47.522, 178.987 52.872 C 178.976 57.225, 178.648 57.787, 173.466 62.331 C 166.938 68.057, 163.721 73.822, 163.609 80 C 163.563 82.540, 162.929 84.964, 162.155 85.566 C 160.139 87.132, 161.153 90.448, 163.760 90.820 C 165.792 91.109, 166 91.689, 166 97.070 L 166 103 158.969 103 L 151.938 103 152.219 90.750 C 152.499 78.532, 152.506 78.499, 155 78.149 C 159.337 77.541, 160.255 74.529, 156.610 72.868 C 154.880 72.080, 154.043 70.670, 153.577 67.758 C 151.856 56.993, 141.502 43.623, 131.240 38.915 C 127.134 37.032, 126 36.013, 126 34.210 C 126 31.404, 122.102 27.315, 118.586 26.432 C 116.329 25.866, 115.998 25.257, 115.986 21.642 C 115.965 15.101, 115.089 13, 112.383 13 C 110.137 13, 110 13.345, 110 19.008 M 93.914 45.839 C 87.652 49.811, 81.417 57.269, 79.033 63.640 C 75.901 72.013, 75.892 72, 84.500 72 L 92 72 92.015 68.250 C 92.035 63.031, 94.590 52.724, 97.065 47.872 C 98.206 45.636, 98.963 43.630, 98.748 43.414 C 98.532 43.199, 96.357 44.290, 93.914 45.839 M 126 43.520 C 126 43.828, 126.902 45.848, 128.004 48.008 C 130.419 52.742, 132.965 63.087, 132.985 68.250 L 133 72 140.500 72 C 149.120 72, 149.104 72.025, 145.929 63.541 C 143.506 57.064, 135.516 47.814, 129.847 44.922 C 127.731 43.842, 126 43.211, 126 43.520 M 79 90.500 L 79 103 112.500 103 L 146 103 146 90.500 L 146 78 112.500 78 L 79 78 79 90.500 M 84.536 84.350 C 83.260 85.283, 82.550 87.380, 82.238 91.139 C 81.697 97.670, 83.047 99.278, 88.680 98.815 L 92.500 98.500 92.804 92.026 C 93.049 86.789, 92.774 85.308, 91.362 84.276 C 89.116 82.633, 86.851 82.658, 84.536 84.350 M 100.602 84.888 C 99.309 86.316, 98.967 88.201, 99.197 92.638 C 99.488 98.267, 99.614 98.513, 102.371 98.828 C 103.950 99.009, 106.312 98.887, 107.621 98.559 C 109.749 98.025, 110 97.407, 110 92.703 C 110 86.634, 107.977 83, 104.598 83 C 103.340 83, 101.541 83.849, 100.602 84.888 M 117 85 C 115.487 86.513, 115 88.333, 115 92.481 C 115 97.419, 115.236 98.021, 117.379 98.559 C 118.688 98.887, 121.050 99.009, 122.629 98.828 C 125.405 98.511, 125.510 98.297, 125.795 92.366 C 126.016 87.758, 125.687 85.830, 124.473 84.616 C 122.291 82.434, 119.419 82.581, 117 85 M 133.527 84.616 C 132.313 85.830, 131.984 87.758, 132.205 92.366 L 132.500 98.500 136.320 98.815 C 141.551 99.245, 143 97.740, 143 91.878 C 143 84.458, 137.727 80.416, 133.527 84.616 M 33 97 L 33 103 43 103 L 53 103 53 97 L 53 91 43 91 L 33 91 33 97 M 172 97 L 172 103 181.500 103 L 191 103 191 97 L 191 91 181.500 91 L 172 91 172 97 M 30 141.500 L 30 161 56.966 161 L 83.932 161 84.216 150.250 L 84.500 139.500 112 139.233 C 136.966 138.991, 139.615 139.123, 140.750 140.674 C 141.538 141.751, 142 145.822, 142 151.691 L 142 161 168.500 161 L 195 161 195 141.500 L 195 122 112.500 122 L 30 122 30 141.500 M 41.388 129.980 C 40.227 130.449, 38.299 132.076, 37.104 133.595 C 35.162 136.063, 34.962 137.372, 35.216 145.928 L 35.500 155.500 43.914 155.793 C 49.971 156.004, 52.559 155.724, 53.149 154.793 C 53.600 154.082, 53.976 149.765, 53.985 145.200 C 54.003 135.437, 52.499 131.718, 47.881 130.108 C 44.238 128.838, 44.215 128.838, 41.388 129.980 M 65.388 129.980 C 64.227 130.449, 62.299 132.076, 61.104 133.595 C 59.162 136.063, 58.962 137.372, 59.216 145.928 L 59.500 155.500 68.500 155.500 L 77.500 155.500 77.792 146.558 C 78.141 135.847, 76.949 132.294, 72.360 130.377 C 68.630 128.819, 68.308 128.800, 65.388 129.980 M 153.388 129.980 C 148.597 131.916, 146.999 135.654, 147.015 144.885 C 147.024 149.623, 147.400 154.082, 147.851 154.793 C 148.441 155.724, 151.029 156.004, 157.086 155.793 L 165.500 155.500 165.792 146.558 C 166.141 135.847, 164.949 132.294, 160.360 130.377 C 156.630 128.819, 156.308 128.800, 153.388 129.980 M 177.500 129.945 C 172.989 131.792, 171.523 134.830, 171.147 143.110 C 170.949 147.459, 171.073 152.156, 171.422 153.547 C 172.048 156.041, 172.181 156.073, 180.779 155.789 L 189.500 155.500 189.791 146.010 C 190.124 135.144, 189.152 132.381, 184.282 130.345 C 180.651 128.827, 180.284 128.806, 177.500 129.945 M 89.500 175.500 L 89.500 206 92.147 206 L 94.794 206 95.147 189.750 C 95.470 174.871, 95.694 173.188, 97.800 169.800 C 105.973 156.657, 125.582 159.655, 129.043 174.577 C 129.543 176.735, 129.963 184.688, 129.976 192.250 L 130 206 132.918 206 L 135.837 206 135.833 175.500 L 135.830 145 112.665 145 L 89.500 145 89.500 175.500 M 30 186.484 L 30 206 57.022 206 L 84.043 206 83.772 186.750 L 83.500 167.500 56.750 167.234 L 30 166.967 30 186.484 M 142 186.500 L 142 206 168.500 206 L 195 206 195 186.500 L 195 167 168.500 167 L 142 167 142 186.500 M 42.284 173.796 C 41.065 173.980, 38.912 175.504, 37.499 177.183 C 35.075 180.064, 34.946 180.778, 35.215 189.868 L 35.500 199.500 44.500 199.500 L 53.500 199.500 53.785 189.868 C 54.052 180.820, 53.917 180.054, 51.546 177.237 C 48.985 174.193, 46.290 173.192, 42.284 173.796 M 66.284 173.796 C 65.065 173.980, 62.912 175.504, 61.499 177.183 C 59.075 180.064, 58.946 180.778, 59.215 189.868 L 59.500 199.500 68.500 199.500 L 77.500 199.500 77.785 189.868 C 78.052 180.820, 77.917 180.054, 75.546 177.237 C 72.985 174.193, 70.290 173.192, 66.284 173.796 M 154.284 173.701 C 153.065 173.937, 150.912 175.504, 149.499 177.183 C 147.075 180.064, 146.946 180.778, 147.215 189.868 L 147.500 199.500 156.500 199.500 L 165.500 199.500 165.792 190.558 C 166.135 180.027, 165.043 176.723, 160.507 174.570 C 158.687 173.707, 157.041 173.061, 156.849 173.136 C 156.657 173.211, 155.503 173.465, 154.284 173.701 M 178.374 173.689 C 177.205 173.919, 175.180 175.243, 173.874 176.631 C 171.696 178.947, 171.500 179.997, 171.500 189.328 L 171.500 199.500 180.500 199.500 L 189.500 199.500 189.792 190.558 C 190.135 180.027, 189.043 176.723, 184.507 174.570 C 182.687 173.707, 181.041 173.061, 180.849 173.136 C 180.657 173.211, 179.543 173.460, 178.374 173.689" stroke="none" fill="#070707" fill-rule="evenodd"/></svg>