<?xml version="1.0" encoding="UTF-8"?>
<svg version="1.1" xmlns="http://www.w3.org/2000/svg" width="512" height="512">
<path d="M0 0 C19.24590601 16.60165515 33.50678489 40.1453343 36.328125 65.7578125 C36.078125 67.67578125 36.078125 67.67578125 35.0725708 69.27184486 C31.94122962 71.47606812 28.60986841 71.08798519 24.91699219 71.05673218 C24.07533382 71.06141215 23.23367546 71.06609212 22.3665123 71.07091391 C19.53584965 71.08291519 16.70566656 71.07338672 13.875 71.06396484 C11.84989132 71.06802827 9.82478486 71.07336885 7.79968262 71.07989502 C2.29151501 71.09360169 -3.21648451 71.08825614 -8.72465515 71.07875776 C-14.4808295 71.07117851 -20.23698917 71.07820194 -25.99316406 71.08291626 C-35.66083366 71.08837888 -45.32843457 71.08116892 -54.99609375 71.06689453 C-66.18364593 71.05056708 -77.3710341 71.05585523 -88.55858231 71.07237375 C-98.15267977 71.08597419 -107.74672777 71.08791533 -117.34083176 71.08005774 C-123.07592203 71.07537329 -128.81093515 71.07477754 -134.54602051 71.08466721 C-139.9370036 71.09331363 -145.32777463 71.08735755 -150.71873474 71.06998444 C-152.70091906 71.06600714 -154.68312113 71.06717475 -156.66529846 71.07377243 C-159.3640232 71.08192904 -162.06206159 71.07173797 -164.76074219 71.05673218 C-165.55149265 71.06342434 -166.34224312 71.07011651 -167.15695572 71.07701147 C-172.4331333 71.0198178 -172.4331333 71.0198178 -174.9163208 69.27184486 C-177.1369842 65.74710193 -175.69998123 61.53731464 -174.921875 57.67578125 C-167.85651673 29.3233779 -150.68918444 5.19133203 -125.6640625 -10.15234375 C-85.81391773 -33.74095747 -35.48930208 -29.74238146 0 0 Z " fill="#000000" transform="translate(325.921875,424.32421875)"/>
<path d="M0 0 C16.17763326 14.01910073 26.39514202 32.19496515 32.15625 52.66015625 C32.54103516 54.00787109 32.54103516 54.00787109 32.93359375 55.3828125 C34.05235226 59.76278861 34.36099923 63.27924995 33.15625 67.66015625 C32.15625 68.66015625 32.15625 68.66015625 30.12788296 68.78320408 C29.2291348 68.78228229 28.33038664 68.78136049 27.40440369 68.78041077 C25.8625515 68.78247276 25.8625515 68.78247276 24.28955078 68.78457642 C23.15235596 68.78098114 22.01516113 68.77738586 20.84350586 68.77368164 C19.05838341 68.77390068 19.05838341 68.77390068 17.23719788 68.77412415 C13.96461726 68.77354519 10.69207893 68.76851606 7.41950679 68.76155019 C4.00286335 68.75531592 0.58621917 68.75471279 -2.83042908 68.75352478 C-9.30444267 68.75041168 -15.77843946 68.74219858 -22.25244564 68.73217529 C-29.6211292 68.7210135 -36.98981355 68.71550354 -44.35850346 68.71047986 C-59.52026169 68.70001594 -74.68200417 68.68241691 -89.84375 68.66015625 C-90.12745956 67.86357605 -90.12745956 67.86357605 -90.41690063 67.05090332 C-91.29532106 64.59552574 -92.18276116 62.14349731 -93.0703125 59.69140625 C-93.51612671 58.4389209 -93.51612671 58.4389209 -93.97094727 57.16113281 C-98.71839878 44.10405655 -105.61479325 33.03667154 -114.84375 22.66015625 C-115.52824219 21.83257812 -116.21273438 21.005 -116.91796875 20.15234375 C-123.77337343 12.06778148 -132.04158649 5.52826525 -140.84375 -0.33984375 C-137.4610976 -9.33324293 -123.55802996 -14.84337603 -115.28930664 -18.65771484 C-75.63544279 -36.1109218 -32.52138788 -26.75866942 0 0 Z " fill="#000000" transform="translate(462.84375,404.33984375)"/>
<path d="M0 0 C1.95703125 2.04296875 1.95703125 2.04296875 1.95703125 6.04296875 C-0.02734375 7.796875 -0.02734375 7.796875 -2.79296875 9.60546875 C-22.6197105 23.44103118 -37.24497079 43.00031931 -45.17626953 65.83032227 C-45.45281876 66.62039925 -45.72936798 67.41047623 -46.01429749 68.22449493 C-46.69258958 70.16326382 -47.3680611 72.1030191 -48.04296875 74.04296875 C-63.91522723 74.11298308 -79.78744417 74.16591965 -95.65981865 74.19840527 C-103.02928701 74.21388838 -110.39865954 74.2350053 -117.76806641 74.26928711 C-124.18963531 74.29914548 -130.61113484 74.31853324 -137.03277123 74.32523423 C-140.43447018 74.3291526 -143.8359706 74.3383908 -147.23760605 74.36015892 C-151.03075895 74.38180383 -154.82349492 74.38494106 -158.61669922 74.38354492 C-160.31709854 74.39972366 -160.31709854 74.39972366 -162.05184937 74.41622925 C-163.59576355 74.41004326 -163.59576355 74.41004326 -165.17086792 74.4037323 C-166.06869429 74.40649768 -166.96652065 74.40926306 -167.89155388 74.41211224 C-168.60152079 74.29029489 -169.31148769 74.16847754 -170.04296875 74.04296875 C-172.34852812 70.58462969 -172.20845409 68.95654764 -171.63671875 64.94140625 C-169.07270063 52.42494939 -164.20480752 41.17344016 -158.04296875 30.04296875 C-157.49898437 29.05554688 -156.955 28.068125 -156.39453125 27.05078125 C-142.34617572 3.40842683 -117.7600909 -12.13204877 -91.609375 -19.14453125 C-59.49394414 -26.46108067 -26.31526118 -19.76344513 0 0 Z " fill="#000000" transform="translate(187.04296875,398.95703125)"/>
<path d="M0 0 C12.20644635 9.28435987 20.94555222 20.51600979 24.30078125 35.75 C25.79537488 52.362692 24.00686783 66.96781686 13.32421875 80.390625 C12.65648437 81.16921875 11.98875 81.9478125 11.30078125 82.75 C10.75679688 83.40484375 10.2128125 84.0596875 9.65234375 84.734375 C0.93541145 94.34426134 -12.3877713 100.21966564 -25.265625 100.953125 C-42.46333237 101.15485764 -55.74737588 97.11962931 -68.48046875 85.03125 C-79.83067371 73.36132096 -84.12779759 59.75771498 -84.06274414 43.73657227 C-83.79468625 30.03940985 -78.43547153 17.61173296 -69.07421875 7.5 C-50.53639931 -9.54627074 -21.69434622 -14.58443443 0 0 Z " fill="#000000" transform="translate(285.69921875,289.25)"/>
<path d="M0 0 C14.51563219 0.31185929 28.96849931 5.98166816 39.41796875 16.1015625 C51.51252525 29.37901974 55.27342136 44.43520106 54.55859375 61.98779297 C53.37320138 76.59397081 44.94106409 88.48117356 34.40234375 98.0390625 C21.90587359 108.04650267 6.99047287 110.76479871 -8.625 109.25 C-13.15591191 108.32376511 -17.34142102 106.98140465 -21.625 105.25 C-22.74455078 104.79947266 -22.74455078 104.79947266 -23.88671875 104.33984375 C-37.16441666 98.31401228 -46.60587953 86.82697932 -51.69140625 73.3125 C-56.51172467 57.5002421 -54.88529591 42.31442445 -47.4375 27.625 C-39.10035749 13.59419919 -27.07786996 5.66774632 -11.625 1.25 C-7.75943386 0.39730159 -3.94600264 0.27213811 0 0 Z " fill="#000000" transform="translate(390.625,258.75)"/>
<path d="M0 0 C10.83764738 11.12665131 15.35879003 25.42155033 15.53125 40.71875 C14.53091777 56.40914632 8.17100557 69.21458034 -3.46875 79.71875 C-16.64064646 90.60979859 -30.58505343 94.09600711 -47.46875 92.71875 C-62.35172773 90.64927453 -74.45949165 82.44838795 -83.78125 70.84375 C-90.53260192 61.2426773 -93.8690951 50.56454971 -93.78125 38.90625 C-93.77561035 38.11653809 -93.7699707 37.32682617 -93.76416016 36.51318359 C-93.46813068 22.2011841 -87.8744244 9.31633485 -77.94140625 -1.03125 C-54.9116524 -21.98723454 -22.39976791 -20.69851972 0 0 Z " fill="#000000" transform="translate(160.46875,275.28125)"/>
<path d="M0 0 C0 48.84 0 97.68 0 148 C-6.72279793 145.75906736 -6.72279793 145.75906736 -10.0390625 143.8984375 C-10.77390869 143.49463867 -11.50875488 143.09083984 -12.26586914 142.67480469 C-13.04438232 142.24586914 -13.82289551 141.81693359 -14.625 141.375 C-21.30167212 137.78652456 -28.02047009 134.5576067 -35.0625 131.75 C-35.79098145 131.45786621 -36.51946289 131.16573242 -37.27001953 130.86474609 C-45.7402919 127.5726786 -54.36332019 124.87889327 -63 122 C-63.33 90.98 -63.66 59.96 -64 28 C-54.595 24.535 -54.595 24.535 -45 21 C-40.93474229 19.28017764 -36.93157685 17.55060468 -32.9375 15.6875 C-31.44150269 14.99853638 -31.44150269 14.99853638 -29.9152832 14.2956543 C-22.56557317 10.86007441 -15.44194022 7.09958564 -8.44311523 2.99682617 C-3.29058067 0 -3.29058067 0 0 0 Z " fill="#000000" transform="translate(272,36)"/>
<path d="M0 0 C1.6392041 0.00453186 1.6392041 0.00453186 3.31152344 0.00915527 C7.36402941 0.0247613 11.41639995 0.0666448 15.46875 0.10546875 C24.54375 0.16734375 33.61875 0.22921875 42.96875 0.29296875 C42.96875 29.00296875 42.96875 57.71296875 42.96875 87.29296875 C34.615625 87.35484375 26.2625 87.41671875 17.65625 87.48046875 C15.04162842 87.50778076 12.42700684 87.53509277 9.7331543 87.56323242 C7.62809713 87.5720058 5.52303481 87.57964771 3.41796875 87.5859375 C1.81822205 87.60895935 1.81822205 87.60895935 0.18615723 87.63244629 C-13.44979265 87.63713487 -25.1051279 83.60613331 -35.18359375 74.2890625 C-42.7453361 66.11982288 -47.10102948 54.82603585 -47.46875 43.73046875 C-46.86360288 30.30010691 -41.93708707 19.27245958 -32.16796875 10.04296875 C-28.72619247 7.22410994 -25.08467718 5.10803187 -21.03125 3.29296875 C-19.92910156 2.78121094 -18.82695312 2.26945312 -17.69140625 1.7421875 C-11.90866525 -0.39947012 -6.09164605 -0.08003163 0 0 Z " fill="#000000" transform="translate(153.03125,67.70703125)"/>
<path d="M0 0 C5.20163332 5.07476422 5.74859174 10.61276389 5.94345093 17.6030426 C5.97262283 20.48898975 5.96305257 23.37398599 5.95068359 26.26000977 C5.95475335 27.85572671 5.96009749 29.45144083 5.96661377 31.04714966 C5.9802441 35.36319481 5.97500679 39.67902387 5.96547651 43.9950726 C5.95785898 48.52015322 5.96493121 53.04521586 5.96963501 57.57029724 C5.97508591 65.16693428 5.96791784 72.7634837 5.95361328 80.36010742 C5.93728216 89.13410953 5.94258129 97.90790254 5.9590925 106.68189961 C5.97271932 114.22607508 5.97462136 121.77018772 5.96677649 129.31437153 C5.96210731 133.8154413 5.96145446 138.31641287 5.97138596 142.81747627 C5.98007098 147.0488028 5.97400578 151.27986042 5.95670319 155.51115799 C5.95274678 157.06111264 5.95385787 158.61109003 5.96049118 160.16103554 C5.96873057 162.28230644 5.95835768 164.40272401 5.94345093 166.52394104 C5.94231985 167.70911599 5.94118877 168.89429094 5.94002342 170.11538029 C5.28879596 175.95384532 3.21845178 180.71703918 -1.4375 184.5 C-6.41964977 186.16071659 -10.30971233 186.42162896 -15.125 184.3359375 C-17.95572352 182.80262893 -20.70078054 181.19573612 -23.4375 179.5 C-24.09812187 179.26440274 -24.75874374 179.02880548 -25.43938446 178.78606892 C-28.06369805 177.66025782 -29.56155815 176.67534603 -31.4375 174.5 C-32.66238087 169.26353268 -32.44830256 164.03523987 -32.34570312 158.6940918 C-32.34344591 157.05790824 -32.34471443 155.42171657 -32.34924316 153.78553772 C-32.35153855 149.3472482 -32.30450935 144.91068843 -32.2486515 140.47280097 C-32.19863869 135.83374794 -32.19394155 131.19465517 -32.18444824 126.55537415 C-32.15958362 117.77199829 -32.09393559 108.98941907 -32.01365232 100.20639402 C-31.92423106 90.20658105 -31.88024676 80.20673002 -31.84008884 70.20661676 C-31.75646917 49.63729987 -31.61575688 29.06870012 -31.4375 8.5 C-28.66653557 6.79702088 -25.86812715 5.14513795 -23.0625 3.5 C-22.28777344 3.02304687 -21.51304687 2.54609375 -20.71484375 2.0546875 C-13.83009372 -1.92822574 -7.47340535 -3.26112233 0 0 Z " fill="#000000" transform="translate(316.4375,18.5)"/>
<path d="M0 0 C10.89 0 21.78 0 33 0 C33 21.78 33 43.56 33 66 C14.51351351 66 14.51351351 66 6 59 C2.24849155 53.99122925 -0.13019164 49.60301584 -0.11352539 43.25317383 C-0.11344986 42.29240433 -0.11337433 41.33163483 -0.11329651 40.3417511 C-0.10813522 39.30729355 -0.10297394 38.272836 -0.09765625 37.20703125 C-0.0962413 36.14586594 -0.09482635 35.08470062 -0.09336853 33.99137878 C-0.08776606 30.59839065 -0.07521314 27.20546823 -0.0625 23.8125 C-0.05748532 21.51367283 -0.05292236 19.21484462 -0.04882812 16.91601562 C-0.03864626 11.27729799 -0.01907122 5.63872266 0 0 Z " fill="#000000" transform="translate(163,168)"/>
<path d="M0 0 C0.67293091 -0.0004985 1.34586182 -0.00099701 2.03918457 -0.00151062 C3.45795656 0.00082356 4.87673319 0.01051349 6.29541016 0.02709961 C8.46164144 0.05070379 10.62664138 0.04765477 12.79296875 0.04101562 C24.53010323 0.08839766 24.53010323 0.08839766 27.96875 2.36328125 C30.03341502 5.01785056 29.96559937 6.45149885 29.84375 9.86328125 C28.85642539 13.8125797 28.17060107 14.93587689 24.96875 17.36328125 C21.65649414 17.89672852 21.65649414 17.89672852 17.75390625 17.9296875 C16.71477333 17.93898537 16.71477333 17.93898537 15.65464783 17.94847107 C14.19303794 17.95555782 12.73134713 17.95241498 11.26977539 17.93969727 C9.0409582 17.9258416 6.81635252 17.9598925 4.58789062 17.99804688 C3.16406148 17.9989983 1.74022711 17.99713796 0.31640625 17.9921875 C-1.61706665 17.99327515 -1.61706665 17.99327515 -3.58959961 17.99438477 C-7.87608117 17.20836257 -9.35953016 15.7348124 -12.03125 12.36328125 C-12.44140625 10.01171875 -12.44140625 10.01171875 -12.09375 7.73828125 C-12.00222656 6.98289062 -11.91070312 6.2275 -11.81640625 5.44921875 C-9.75173643 -0.03602345 -5.23452374 -0.01245994 0 0 Z " fill="#000000" transform="translate(384.03125,101.63671875)"/>
<path d="M0 0 C3.33262341 2.1925154 3.90398084 3.55591138 4.75 7.46875 C4.62879042 13.20404854 0.50919616 16.33061456 -3.3671875 20.11914062 C-4.36956848 21.05883188 -5.3721752 21.99828239 -6.375 22.9375 C-7.37156099 23.90247298 -8.36637295 24.86925572 -9.359375 25.83789062 C-17.62726247 33.81696833 -17.62726247 33.81696833 -21.8125 34.375 C-25 34 -25 34 -27.875 31.9375 C-30 29 -30 29 -30.75 25.6875 C-29.65021022 20.28020024 -26.84830501 17.82402549 -23 14 C-21.83998871 12.80581042 -20.68123871 11.61039494 -19.5234375 10.4140625 C-18.26708598 9.12877861 -17.00925943 7.84493499 -15.75 6.5625 C-15.13560059 5.934646 -14.52120117 5.30679199 -13.88818359 4.65991211 C-13.30117676 4.07218018 -12.71416992 3.48444824 -12.109375 2.87890625 C-11.58311523 2.3485376 -11.05685547 1.81816895 -10.51464844 1.27172852 C-7.083691 -1.6089706 -4.0790926 -1.08220824 0 0 Z " fill="#000000" transform="translate(385,43)"/>
<path d="M0 0 C3.01966866 1.95889512 5.45398176 4.46991928 8 7 C9.19657445 8.17061394 10.39319264 9.34118317 11.58984375 10.51171875 C14.10945045 12.99476293 16.62483146 15.48175472 19.12109375 17.98828125 C19.6514624 18.51977783 20.18183105 19.05127441 20.72827148 19.59887695 C22.63831918 21.70326623 22.99483019 22.95347167 23.3125 25.8125 C22.91937952 29.82232894 21.94829358 31.28446644 19 34 C16.0625 35 16.0625 35 13 35 C7.18749853 31.99416548 2.83636211 27.39559373 -1.8125 22.875 C-3.13797852 21.64910156 -3.13797852 21.64910156 -4.49023438 20.3984375 C-11.57099458 13.48717812 -11.57099458 13.48717812 -11.70703125 8.04296875 C-11.44227074 4.78637787 -11.05870481 4.07079109 -8.875 1.4375 C-5.33933859 -0.33033071 -3.89612263 -0.84034017 0 0 Z " fill="#000000" transform="translate(366,144)"/>
<path d="M0 0 C6.69219402 2.67687761 10.59404325 6.65787363 14 13 C16.62877814 21.54689919 16.45817667 29.17819192 12.375 37.1875 C9.27332036 40.86054168 5.88650246 44.15662807 2 47 C1.34 47 0.68 47 0 47 C0 31.49 0 15.98 0 0 Z " fill="#000000" transform="translate(335,87)"/>
</svg>
