<?xml version="1.0" encoding="UTF-8"?>
<svg version="1.1" xmlns="http://www.w3.org/2000/svg" width="360" height="360">
<path d="M0 0 C0.51953125 2.28515625 0.51953125 2.28515625 0.8125 5.0625 C2.49032431 15.32918687 9.81739003 22.35451703 16.4140625 29.984375 C23 37.66465257 23 37.66465257 23 40 C22.13375 39.67 21.2675 39.34 20.375 39 C13.32159934 37.07245124 5.58374048 36.44791775 -1.2109375 39.390625 C-5.16992238 41.83182211 -8.26393148 43.89589723 -10.8671875 47.80078125 C-11.57101563 48.52652344 -12.27484375 49.25226563 -13 50 C-19.45346833 50.00750403 -24.18688519 47.3522073 -29.39453125 43.78125 C-33.57742099 39.3161563 -33.75454893 34.60845156 -34.4140625 28.72265625 C-34.98159688 25.11692117 -35.51200011 23.59543241 -37.8125 20.875 C-38.534375 19.92625 -39.25625 18.9775 -40 18 C-39.3860531 14.00934518 -38.12697059 11.55843048 -35 9 C-40.82134094 6.4390404 -46.72853841 5.76017716 -53 5 C-53.92039063 4.8659375 -54.84078125 4.731875 -55.7890625 4.59375 C-59.73777839 4.25144646 -62.02869884 4.31111077 -65.32421875 6.6484375 C-67.42071087 8.67341552 -69.25975412 10.66261093 -71 13 C-71.44472656 13.59425781 -71.88945312 14.18851563 -72.34765625 14.80078125 C-73.37815587 18.2748608 -72.09839772 21.14775384 -70.9375 24.4375 C-70.73189453 25.09298828 -70.52628906 25.74847656 -70.31445312 26.42382812 C-68.29647679 32.35870249 -65.13023128 35.57984581 -60 39 C-61.30897224 43.36324082 -63.05375536 47.12992993 -65.29296875 51.0703125 C-66.18817905 53.51359364 -65.95229447 54.60002555 -65 57 C-64.154375 58.010625 -63.30875 59.02125 -62.4375 60.0625 C-60 63 -60 63 -60 66 C-61.94921875 67.83984375 -61.94921875 67.83984375 -64.6875 69.9375 C-68.61803688 73.01642056 -72.25675696 76.16664224 -75.8137207 79.66699219 C-85.71254657 89.31726837 -95.07289289 92.75290616 -109 93 C-109 95.31 -109 97.62 -109 100 C-126.85 107 -126.85 107 -132 107 C-132.74627459 105.75106938 -133.44478452 104.47360278 -134.125 103.1875 C-137.73577994 97.43935661 -142.87547326 94.33061848 -148.52587891 90.80737305 C-149.21472168 90.36949463 -149.90356445 89.93161621 -150.61328125 89.48046875 C-151.24016846 89.09785889 -151.86705566 88.71524902 -152.51293945 88.32104492 C-154.89784907 86.20238691 -154.90707945 83.95329188 -155.20532227 80.89355469 C-155.24197998 80.16040039 -155.2786377 79.42724609 -155.31640625 78.671875 C-155.35830078 77.87265625 -155.40019531 77.0734375 -155.44335938 76.25 C-155.48267578 75.425 -155.52199219 74.6 -155.5625 73.75 C-155.60568359 72.90953125 -155.64886719 72.0690625 -155.69335938 71.203125 C-155.79908543 69.13559329 -155.90001295 67.06781719 -156 65 C-162.36991577 81.79341431 -164.58361563 97.04946289 -165 115 C-170.41105363 116.18831507 -175.55469061 117.26782845 -181.125 117.125 C-182.05570313 117.10695312 -182.98640625 117.08890625 -183.9453125 117.0703125 C-184.62335938 117.04710937 -185.30140625 117.02390625 -186 117 C-192.23905227 104.52189546 -184.55237036 79.55413208 -180.44140625 66.9921875 C-171.68047772 41.94530775 -154.73878109 18.10646605 -132 4 C-130.56140625 3.03707031 -130.56140625 3.03707031 -129.09375 2.0546875 C-91.92526636 -22.14162734 -37.71264874 -25.14176583 0 0 Z " fill="#000000" transform="translate(220,84)"/>
<path d="M0 0 C0.66 0 1.32 0 2 0 C2.50954907 3.33194499 3.00587014 6.66573634 3.5 10 C3.64308594 10.93457031 3.78617188 11.86914062 3.93359375 12.83203125 C7.25666554 35.4605677 -2.64230807 55.71394507 -15.76977539 73.78710938 C-36.6146357 100.92215011 -66.1664621 118.052982 -100 123 C-105.00916956 123.42993524 -109.97394834 123.52533228 -115 123.5 C-115.66509583 123.49823761 -116.33019165 123.49647522 -117.01544189 123.49465942 C-147.27561468 123.31758077 -174.29126354 112.88799718 -197 93 C-197.77859375 92.35417969 -198.5571875 91.70835937 -199.359375 91.04296875 C-207.82190176 83.87900213 -214.27563598 75.43602508 -220 66 C-216.95872183 65.66274935 -213.91705809 65.33007668 -210.875 65 C-210.0190625 64.90460938 -209.163125 64.80921875 -208.28125 64.7109375 C-206.60784082 64.5307242 -204.93304908 64.36285799 -203.25708008 64.20825195 C-201.39889919 64.03680487 -199.54435252 63.8264222 -197.69140625 63.60546875 C-193.70570783 64.18972933 -192.5495934 66.22033174 -190.0625 69.3125 C-177.71759334 83.73135098 -161.54609059 91.56970088 -144 98 C-144.19335938 97.29617188 -144.38671875 96.59234375 -144.5859375 95.8671875 C-146.09600275 90.14090046 -147.40887929 84.39545699 -148.4375 78.5625 C-148.64246094 77.42941406 -148.84742188 76.29632813 -149.05859375 75.12890625 C-148.98448934 71.17173076 -147.70814745 69.78091917 -145 67 C-146.17325643 64.12018877 -147.37938667 62.62061333 -149.625 60.375 C-150.40875 59.59125 -151.1925 58.8075 -152 58 C-152 57.34 -152 56.68 -152 56 C-150.93676514 55.71278076 -149.87353027 55.42556152 -148.77807617 55.12963867 C-144.78406252 54.05066955 -140.79009592 52.97152632 -136.79614258 51.89233398 C-135.07675411 51.42776922 -133.35735336 50.96324991 -131.63793945 50.4987793 C-129.96792069 50.04764599 -128.29801273 49.59610229 -126.6282196 49.14413452 C-124.99246911 48.70288211 -123.3559222 48.2645712 -121.71858215 47.82925415 C-118.32572545 46.9237915 -114.97189534 45.99090798 -111.62963867 44.90966797 C-106.40276788 43.23378078 -102.92692585 42.504419 -97.79785156 44.76782227 C-97.18393555 45.09194092 -96.57001953 45.41605957 -95.9375 45.75 C-95.29135742 46.07347412 -94.64521484 46.39694824 -93.97949219 46.73022461 C-90.28937516 48.76132732 -87.95750534 50.4653576 -86.75 54.5625 C-86.52357919 58.11969017 -86.85641557 58.81418485 -89.125 61.75 C-89.61226562 62.21019531 -90.09953125 62.67039063 -90.6015625 63.14453125 C-92.55053029 65.7304522 -92.83141229 68.28507301 -93.5 71.4375 C-94.85438494 76.3903554 -96.25453879 78.78903798 -100.7734375 81.40454102 C-107.85800955 85 -107.85800955 85 -112 85 C-111.835 85.515625 -111.67 86.03125 -111.5 86.5625 C-110.80851389 89.93349478 -110.57768407 92.56114169 -111 96 C-112.82254095 98.12541219 -114.66186724 99.39253372 -117 101 C-96.92177039 102.0521343 -79.1053206 96.25238078 -61.6796875 86.453125 C-59 85 -59 85 -56 84 C-56.31453125 83.54753906 -56.6290625 83.09507812 -56.953125 82.62890625 C-60.24170619 77.38896815 -61.92441863 72.22092278 -63.3125 66.25 C-63.48362305 65.51724854 -63.65474609 64.78449707 -63.83105469 64.02954102 C-65.5001955 56.42905107 -65.5001955 56.42905107 -65 53 C-63.46875 50.98046875 -63.46875 50.98046875 -61.5 49.1875 C-60.8503125 48.58292969 -60.200625 47.97835937 -59.53125 47.35546875 C-58.77328125 46.68451172 -58.77328125 46.68451172 -58 46 C-59.70729301 41.97320286 -62.02534238 40.30073112 -65.5390625 37.85546875 C-67.76261876 35.03143339 -67.22176025 32.47013728 -67 29 C-62.89679472 27.1853179 -58.79227504 25.37362819 -54.6875 23.5625 C-53.52025391 23.04623047 -52.35300781 22.52996094 -51.15039062 21.99804688 C-49.47299805 21.25844727 -49.47299805 21.25844727 -47.76171875 20.50390625 C-46.73006592 20.04830322 -45.69841309 19.5927002 -44.63549805 19.12329102 C-42 18 -42 18 -39 17 C-37.96875 17.474375 -36.9375 17.94875 -35.875 18.4375 C-28.25588612 21.87325908 -21.2496971 19.89455934 -13.671875 17.125 C-6.98284025 14.30856432 -4.82801468 10.32289744 -2 4 C-1.33890625 2.66389474 -0.67378083 1.32975247 0 0 Z " fill="#000000" transform="translate(273,192)"/>
<path d="M0 0 C2.04601916 1.08100451 4.04836986 2.24637243 6.015625 3.46484375 C6.5841922 3.81378189 7.1527594 4.16272003 7.73855591 4.52223206 C9.57989938 5.65400166 11.41484609 6.79572722 13.25 7.9375 C15.15618482 9.11234351 17.06396837 10.28455853 18.97189331 11.45657349 C20.23260159 12.23118692 21.49279734 13.00663517 22.75247192 13.78292847 C28.24040412 17.16178015 33.78604982 20.43185099 39.36962891 23.64941406 C42.62480184 25.54132354 45.78710631 27.50363331 48.890625 29.63671875 C49.52049316 30.0646875 50.15036133 30.49265625 50.79931641 30.93359375 C52.49545324 32.09852539 54.17430303 33.28851802 55.8515625 34.48046875 C61.65678654 37.28224561 66.9647892 34.81325846 72.72070312 32.828125 C73.49349609 32.55484375 74.26628906 32.2815625 75.0625 32 C84.54549803 28.66324385 94.82578644 25.65805693 104.625 29.375 C107 31 107 31 108 33 C108.6377139 37.55509925 108.16808389 40.30035879 105.5625 44 C99.2756701 51.62664611 90.01806558 58.15022155 80.85786438 61.86984253 C77.33393492 63.45129531 74.65337985 64.68954062 72.8843689 68.23757935 C72.1571585 71.0501564 71.68895618 73.80944272 71.29296875 76.6875 C71.11542557 77.74042236 70.93788239 78.79334473 70.75495911 79.87817383 C70.19514399 83.24728622 69.69019872 86.62194187 69.1875 90 C68.8324702 92.20893025 68.47377821 94.41727517 68.11132812 96.625 C67.40138521 100.97364746 66.70244331 105.32380884 66.01318359 109.67578125 C65.04381875 115.74942689 64.05975067 121.81844416 62.98828125 127.875 C62.84714401 128.74278076 62.70600677 129.61056152 62.56059265 130.50463867 C61.71844226 135.12319963 61.02731316 138.13634456 57 141 C53.984375 141.609375 53.984375 141.609375 50.75 141.75 C49.67234375 141.80671875 48.5946875 141.8634375 47.484375 141.921875 C46.66453125 141.94765625 45.8446875 141.9734375 45 142 C43.55215628 138.6378849 42.61538654 135.5335446 42.03857422 131.921875 C41.87855927 130.93735352 41.71854431 129.95283203 41.55368042 128.93847656 C41.30667892 127.36018066 41.30667892 127.36018066 41.0546875 125.75 C40.87994904 124.65913086 40.70521057 123.56826172 40.525177 122.44433594 C40.15769357 120.14172251 39.7930838 117.83864888 39.43115234 115.53515625 C38.8768567 112.01180205 38.31218577 108.49022599 37.74609375 104.96875 C37.3900068 102.72926487 37.03451788 100.48968456 36.6796875 98.25 C36.51097137 97.19780273 36.34225525 96.14560547 36.16842651 95.06152344 C36.01471588 94.07700195 35.86100525 93.09248047 35.70263672 92.078125 C35.56654999 91.21606445 35.43046326 90.35400391 35.29025269 89.46582031 C34.99452953 86.95352605 34.94915256 84.52717778 35 82 C34.37955811 82.21205078 33.75911621 82.42410156 33.11987305 82.64257812 C30.31065943 83.59975659 27.49913223 84.54995075 24.6875 85.5 C23.71103516 85.83386719 22.73457031 86.16773438 21.72851562 86.51171875 C20.79072266 86.82753906 19.85292969 87.14335937 18.88671875 87.46875 C18.02264404 87.76201172 17.15856934 88.05527344 16.26831055 88.35742188 C14 89 14 89 11 89 C10.85884766 90.16789062 10.85884766 90.16789062 10.71484375 91.359375 C9.76852663 96.17886982 8.25109545 100.64534287 6.5625 105.25 C6.26923828 106.16007812 5.97597656 107.07015625 5.67382812 108.0078125 C4.6732826 110.68919494 3.78851498 112.76056586 2 115 C-1.29663161 116.44556096 -4.40403624 117.00495824 -8 117 C-9 116 -9 116 -9.08740234 113.43408203 C-9.08691895 112.30341309 -9.08643555 111.17274414 -9.0859375 110.0078125 C-9.50759379 92.1046344 -9.50759379 92.1046344 -19.05322266 77.34130859 C-22.39792953 74.35995934 -25.814998 71.50156977 -29.41699219 68.83569336 C-31 67 -31 67 -30.87988281 64.39282227 C-30 62 -30 62 -27.875 60.125 C-20.59468019 57.27617921 -12.59196739 61.93478213 -5.8515625 64.73632812 C-1.26067891 66.63514975 -1.26067891 66.63514975 3.56640625 66.49609375 C4.77103516 65.75552734 4.77103516 65.75552734 6 65 C7.32829351 64.2765606 8.65784855 63.55543526 9.98828125 62.8359375 C11.4314805 62.01878359 12.87285064 61.19839195 14.3125 60.375 C15.05306641 59.95476562 15.79363281 59.53453125 16.55664062 59.1015625 C18.37269011 58.07051505 20.18656533 57.03563954 22 56 C17.21489734 49.48487447 12.14808077 43.23029727 7 37 C5.86312642 35.62252361 4.72641823 34.2449107 3.58984375 32.8671875 C2.99115479 32.14160645 2.39246582 31.41602539 1.77563477 30.66845703 C-0.04078162 28.46385975 -1.85252687 26.25548335 -3.6640625 24.046875 C-5.65658208 21.6197265 -7.66539417 19.21070926 -9.7109375 16.828125 C-10.44570312 15.95671875 -11.18046875 15.0853125 -11.9375 14.1875 C-12.56527344 13.45917969 -13.19304687 12.73085937 -13.83984375 11.98046875 C-15 10 -15 10 -14.90625 7.9375 C-13.80734284 5.58811228 -12.57396288 4.43923401 -10.5625 2.8125 C-9.94503906 2.30332031 -9.32757813 1.79414062 -8.69140625 1.26953125 C-5.403292 -1.19845289 -3.93312744 -1.11382762 0 0 Z M85 36 C85.27714844 36.51949219 85.55429687 37.03898437 85.83984375 37.57421875 C87.80733267 41.36216005 89.46337389 44.70699113 90 49 C92.18712805 47.39795381 92.18712805 47.39795381 94 45 C93.9343548 41.78338515 93.53834164 39.80751247 91.75 37.125 C89.41786614 35.62577109 87.71628175 35.77976094 85 36 Z " fill="#000000" transform="translate(252,79)"/>
<path d="M0 0 C6.07312209 3.83594115 11.78495663 7.73332676 13.61572266 14.97973633 C14.62022087 21.68633307 14.88441511 28.43488321 14.91601562 35.21020508 C-19.82171809 51.39390219 -55.70112199 64.57927974 -93.08398438 73.21020508 C-94.02693359 73.42870117 -94.96988281 73.64719727 -95.94140625 73.87231445 C-174.30456207 91.6276873 -174.30456207 91.6276873 -202.08398438 75.21020508 C-206.52204692 72.05307739 -211.04403106 68.79995412 -212.08398438 63.21020508 C-213.50837486 47.97191438 -205.67040825 38.39710791 -196.39648438 27.21020508 C-195.93306641 26.64591797 -195.46964844 26.08163086 -194.9921875 25.50024414 C-192.60220812 22.67869295 -190.58707221 20.52283752 -187.08398438 19.21020508 C-188.3353567 21.77222527 -189.66447104 24.28181191 -191.02929688 26.78442383 C-196.67820985 36.90489622 -196.67820985 36.90489622 -197.08398438 48.21020508 C-196.13392388 50.8351145 -195.48215998 51.95423505 -193.11523438 53.47583008 C-156.84241515 67.58192644 -104.82534134 42.72456728 -71.09570312 29.54223633 C-67.67424152 28.20616643 -64.25161885 26.89059186 -60.79101562 25.65942383 C-45.70652071 20.27096885 -31.2121246 13.27482075 -16.88476562 6.13989258 C-15.92465576 5.66648438 -14.9645459 5.19307617 -13.9753418 4.70532227 C-12.17023781 3.81129318 -10.37179096 2.90365727 -8.58129883 1.98071289 C-7.37993286 1.38661621 -7.37993286 1.38661621 -6.15429688 0.78051758 C-5.46094238 0.42747559 -4.76758789 0.07443359 -4.05322266 -0.28930664 C-2.08398438 -0.78979492 -2.08398438 -0.78979492 0 0 Z " fill="#000000" transform="translate(212.083984375,159.789794921875)"/>
<path d="M0 0 C1 4 1 4 1 4 Z " fill="#000000" transform="translate(276,195)"/>
<path d="" fill="#000000" transform="translate(0,0)"/>
<path d="" fill="#000000" transform="translate(0,0)"/>
<path d="" fill="#000000" transform="translate(0,0)"/>
<path d="" fill="#000000" transform="translate(0,0)"/>
<path d="" fill="#000000" transform="translate(0,0)"/>
<path d="" fill="#000000" transform="translate(0,0)"/>
<path d="" fill="#000000" transform="translate(0,0)"/>
<path d="" fill="#000000" transform="translate(0,0)"/>
<path d="" fill="#000000" transform="translate(0,0)"/>
<path d="" fill="#000000" transform="translate(0,0)"/>
<path d="" fill="#000000" transform="translate(0,0)"/>
<path d="" fill="#000000" transform="translate(0,0)"/>
<path d="" fill="#000000" transform="translate(0,0)"/>
<path d="" fill="#000000" transform="translate(0,0)"/>
</svg>
