<?xml version="1.0" encoding="UTF-8"?>
<svg version="1.1" xmlns="http://www.w3.org/2000/svg" width="500" height="500">
<path d="M0 0 C1.59866766 -0.00346176 3.19733294 -0.00822979 4.79599327 -0.01418173 C9.16430908 -0.0266501 13.53242705 -0.02054043 17.90074337 -0.01122308 C22.62131679 -0.00441585 27.34185696 -0.01492206 32.06242371 -0.02316284 C41.2999878 -0.03648422 50.53747865 -0.03362963 59.77504558 -0.02492492 C67.28376185 -0.01814291 74.79245762 -0.01723389 82.30117607 -0.02049637 C83.90570684 -0.02118592 83.90570684 -0.02118592 85.54265238 -0.0218894 C87.7158572 -0.02284859 89.88906201 -0.02382123 92.06226682 -0.02480717 C112.42739611 -0.03335628 132.79248485 -0.02353422 153.15760749 -0.00740607 C170.62445536 0.00599859 188.09124342 0.00366686 205.55809021 -0.01016235 C225.85314018 -0.02622329 246.14815463 -0.03253438 266.44321007 -0.02332556 C268.60800325 -0.02236994 270.77279645 -0.02142682 272.93758965 -0.02049637 C274.00264833 -0.02003354 275.06770702 -0.01957072 276.16504021 -0.01909386 C283.66355888 -0.01650567 291.16205498 -0.02087127 298.66057014 -0.02793503 C307.80034733 -0.03635584 316.94004723 -0.03405755 326.07981557 -0.0180928 C330.74131249 -0.01021824 335.40268064 -0.00710464 340.06417656 -0.01704025 C344.33451021 -0.02600438 348.60459618 -0.02102607 352.87490749 -0.0051076 C354.41646668 -0.00176709 355.95804695 -0.00343738 357.49959249 -0.01073496 C370.3465367 -0.06686839 381.5086161 1.27922298 391.18528748 10.38876343 C400.02324584 19.74852007 402.20452872 28.71582832 402.19291687 41.24731445 C402.19737355 42.74891162 402.19737355 42.74891162 402.20192027 44.28084409 C402.21060003 47.63925404 402.21211492 50.99762831 402.21360779 54.35604858 C402.21823651 56.76255367 402.22326124 59.16905802 402.22865295 61.57556152 C402.24177465 68.11711688 402.24825852 74.65866482 402.25266361 81.20023012 C402.25542936 85.28808376 402.25966736 89.37593504 402.26416779 93.46378708 C402.27635899 104.79083164 402.28665809 116.11787433 402.29004288 127.44492531 C402.29026244 128.16951489 402.29048201 128.89410447 402.29070823 129.64065131 C402.29092651 130.36693796 402.29114478 131.09322461 402.29136968 131.84151995 C402.29181314 133.31315971 402.2922597 134.78479946 402.29270935 136.25643921 C402.29293078 136.98641752 402.29315221 137.71639583 402.29338035 138.4684947 C402.29732559 150.28805102 402.31477191 162.1075456 402.33806887 173.92707808 C402.36181663 186.07379524 402.37424631 198.22048145 402.3754108 210.36722219 C402.37632572 217.18236555 402.38203167 223.99742847 402.40023041 230.81254959 C402.41729721 237.22622381 402.41885845 243.63978632 402.4100914 250.05347824 C402.40932189 252.40319986 402.41365239 254.75292972 402.42354965 257.10263062 C402.43630122 260.3194957 402.43037457 263.53582357 402.41996765 266.75268555 C402.43205226 268.13526769 402.43205226 268.13526769 402.444381 269.54578078 C402.37801899 278.36471805 400.4200027 286.68578304 396.05247498 294.38095093 C395.39247498 294.38095093 394.73247498 294.38095093 394.05247498 294.38095093 C393.72247498 295.37095093 393.39247498 296.36095093 393.05247498 297.38095093 C386.26351372 303.87549294 377.24179034 308.25987577 367.84934998 308.96298218 C362.10956497 307.76852971 358.6006439 302.76036116 355.05247498 298.38095093 C355.52298279 297.18341187 355.9934906 295.9858728 356.47825623 294.75204468 C362.41740529 279.35065733 365.42386537 264.87653409 366.05247498 248.38095093 C368.03247498 248.38095093 370.01247498 248.38095093 372.05247498 248.38095093 C371.96867687 220.66096352 371.8735814 192.94103494 371.76494789 165.22113323 C371.71477508 152.35099673 371.66833276 139.48086674 371.63059998 126.61068726 C371.59771187 115.39616848 371.5578984 104.18169962 371.50968492 92.96723586 C371.48438824 87.02645022 371.46261636 81.08569783 371.44913101 75.14487267 C371.43633937 69.55778347 371.41431647 63.97080811 371.38509178 58.38378143 C371.37599327 56.32904348 371.37032051 54.27428718 371.36826134 52.21953011 C371.36495482 49.42222884 371.3495213 46.62525352 371.33094788 43.82801819 C371.33384998 42.59796799 371.33384998 42.59796799 371.33681071 41.3430683 C371.29842352 37.49721637 371.23660186 35.65714125 369.05247498 32.38095093 C366.20770318 31.92771163 366.20770318 31.92771163 362.79369164 32.01180744 C362.14136008 32.00834591 361.48902852 32.00488438 360.81692934 32.00131795 C358.60968641 31.99331553 356.40308725 32.00688602 354.19587708 32.02018738 C352.60610125 32.01888034 351.01632605 32.01625579 349.42655432 32.01241988 C345.04138515 32.005683 340.65643405 32.01775133 336.27129269 32.03275406 C331.54872053 32.04566425 326.82616149 32.04132854 322.10357666 32.03904724 C313.91588279 32.03747132 305.72826044 32.04691377 297.54058456 32.06376076 C285.70247283 32.08810308 273.86439581 32.09595114 262.02626176 32.09972473 C242.82143821 32.10629672 223.6166528 32.12627811 204.41184998 32.15463257 C185.75202116 32.18215383 167.09220275 32.20336248 148.43235779 32.21615601 C146.69055378 32.21736199 146.69055378 32.21736199 144.91356182 32.21859235 C135.83270123 32.22483032 126.75184041 32.23070119 117.6709795 32.23645604 C73.13144298 32.2647763 28.59200191 32.32512662 -15.94752502 32.38095093 C-16.27752502 103.66095093 -16.60752502 174.94095093 -16.94752502 248.38095093 C44.76247498 248.38095093 106.47247498 248.38095093 170.05247498 248.38095093 C171.04247498 256.63095093 172.03247498 264.88095093 173.05247498 273.38095093 C178.89381259 297.47646858 191.26024751 318.51065942 212.05247498 332.38095093 C213.03602966 333.06802124 214.01958435 333.75509155 215.03294373 334.46298218 C223.48389848 340.06481911 232.38294401 343.41062845 241.94700623 346.63827515 C244.34123222 347.48280616 246.69525007 348.43806097 249.05247498 349.38095093 C249.05247498 353.34095093 249.05247498 357.30095093 249.05247498 361.38095093 C250.72156921 361.36000366 252.39066345 361.3390564 254.1103363 361.31747437 C259.6662069 361.25259966 265.22202262 361.20684383 270.77817249 361.17370224 C274.14220423 361.15295371 277.50582077 361.12487502 280.86961365 361.07919312 C284.74968654 361.03032389 288.62918024 361.00790087 292.50950623 360.99032593 C293.69953751 360.96968079 294.88956879 360.94903564 296.11566162 360.92776489 C306.45338039 360.92502602 314.82110188 363.29985871 323.20091248 369.42782593 C330.33760672 376.95598441 330.80920768 383.47261119 330.61497498 393.69345093 C330.62593201 394.96768921 330.63688904 396.24192749 330.6481781 397.55477905 C330.59253165 404.56252245 330.59253165 404.56252245 330.05247498 407.38095093 C327.08997275 410.233968 324.98813288 410.75662362 320.93589115 410.76126766 C319.89644197 410.7697076 318.85699278 410.77814754 317.78604513 410.78684324 C316.64549545 410.78083319 315.50494578 410.77482315 314.32983398 410.76863098 C313.11712906 410.77401652 311.90442414 410.77940206 310.65497059 410.78495079 C307.28722267 410.79679846 303.91996843 410.79515137 300.55223978 410.78778398 C296.92093681 410.78306215 293.2896874 410.7955534 289.65840149 410.80580139 C282.54381914 410.82301415 275.42932502 410.82382429 268.31472725 410.81858849 C262.53300991 410.81455015 256.75131868 410.81598634 250.96960258 410.82133675 C249.73615751 410.82245938 249.73615751 410.82245938 248.47779436 410.82360469 C246.80740015 410.82513614 245.13700594 410.82667449 243.46661174 410.82821966 C227.79524455 410.84195366 212.12392725 410.8365007 196.45256119 410.82503445 C182.11015475 410.81510111 167.76787729 410.82804286 153.42549074 410.85196864 C138.70465498 410.87634105 123.98387934 410.88597209 109.26302379 410.87931591 C100.99599548 410.87581955 92.72906639 410.87808318 84.4620533 410.89556694 C77.42447839 410.91026572 70.38707259 410.91095494 63.34950108 410.89349603 C59.75795033 410.88496433 56.16670194 410.88288886 52.5751667 410.89814758 C48.68398832 410.91447486 44.79328003 410.89989166 40.90209961 410.88215637 C39.76378065 410.89176138 38.62546169 410.90136639 37.45264822 410.91126245 C29.83860434 410.83955194 29.83860434 410.83955194 25.85131741 408.51350498 C23.56123665 405.7985807 23.42094694 404.33000762 23.42356873 400.80282593 C23.42163513 399.72388062 23.41970154 398.6449353 23.41770935 397.53329468 C23.45348083 395.84913452 23.45348083 395.84913452 23.48997498 394.13095093 C23.47901794 393.02364624 23.46806091 391.91634155 23.45677185 390.77548218 C23.52922312 382.65127958 24.79781505 377.11689143 30.16575623 370.95516968 C37.90716603 364.31378258 44.53703337 361.33573605 54.8525238 361.17562866 C55.99332901 361.15568344 57.13413422 361.13573822 58.30950928 361.1151886 C59.53050827 361.0984761 60.75150726 361.08176361 62.00950623 361.06454468 C63.89665596 361.03337303 63.89665596 361.03337303 65.82192993 361.00157166 C69.15419783 360.94734628 72.48647737 360.89707148 75.8188324 360.84872437 C79.22424044 360.79834009 82.62956405 360.74279279 86.03489685 360.68759155 C92.7073575 360.57980721 99.37986813 360.48060537 106.05247498 360.38095093 C106.05247498 343.55095093 106.05247498 326.72095093 106.05247498 309.38095093 C102.4248114 309.37160522 98.79714783 309.36225952 95.05955505 309.35263062 C83.04144634 309.31878501 71.02352624 309.26339255 59.00555897 309.19704819 C51.72277303 309.15736524 44.44009346 309.12491855 37.1572113 309.10995483 C30.80390032 309.0968822 24.45082444 309.06977612 18.09764594 309.02633786 C14.73857805 309.0038474 11.38005176 308.99012727 8.0208683 308.98906708 C4.25606698 308.98668498 0.49216825 308.95950297 -3.2724762 308.92684937 C-4.36652771 308.93187973 -5.46057922 308.9369101 -6.58778381 308.9420929 C-19.17793282 308.77437478 -30.02279782 305.53162059 -38.94752502 296.38095093 C-45.46963333 288.36730018 -47.24729046 281.30235752 -47.22167969 271.13531494 C-47.22691637 270.10551643 -47.23215304 269.07571793 -47.23754841 268.01471341 C-47.25254665 264.56497591 -47.25325354 261.11538676 -47.25392151 257.6656189 C-47.2615432 255.19162241 -47.26997071 252.7176283 -47.27914429 250.24363708 C-47.30109757 243.52231579 -47.30991157 236.80105412 -47.31497073 230.07970572 C-47.31823207 225.87876639 -47.32475725 221.67783617 -47.33197212 217.47690201 C-47.351535 205.83413679 -47.36794062 194.19138004 -47.37084866 182.54859734 C-47.37103623 181.80402116 -47.3712238 181.05944498 -47.37141705 180.29230589 C-47.37178329 178.78301342 -47.37214699 177.27372095 -47.37250816 175.76442848 C-47.37269097 175.0152637 -47.37287378 174.26609892 -47.37306213 173.49423218 C-47.37324268 172.74414737 -47.37342323 171.99406257 -47.37360925 171.22124793 C-47.3771485 159.07581998 -47.4041566 146.9305696 -47.44156002 134.7852032 C-47.4796989 122.30056882 -47.49900655 109.81602241 -47.49930817 97.33132851 C-47.49989154 90.32775969 -47.50830544 83.32440262 -47.53730583 76.32088852 C-47.56447362 69.72984678 -47.56567717 63.13915007 -47.54965019 56.54804802 C-47.54783761 54.13423817 -47.55450898 51.72040412 -47.5704689 49.30664635 C-47.65648363 35.44853457 -47.58567385 24.91871914 -39.76002502 13.06845093 C-27.80097313 1.64091245 -16.05151752 -0.07610701 0 0 Z " fill="#040404" transform="translate(61.94752502441406,44.619049072265625)"/>
<path d="M0 0 C19.13213698 14.69218958 32.26729186 33.38938084 36.33984375 57.45703125 C38.69937775 77.28133033 35.31678084 97.43911082 23.71875 114.01171875 C22.51822713 116.06217555 22.51822713 116.06217555 23.41918945 117.95385742 C25.15391712 120.73696806 27.23291974 122.81181529 29.56640625 125.1171875 C30.0296933 125.57764465 30.49298035 126.03810181 30.9703064 126.51251221 C32.44300273 127.97406328 33.92251778 129.42848418 35.40234375 130.8828125 C36.40540697 131.87583861 37.40801632 132.86932339 38.41015625 133.86328125 C40.8606521 136.29179191 43.31731045 138.71395925 45.77734375 141.1328125 C46.76734375 140.4728125 47.75734375 139.8128125 48.77734375 139.1328125 C53.59321545 138.60344736 55.68493125 138.40752517 59.75292969 141.10839844 C60.66333008 142.01879883 61.57373047 142.92919922 62.51171875 143.8671875 C63.01620544 144.36079773 63.52069214 144.85440796 64.04046631 145.36297607 C65.63845054 146.93501198 67.20768702 148.53254491 68.77734375 150.1328125 C69.80223171 151.14960881 70.82890691 152.16460703 71.85742188 153.17773438 C74.93757894 156.22303748 77.98504775 159.29974546 81.02734375 162.3828125 C89.80207322 171.30327855 89.80207322 171.30327855 99.09863281 179.67285156 C106.49631226 186.10655184 106.49631226 186.10655184 107.2421875 191.484375 C106.6742206 195.94219922 104.93253244 197.98791092 101.83984375 201.0078125 C101.34129883 201.51739502 100.84275391 202.02697754 100.32910156 202.55200195 C99.31035873 203.5900613 98.28479701 204.62147373 97.25244141 205.64599609 C95.8924114 207.01683071 94.58770806 208.44197203 93.2890625 209.87109375 C90.07110184 213.35582835 87.61791285 215.77888867 83.21484375 217.6328125 C77.91587579 216.86205352 75.47863354 213.82149142 71.77734375 210.1328125 C70.33572519 208.82279397 68.89380078 207.51308457 67.44506836 206.2109375 C62.14656965 201.43482599 57.07898292 196.46685343 52.06640625 191.390625 C50.06992561 189.42140007 48.03581911 187.57521744 45.90234375 185.7578125 C42.25779057 182.62857524 38.81785831 179.32015407 35.40234375 175.9453125 C34.87785645 175.43371582 34.35336914 174.92211914 33.81298828 174.39501953 C28.91119526 169.50602075 28.91119526 169.50602075 27.77734375 166.1328125 C28.15234375 162.5703125 28.15234375 162.5703125 28.77734375 159.1328125 C29.08779461 156.1892232 29.08779461 156.1892232 27.52734375 154.5546875 C26.66109375 153.72710937 26.66109375 153.72710937 25.77734375 152.8828125 C24.81828125 151.96242188 24.81828125 151.96242188 23.83984375 151.0234375 C21.19622691 148.60012206 18.49443947 146.25046721 15.77734375 143.91015625 C12.63946273 141.12160964 9.70324052 138.14100012 6.77734375 135.1328125 C6.1225 135.56851563 5.46765625 136.00421875 4.79296875 136.453125 C-16.30020828 150.21731679 -39.68320568 156.9828635 -64.93359375 152.4140625 C-88.13088146 147.28454829 -107.37045553 134.05372361 -120.22265625 114.1328125 C-132.23629577 94.15775314 -134.8879714 69.50168363 -129.66015625 46.8203125 C-126.46799035 34.68508514 -120.45910993 24.5388426 -112.22265625 15.1328125 C-111.68125 14.44832031 -111.13984375 13.76382813 -110.58203125 13.05859375 C-84.21031199 -19.52200116 -33.22317175 -23.4568971 0 0 Z M-81.22265625 21.1328125 C-82.06957031 21.62652344 -82.91648437 22.12023437 -83.7890625 22.62890625 C-95.49067396 29.86023917 -102.55853458 44.17880565 -106.0078125 57.06640625 C-109.09559572 72.46442455 -105.88932661 87.9405547 -98.0390625 101.4375 C-89.07333085 114.7414889 -76.46152547 123.48631694 -60.99609375 127.74609375 C-43.28739959 130.2153342 -26.9323361 127.70169776 -12.22265625 117.1328125 C-1.55947458 108.32782603 6.50884509 96.72004248 9.77734375 83.1328125 C10.04804688 82.0190625 10.04804688 82.0190625 10.32421875 80.8828125 C13.29539169 62.85086637 8.33926459 46.15702404 -2.18359375 31.37890625 C-10.6842349 21.02961266 -24.95933896 13.144664 -38.22265625 11.1328125 C-54.3263569 9.97002495 -67.57522166 11.97755674 -81.22265625 21.1328125 Z " fill="#070707" transform="translate(378.22265625,227.8671875)"/>
<path d="M0 0 C0.81700882 0.00141495 1.63401764 0.0028299 2.4757843 0.00428772 C5.08415393 0.00988331 7.69243759 0.02243496 10.30078125 0.03515625 C12.06966022 0.04017182 13.83854053 0.04473463 15.60742188 0.04882812 C19.94274144 0.05985129 24.27799677 0.07711287 28.61328125 0.09765625 C28.6272998 1.45129272 28.6272998 1.45129272 28.64160156 2.83227539 C28.68583965 6.20803203 28.74754989 9.58255911 28.82080078 12.95776367 C28.84887711 14.41337585 28.87015757 15.86913671 28.88427734 17.32495117 C28.79766801 28.42700349 28.79766801 28.42700349 33.61328125 38.09765625 C37.03880595 41.21176961 40.10253471 42.21755833 44.68536377 42.24482727 C45.51237289 42.25198257 46.33938202 42.25913788 47.19145203 42.26651001 C48.095392 42.26919891 48.99933197 42.27188782 49.93066406 42.2746582 C51.36286034 42.284515 51.36286034 42.284515 52.82398987 42.29457092 C55.98812945 42.31430367 59.15222156 42.3259666 62.31640625 42.3359375 C63.39714165 42.34001303 64.47787704 42.34408855 65.591362 42.34828758 C71.31171986 42.36914837 77.03205373 42.38344999 82.75244141 42.39282227 C88.65839985 42.40388572 94.56398143 42.43828519 100.46980667 42.47799397 C105.01319068 42.5041495 109.55648476 42.51251319 114.09993744 42.51610374 C116.2768076 42.52097254 118.45367368 42.53259482 120.63047028 42.55114174 C123.68005669 42.57550961 126.72866618 42.57457217 129.77832031 42.56762695 C131.12208488 42.58684204 131.12208488 42.58684204 132.49299622 42.60644531 C138.36411847 42.55781289 141.7899261 41.49482719 146.61328125 38.09765625 C151.77167142 31.14911729 151.26983165 21.72170748 151.36328125 13.47265625 C151.39292969 12.18230469 151.42257812 10.89195312 151.453125 9.5625 C151.5232363 6.40749145 151.57622489 3.2531968 151.61328125 0.09765625 C156.79106527 0.02334493 161.96853694 -0.03102183 167.14672852 -0.06713867 C168.90720021 -0.08219928 170.66763455 -0.10265201 172.42797852 -0.12866211 C174.96249628 -0.16516604 177.49651677 -0.18209729 180.03125 -0.1953125 C180.81477341 -0.21079636 181.59829681 -0.22628021 182.40556335 -0.24223328 C186.98918869 -0.24363607 190.03932983 0.13447245 193.61328125 3.09765625 C196.51916492 6.7612157 195.90065912 11.50158891 195.87890625 15.95703125 C195.8808197 16.82023987 195.88273315 17.68344849 195.88470459 18.57281494 C195.88606423 20.39848116 195.88238322 22.22415711 195.87402344 24.04980469 C195.86337287 26.82379308 195.87389913 29.59712616 195.88671875 32.37109375 C195.8853961 34.149741 195.88283152 35.92838784 195.87890625 37.70703125 C195.88295471 38.52814392 195.88700317 39.34925659 195.89117432 40.19525146 C195.81833687 49.29155431 194.03976299 56.41572858 187.61328125 63.09765625 C170.91692937 78.11167609 144.96928381 80.28012412 123.61328125 82.09765625 C123.32195312 81.32421875 123.030625 80.55078125 122.73046875 79.75390625 C118.48145994 68.95768261 114.01013424 61.6917152 103.61328125 56.09765625 C95.67127252 52.73757563 86.09199524 52.99841744 77.92578125 55.53515625 C70.2544058 58.72034723 63.60799245 64.15095319 60.11328125 71.78515625 C59.57682325 73.20945224 59.07861008 74.64856159 58.61328125 76.09765625 C58.25234375 77.17660156 57.89140625 78.25554687 57.51953125 79.3671875 C57.22046875 80.26824219 56.92140625 81.16929687 56.61328125 82.09765625 C33.85801654 80.31865656 8.11823886 77.71498608 -9.37109375 61.6015625 C-14.79595563 54.86253835 -15.99055336 48.93188999 -15.91796875 40.39453125 C-15.92179565 39.39431946 -15.92562256 38.39410767 -15.92956543 37.36358643 C-15.93227352 35.26256292 -15.92499013 33.16150506 -15.90820312 31.06054688 C-15.88668755 27.84299114 -15.90808926 24.62764529 -15.93359375 21.41015625 C-15.93095205 19.36327633 -15.92583033 17.31639778 -15.91796875 15.26953125 C-15.92606567 14.30907898 -15.9341626 13.34862671 -15.94250488 12.35906982 C-15.8492745 5.74254217 -15.8492745 5.74254217 -13.54101562 2.52441406 C-9.2056263 -0.34684786 -5.00280777 -0.03252636 0 0 Z " fill="#050505" transform="translate(149.38671875,121.90234375)"/>
<path d="M0 0 C4.58413389 0.71398828 8.72467071 1.82888167 13.125 3.3125 C19.24865303 5.28990722 25.37898029 6.85771878 31.6875 8.125 C32.51411133 8.29427002 33.34072266 8.46354004 34.19238281 8.63793945 C38.70495774 9.51509609 43.14600276 10.13733108 47.73046875 10.4921875 C61.78213547 11.6778044 61.78213547 11.6778044 65.37109375 15.57421875 C66.8125 18.6875 66.8125 18.6875 67.90234375 21.91796875 C70.15604074 28.24596491 75.41977123 32.39234334 81.25 35.4375 C86.57416683 37.89057687 91.43380267 38.12929379 97.25 38.0625 C97.99507813 38.05798828 98.74015625 38.05347656 99.5078125 38.04882812 C101.3385764 38.03709246 103.16929873 38.0191585 105 38 C105.33 38.66 105.66 39.32 106 40 C104.99609375 41.8203125 104.99609375 41.8203125 103.4375 44.125 C100.54674102 48.70407407 98.61073554 53.30334087 96.78515625 58.3671875 C96.37916199 59.47211548 96.37916199 59.47211548 95.96496582 60.59936523 C95.30497504 62.39774896 94.65178019 64.1986243 94 66 C83.28184285 66.09274509 72.56378143 66.163788 61.84530449 66.20724869 C56.86807948 66.22810937 51.89112933 66.25639938 46.9140625 66.30175781 C42.10947092 66.34526959 37.30514346 66.36914854 32.50037003 66.37950897 C30.66875171 66.38689076 28.83714759 66.40130579 27.00564194 66.42292023 C24.43687635 66.45202541 21.86919734 66.45595308 19.30029297 66.45410156 C18.54575333 66.46848267 17.79121368 66.48286377 17.0138092 66.49768066 C11.85706782 66.45755295 8.96353162 65.25914229 5 62 C1.01989902 56.83662576 -0.12907132 53.1773842 -0.11352539 46.77246094 C-0.11344986 45.73168396 -0.11337433 44.69090698 -0.11329651 43.61859131 C-0.10813522 42.50179993 -0.10297394 41.38500854 -0.09765625 40.234375 C-0.0962413 39.08584045 -0.09482635 37.93730591 -0.09336853 36.75396729 C-0.08777143 33.08595169 -0.07521944 29.41799715 -0.0625 25.75 C-0.05748463 23.26302171 -0.05292178 20.77604247 -0.04882812 18.2890625 C-0.03780295 12.1926875 -0.02106769 6.09634811 0 0 Z " fill="#050505" transform="translate(143,204)"/>
<path d="M0 0 C31.35 0 62.7 0 95 0 C95 9.57 95 19.14 95 29 C82.76119342 29.02254946 70.52240053 29.04091418 58.28357792 29.05181217 C52.60123488 29.05704139 46.91890673 29.06413973 41.23657227 29.07543945 C35.75770864 29.08626696 30.27885938 29.09227654 24.79998589 29.09487724 C22.70470389 29.09673174 20.60942272 29.10035282 18.5141468 29.10573006 C15.59022416 29.11293868 12.66636167 29.11399102 9.74243164 29.11352539 C8.42937042 29.1189183 8.42937042 29.1189183 7.08978271 29.12442017 C1.11405216 29.11405216 1.11405216 29.11405216 0 28 C0 18.76 0 9.52 0 0 Z " fill="#020202" transform="translate(192,122)"/>
<path d="M0 0 C1.6727021 -0.01925285 1.6727021 -0.01925285 3.37919617 -0.03889465 C4.5854213 -0.04628159 5.79164642 -0.05366852 7.03442383 -0.0612793 C8.27638016 -0.06935104 9.51833649 -0.07742279 10.79792786 -0.08573914 C13.42993906 -0.09958112 16.06182499 -0.11059648 18.69384766 -0.11816406 C21.38353222 -0.12701011 24.0726978 -0.14785076 26.76220703 -0.1796875 C30.64477102 -0.22238974 34.52665404 -0.23853899 38.40942383 -0.2487793 C39.6055278 -0.26628738 40.80163177 -0.28379547 42.03398132 -0.30183411 C49.76570567 -0.28183254 55.51565278 0.47522485 61.42895508 5.89575195 C65.25736736 11.95740473 64.95607224 17.09973984 64.55395508 24.17700195 C59.27395508 24.17700195 53.99395508 24.17700195 48.55395508 24.17700195 C48.05895508 20.71200195 48.05895508 20.71200195 47.55395508 17.17700195 C31.38395508 17.17700195 15.21395508 17.17700195 -1.44604492 17.17700195 C-1.77604492 19.48700195 -2.10604492 21.79700195 -2.44604492 24.17700195 C-7.72604492 24.17700195 -13.00604492 24.17700195 -18.44604492 24.17700195 C-18.89306851 11.95835725 -18.89306851 11.95835725 -15.44604492 7.17700195 C-10.54551803 2.26488989 -7.07536538 0.07094199 0 0 Z " fill="#111111" transform="translate(216.446044921875,88.822998046875)"/>
<path d="M0 0 C4.43899992 3.14994536 7.04763534 7.12889911 8.7890625 12.26953125 C9.73569121 18.93579026 9.20911524 24.11521916 5.21484375 29.6171875 C1.3928898 34.04646564 -2.64460055 36.9284554 -8.5390625 37.4921875 C-15.44630639 37.73001177 -19.62204104 36.55739323 -24.8984375 31.89453125 C-29.37123699 26.8172994 -31.61057046 22.33077752 -31.484375 15.453125 C-30.66909313 8.94251691 -26.97549731 4.3857744 -21.92578125 0.45703125 C-15.04751244 -4.30605239 -7.17223981 -4.04331448 0 0 Z " fill="#080808" transform="translate(250.2109375,191.73046875)"/>
<path d="M0 0 C0 3 0 3 -1.28515625 4.62573242 C-2.16494141 5.4819519 -2.16494141 5.4819519 -3.0625 6.35546875 C-3.69414062 6.97744141 -4.32578125 7.59941406 -4.9765625 8.24023438 C-5.64429688 8.88283203 -6.31203125 9.52542969 -7 10.1875 C-8.00160156 11.16879883 -8.00160156 11.16879883 -9.0234375 12.16992188 C-10.67578441 13.78686135 -12.33471601 15.39640491 -14 17 C-14.66 16.67 -15.32 16.34 -16 16 C-5.62642369 4.29384966 -5.62642369 4.29384966 0 0 Z " fill="#353535" transform="translate(279,230)"/>
<path d="M0 0 C0.66 0.66 1.32 1.32 2 2 C1.34 2.66 0.68 3.32 0 4 C-0.33 3.67 -0.66 3.34 -1 3 C-3.18292774 2.76518307 -5.37203174 2.58636677 -7.5625 2.4375 C-9.35880859 2.31181641 -9.35880859 2.31181641 -11.19140625 2.18359375 C-12.11824219 2.12300781 -13.04507813 2.06242188 -14 2 C-14 1.67 -14 1.34 -14 1 C-11.70954632 0.77872902 -9.41755236 0.5733496 -7.125 0.375 C-5.84882813 0.25898438 -4.57265625 0.14296875 -3.2578125 0.0234375 C-2.18273437 0.01570312 -1.10765625 0.00796875 0 0 Z " fill="#373737" transform="translate(247,242)"/>
</svg>
