<?xml version="1.0" encoding="UTF-8"?>
<svg version="1.1" xmlns="http://www.w3.org/2000/svg" width="257" height="196">
<path d="M0 0 C6.21152564 2.19868289 9.65023262 6.51856246 13 12 C14.83916412 17.51749237 14.90493462 23.12052041 12.375 28.375 C11.92125 29.24125 11.4675 30.1075 11 31 C12.27029393 34.84345343 15.05484163 37.32157848 17.875 40.125 C18.73867187 40.99382813 19.60234375 41.86265625 20.4921875 42.7578125 C22.64788374 44.68517954 24.35514153 45.90515161 27 47 C27.49886719 46.56429687 27.99773437 46.12859375 28.51171875 45.6796875 C42.60532625 33.98983711 59.85396987 29.38211687 78 31 C89.43583599 32.68050492 101.78725771 36.6407068 110.64453125 44.28125 C112.77791384 46.16784782 112.77791384 46.16784782 114.953125 46.09765625 C118.06913265 44.42666742 120.33889695 41.97200596 122.75 39.4375 C123.25660156 38.91736328 123.76320312 38.39722656 124.28515625 37.86132812 C125.53034405 36.58089916 126.76611502 35.29132446 128 34 C127.67773438 32.94683594 127.35546875 31.89367187 127.0234375 30.80859375 C125.13618226 23.7854111 124.93310614 17.28576585 128.58984375 10.82421875 C131.80910856 6.65968505 136.0299206 3.65669313 141 2 C147.21358393 1.49276866 152.78894073 1.21013871 158 5 C163.2430026 10.13192203 166.63198327 14.31983266 167.375 21.75 C167.19128633 27.47754377 165.17694441 32.52787669 161.38671875 36.83203125 C156.87539403 40.94323847 152.77031752 42.79479129 146.625 43.25 C143 43 143 43 141.12890625 42.1953125 C138.82734976 41.22282384 137.50853157 40.75810588 135 41 C132.04897936 43.27474508 129.67410519 45.76505602 127.19921875 48.546875 C125 51 125 51 122 53 C123.49980936 56.19910076 125.3312131 59.01609027 127.3125 61.9375 C134.04497117 72.51309014 136.63179187 82.68612679 138 95 C144.6 95 151.2 95 158 95 C158.33 93.02 158.66 91.04 159 89 C162.40812485 83.50271387 166.70540006 79.70701015 173 78 C178.90279771 77.23553931 183.94443812 77.62930677 189.17578125 80.58984375 C193.34031495 83.80910856 196.34330687 88.0299206 198 93 C198.60394311 99.1285375 198.58886045 104.77001374 195.4765625 110.2109375 C191.72808957 114.75273804 185.92902612 118.52727694 180.01953125 119.23828125 C174.13644484 119.43611955 169.81407266 118.47907772 165 115 C161.80632734 111.94518267 159.40616834 109.21850502 158 105 C151.4 105 144.8 105 138 105 C137.608125 107.0625 137.21625 109.125 136.8125 111.25 C134.54141241 121.7286925 130.98912678 130.31853029 124.453125 138.84375 C123.01087202 140.98386732 122.54468712 142.51705869 122 145 C128.69135073 152.97919557 128.69135073 152.97919557 137.55078125 157.31640625 C139.76627364 156.72519404 139.76627364 156.72519404 141.88671875 155.8203125 C146.32868435 154.09607447 150.8795332 155.11360667 155.16796875 156.90625 C161.36244166 160.34633251 164.78264777 165.3479433 167 172 C167.7433858 179.0621651 166.03613932 184.14206214 162 190 C156.29936371 195.46362953 150.70830672 196.41220755 143.08203125 196.34765625 C137.17909477 195.68179903 133.60971739 192.69443936 129.625 188.5 C125.57825794 182.27424298 124.95713739 176.07046994 126.453125 168.796875 C126.9129323 167.18098078 127.44807197 165.5867931 128 164 C126.44395612 162.38957012 124.87987244 160.78690632 123.3125 159.1875 C122.44238281 158.29417969 121.57226562 157.40085938 120.67578125 156.48046875 C118.22637818 154.20985423 115.92414297 152.58588655 113 151 C112.40574219 151.44730469 111.81148437 151.89460937 111.19921875 152.35546875 C95.17017893 164.0469457 78.12444103 167.88395531 58.58984375 165.6015625 C46.60840449 163.31514162 35.70838276 157.19975673 26 150 C25.54439697 150.46583496 25.08879395 150.93166992 24.61938477 151.41162109 C20.27218044 155.84337078 15.71829714 159.96800063 11 164 C11.22816406 164.53367188 11.45632812 165.06734375 11.69140625 165.6171875 C14.02419351 171.6636047 14.57768509 176.66764753 13 183 C10.16678077 188.56150442 6.11221757 192.18453975 0.75 195.3125 C-5.86258631 196.96564658 -12.17220965 196.80771503 -18.17578125 193.41015625 C-22.34031495 190.19089144 -25.34330687 185.9700794 -27 181 C-27.6531477 172.99894066 -27.07091727 167.68510073 -21.8125 161.375 C-17.34807622 157.60504214 -12.91157906 154.79866509 -6.9375 154.625 C-3 155 -3 155 0.35546875 156.34375 C4.10725275 157.44767514 4.10725275 157.44767514 7.203125 154.9296875 C8.2410137 153.9341616 9.25638116 152.91471456 10.25 151.875 C10.765625 151.37484375 11.28125 150.8746875 11.8125 150.359375 C14.46635701 147.74655701 16.86730931 145.05296133 19 142 C18.154375 141.154375 17.30875 140.30875 16.4375 139.4375 C8.33822457 129.89877988 3 115.56138423 3 103 C1.783125 103.165 0.56625 103.33 -0.6875 103.5 C-6.7853726 104.19161175 -12.87187237 104.08524443 -19 104 C-19.29519531 104.93585938 -19.59039062 105.87171875 -19.89453125 106.8359375 C-21.80478929 112.30346051 -24.86253195 115.51307639 -30.01953125 118.20703125 C-36.03292609 120.61476133 -41.82698149 120.50588006 -47.85546875 118.21484375 C-52.61241437 115.52010771 -55.65218505 111.22682469 -58.4375 106.625 C-59.88475578 99.8711397 -59.73638973 93.83249261 -56.2734375 87.75390625 C-53.38364637 83.77379515 -49.55889189 80.85460297 -45 79 C-38.61985097 78.31577789 -32.31086709 78.04772682 -27 82 C-23.12313044 85.80417826 -20.33665938 88.65336249 -19 94 C-11.74 94 -4.48 94 3 94 C3.2475 92.081875 3.495 90.16375 3.75 88.1875 C5.77613758 75.27611291 11.10532329 64.39035081 19 54 C16.58999835 51.40855208 14.1160647 48.88842614 11.625 46.375 C10.94566406 45.6428125 10.26632813 44.910625 9.56640625 44.15625 C5.64660992 40.12610997 5.64660992 40.12610997 0.37890625 39.00732422 C-2.25897113 39.52826327 -2.25897113 39.52826327 -4.70068359 40.36425781 C-9.64913086 41.73246302 -13.75432354 39.63505074 -18.1875 37.375 C-23.4735913 32.91118957 -26.71507135 27.30517236 -27.3125 20.375 C-27.21073581 15.34229809 -25.79468601 11.18430888 -23 7 C-15.82565488 0.22265422 -9.78341316 -0.9966709 0 0 Z M26 60 C15.55626329 72.38583575 10.6705858 87.87549227 12 104 C14.24200918 121.28385262 22.04185007 135.54831672 35.80078125 146.16015625 C50.06690301 155.66417796 65.89173338 158.97874632 82.75 155.9375 C98.89214828 152.1383176 111.51534094 143.40417955 120.5 129.5625 C128.91699805 114.86337658 131.38263604 98.78480454 127.09375 82.32421875 C121.72979548 66.02162841 111.7460459 54.07741462 96.79785156 45.89111328 C90.07761403 42.56019707 82.46595898 40.57430454 75 40 C74.06414062 39.92265625 74.06414062 39.92265625 73.109375 39.84375 C54.80538001 39.03023911 38.29088189 46.70985942 26 60 Z " fill="#000000" transform="translate(59,0)"/>
<path d="M0 0 C0.66 0 1.32 0 2 0 C3.32 3.96 4.64 7.92 6 12 C8.46894264 8.29658604 7.82085415 7.19547676 7 3 C8 2 8 2 11.5625 1.9375 C12.696875 1.958125 13.83125 1.97875 15 2 C16 5 16 5 15.5 6.9375 C14.91881902 9.33487153 15.33607385 10.66161306 16 13 C16.26554687 12.14535156 16.53109375 11.29070312 16.8046875 10.41015625 C17.15789062 9.30542969 17.51109375 8.20070313 17.875 7.0625 C18.39707031 5.40927734 18.39707031 5.40927734 18.9296875 3.72265625 C20 1 20 1 22 0 C25.01207205 0.59890107 27.90047286 1.65814284 30.8125 2.625 C31.62009766 2.87378906 32.42769531 3.12257813 33.25976562 3.37890625 C38.28414028 5.03312297 41.66144603 6.6955343 45 11 C47.18330934 16.52040003 47.45962093 22.28315135 46 28 C43.19931963 29.40034018 40.87905422 29.13498646 37.74609375 29.14526367 C36.43133057 29.15164352 35.11656738 29.15802338 33.76196289 29.16459656 C32.32047563 29.166125 30.87898788 29.16723908 29.4375 29.16796875 C27.96541308 29.17118055 26.49332648 29.17454456 25.02124023 29.17805481 C21.93440002 29.18404683 18.84758781 29.18589459 15.76074219 29.18530273 C11.79929862 29.185201 7.83803383 29.19886468 3.87663269 29.21607494 C0.83637664 29.22717487 -2.20383587 29.22922258 -5.24411011 29.22869301 C-6.70499285 29.22987572 -8.16587663 29.23431373 -9.6267395 29.24202538 C-11.66650092 29.25178623 -13.70631456 29.24769314 -15.74609375 29.24291992 C-16.90810303 29.24434494 -18.0701123 29.24576996 -19.26733398 29.24723816 C-22 29 -22 29 -24 27 C-24.73443111 20.62857169 -24.87884802 14.35013519 -21 9 C-17.1315387 5.33028533 -13.3460854 3.97605707 -8.25 2.8125 C-3.76546224 2.07838349 -3.76546224 2.07838349 0 0 Z " fill="#000000" transform="translate(119,105)"/>
<path d="M0 0 C3.51520834 2.3707219 5.79390381 5.02530762 7.6875 8.8125 C7.89129734 10.62120138 8.05250995 12.43486592 8.1875 14.25 C8.42056642 17.37558718 8.69224943 19.82674829 9.6875 22.8125 C7.16541606 29.98977369 2.82971515 37.26344452 -3.75 41.3125 C-7.5347226 42.05098246 -9.58254072 42.01367333 -13.3125 40.8125 C-16.38960968 38.10994487 -18.91412415 35.12572024 -21.3125 31.8125 C-21.69108154 31.29091309 -22.06966309 30.76932617 -22.4597168 30.23193359 C-25.55176893 25.51978824 -25.67456698 22.15225903 -24.75 16.6875 C-24.66169922 15.99785156 -24.57339844 15.30820313 -24.48242188 14.59765625 C-23.65779383 8.96000305 -22.03361957 5.36150761 -17.8125 1.5625 C-12.38666987 -2.23558109 -6.0924351 -2.18408051 0 0 Z M-17.3125 9.8125 C-19.55574836 11.62443006 -19.55574836 11.62443006 -19.5078125 14.1953125 C-19.48460938 15.10023437 -19.46140625 16.00515625 -19.4375 16.9375 C-19.41945313 17.84757812 -19.40140625 18.75765625 -19.3828125 19.6953125 C-19.35960938 20.39398438 -19.33640625 21.09265625 -19.3125 21.8125 C-20.3025 21.8125 -21.2925 21.8125 -22.3125 21.8125 C-20.92726132 27.81520094 -17.49413216 32.40149561 -13.3125 36.8125 C-10.86411841 38.31103864 -9.76063721 38.8239907 -6.875 38.75 C0.08251955 36.20456602 3.24191931 28.91034898 6.6875 22.8125 C5.6975 22.4825 4.7075 22.1525 3.6875 21.8125 C3.6875 20.1625 3.6875 18.5125 3.6875 16.8125 C3.04683594 16.64234375 2.40617187 16.4721875 1.74609375 16.296875 C-2.50925073 15.10461753 -6.40170055 13.94266807 -10.1875 11.625 C-13.28708971 9.47802127 -13.28708971 9.47802127 -17.3125 9.8125 Z " fill="#010101" transform="translate(138.3125,61.1875)"/>
</svg>
