<svg xmlns="http://www.w3.org/2000/svg" width="500" height="500" viewBox="0 0 500 500" version="1.1"><path d="" stroke="none" fill="#105c94" fill-rule="evenodd"/><path d="M 240.929 51.304 C 225.670 55.630, 216 68.303, 216 83.973 C 216 97.570, 223.251 108.984, 235.500 114.671 C 240.580 117.030, 242.803 117.457, 250 117.457 C 260.293 117.457, 267.441 114.611, 274.249 107.804 C 281.382 100.671, 283.500 95.220, 283.500 84 C 283.500 72.780, 281.382 67.329, 274.249 60.196 C 265.981 51.928, 251.942 48.181, 240.929 51.304 M 88.302 137.056 C 81.238 139.835, 73.726 146.821, 70.300 153.797 C 67.863 158.761, 67.500 160.667, 67.500 168.500 C 67.500 176.843, 67.749 177.959, 70.908 183.785 C 74.774 190.914, 78.762 194.791, 86.287 198.737 C 90.894 201.152, 92.605 201.472, 101 201.485 C 109.233 201.498, 111.263 201.143, 116.219 198.819 L 121.938 196.139 144.219 208.730 C 156.474 215.655, 166.566 221.361, 166.647 221.411 C 166.728 221.460, 165.882 224.875, 164.768 229 C 162.079 238.952, 161.878 259.484, 164.376 269 C 168.620 285.168, 175.075 296.958, 185.880 308.275 C 190.071 312.665, 196.147 318.056, 199.381 320.255 C 207.673 325.892, 220.597 331.739, 228.916 333.617 L 236 335.217 236 362.948 L 236 390.679 233.502 391.817 C 228.676 394.016, 221.713 401.469, 218.850 407.500 C 214.916 415.787, 214.802 426.871, 218.567 435 C 221.706 441.777, 227.889 448.310, 234.500 451.834 C 239.003 454.235, 240.543 454.500, 250 454.500 C 259.068 454.500, 261.093 454.183, 264.849 452.179 C 271.152 448.816, 277.784 442.329, 280.839 436.540 C 283.205 432.056, 283.499 430.396, 283.499 421.500 C 283.500 412.954, 283.163 410.868, 281.179 407.151 C 278.162 401.497, 271.993 394.850, 267.535 392.449 L 264 390.545 264 363.014 L 264 335.483 272.515 333.282 C 302.541 325.520, 327.002 301.387, 335.135 271.500 C 338.201 260.237, 338.242 238.672, 335.218 228.514 C 334.074 224.672, 333.219 221.463, 333.319 221.382 C 333.419 221.301, 343.489 215.571, 355.698 208.649 L 377.897 196.063 383.698 198.782 C 388.735 201.142, 390.753 201.500, 399 201.500 C 407.912 201.500, 408.889 201.289, 414.785 198.092 C 421.911 194.228, 425.786 190.244, 429.743 182.713 C 432.136 178.158, 432.483 176.364, 432.491 168.500 C 432.499 160.656, 432.140 158.768, 429.700 153.797 C 426.154 146.578, 418.673 139.771, 411.202 136.969 C 403.492 134.076, 390.660 134.448, 383.924 137.760 C 372.866 143.197, 365.611 153.537, 364.369 165.634 L 363.739 171.767 341.707 184.286 L 319.674 196.804 314.794 191.465 C 289.393 163.672, 245.951 155.711, 211.347 172.508 C 201.426 177.323, 189.498 186.193, 183.933 192.892 L 180.436 197.102 158.355 184.501 L 136.274 171.900 135.635 165.786 C 134.388 153.852, 127.009 143.131, 116.474 137.948 C 109.517 134.525, 95.834 134.092, 88.302 137.056 M 93.746 304.029 C 83.613 306.570, 73.956 314.510, 69.671 323.824 C 66.379 330.980, 66.600 343.581, 70.151 351.155 C 73.423 358.134, 79.400 364.067, 86.840 367.721 C 91.786 370.150, 93.635 370.495, 101.500 370.459 C 112.931 370.407, 119.455 367.566, 126.934 359.382 C 138.743 346.461, 138.564 327.485, 126.507 314.140 C 119.202 306.054, 104.170 301.415, 93.746 304.029 M 391.223 304.004 C 377.249 306.948, 366.141 319.442, 364.411 334.163 C 362.878 347.203, 371.191 361.559, 383.810 367.665 C 388.694 370.028, 390.774 370.424, 398.500 370.459 C 406.367 370.495, 408.213 370.150, 413.164 367.719 C 420.421 364.155, 426.621 357.963, 429.906 351 C 433.409 343.574, 433.597 330.927, 430.311 323.783 C 423.697 309.402, 406.619 300.761, 391.223 304.004" stroke="none" fill="#0c5c94" fill-rule="evenodd"/></svg>