<svg xmlns="http://www.w3.org/2000/svg" width="200" height="200" viewBox="0 0 200 200" version="1.1"><path d="M 49.655 47.405 C 35.089 52.800, 32.504 72.509, 45.190 81.450 C 56.942 89.733, 73.681 82.255, 75.618 67.855 C 76.562 60.839, 72.745 53.107, 66.543 49.472 C 60.970 46.206, 54.899 45.463, 49.655 47.405 M 134.864 48.765 C 130.433 51.049, 129.009 52.483, 126.674 57.015 C 124.304 61.614, 123.938 63.307, 124.406 67.494 C 126.041 82.133, 142.876 89.861, 154.810 81.450 C 167.871 72.244, 164.464 51.278, 149.219 47.044 C 143.452 45.442, 140.662 45.777, 134.864 48.765 M 91.009 63.855 C 83.310 67.984, 79.091 77.580, 81.244 86.064 C 81.797 88.242, 83.881 91.857, 85.875 94.098 C 95.763 105.213, 115.094 100.489, 118.756 86.064 C 120.909 77.580, 116.690 67.984, 108.991 63.855 C 104.392 61.389, 95.608 61.389, 91.009 63.855 M 37.969 89.536 C 32.312 91.280, 25.611 96.925, 22.748 102.357 C 20.922 105.824, 20.504 108.553, 20.186 119.089 L 19.807 131.678 22.654 132.820 C 28.002 134.966, 37.494 137.026, 44.500 137.561 C 48.350 137.855, 52.676 138.275, 54.112 138.495 C 56.713 138.893, 56.727 138.857, 57.284 130.697 C 57.592 126.189, 58.595 120.365, 59.514 117.756 C 61.682 111.598, 68.793 103.750, 74.772 100.917 C 77.372 99.685, 79.619 98.593, 79.765 98.490 C 79.910 98.388, 78.892 96.269, 77.501 93.781 C 75.383 89.992, 74.366 89.157, 71.236 88.640 C 64.321 87.497, 42.695 88.079, 37.969 89.536 M 127.716 88.868 C 125.797 89.304, 124.158 90.865, 122.442 93.893 C 121.073 96.310, 120.076 98.374, 120.227 98.481 C 120.377 98.589, 122.628 99.685, 125.228 100.917 C 131.207 103.750, 138.318 111.598, 140.486 117.756 C 141.405 120.365, 142.408 126.189, 142.716 130.697 C 143.273 138.857, 143.287 138.893, 145.888 138.495 C 147.324 138.275, 151.650 137.855, 155.500 137.561 C 162.506 137.026, 171.998 134.966, 177.346 132.820 L 180.193 131.678 179.814 119.089 C 179.376 104.543, 177.964 100.693, 170.828 94.585 C 164.674 89.317, 159.031 87.978, 143.568 88.118 C 136.381 88.183, 129.247 88.521, 127.716 88.868 M 78.459 106.367 C 72.903 108.954, 68.655 113.385, 65.867 119.500 C 64.428 122.658, 64.039 126.055, 64.022 135.635 L 64 147.771 71.750 149.911 C 76.013 151.088, 84.113 152.581, 89.750 153.228 C 101.700 154.600, 115.608 153.402, 128.250 149.911 L 136 147.771 135.978 135.635 C 135.961 126.055, 135.572 122.658, 134.133 119.500 C 131.345 113.385, 127.097 108.954, 121.541 106.367 C 116.892 104.202, 115.216 104.020, 100 104.020 C 84.784 104.020, 83.108 104.202, 78.459 106.367" stroke="none" fill="#060606" fill-rule="evenodd" data-index="0" style="opacity: 1;"></path></svg>