<?xml version="1.0" encoding="UTF-8"?>
<svg version="1.1" xmlns="http://www.w3.org/2000/svg" width="225" height="225">
<path d="M0 0 C0.93070313 0.76957031 1.86140625 1.53914063 2.8203125 2.33203125 C24.38339981 20.92193521 35.85874889 46.95262626 38 75 C39.64374134 100.81023641 30.62594081 127.31577576 14 147 C13.22914063 147.93328125 12.45828125 148.8665625 11.6640625 149.828125 C-6.27719833 170.61444014 -32.117609 182.75508483 -59.37109375 184.83984375 C-60.67240234 184.91912109 -60.67240234 184.91912109 -62 185 C-63.03833984 185.06380859 -63.03833984 185.06380859 -64.09765625 185.12890625 C-88.93258498 185.84667876 -114.09068052 177.01023873 -133 161 C-133.99515625 160.17886719 -134.9903125 159.35773438 -136.015625 158.51171875 C-157.63697977 140.11314357 -168.49814829 113.89564659 -171 86 C-172.69504078 60.15062804 -163.70594673 33.66093906 -147 14 C-146.31550781 13.154375 -145.63101563 12.30875 -144.92578125 11.4375 C-127.42487301 -9.2659774 -101.37284269 -21.54880614 -74.546875 -23.83984375 C-47.59908803 -25.53441318 -20.62247018 -17.60381875 0 0 Z M-127.8203125 36.5546875 C-132.16367144 41.54334548 -132.15258656 46.231522 -132.16113281 52.52294922 C-132.16609772 53.39317719 -132.17106262 54.26340515 -132.17617798 55.16000366 C-132.19079445 58.04157296 -132.19760048 60.92308721 -132.203125 63.8046875 C-132.20887653 65.80624391 -132.21463427 67.80780031 -132.22039795 69.80935669 C-132.23090623 74.00750994 -132.23675015 78.20564404 -132.24023438 82.40380859 C-132.2457211 87.78303348 -132.26975373 93.1620055 -132.29820633 98.54115105 C-132.31682941 102.67612447 -132.32203812 106.81103692 -132.32357025 110.94604874 C-132.32659766 112.92918405 -132.33462913 114.91231826 -132.34775543 116.89541245 C-132.36481019 119.66989141 -132.36293715 122.4437516 -132.35644531 125.21826172 C-132.3656601 126.03713867 -132.37487488 126.85601562 -132.3843689 127.69970703 C-132.35060573 132.30608983 -131.93149764 135.22722461 -129 139 C-126.29575131 141.2062635 -124.87091247 140.99147665 -121.33203125 140.7578125 C-119.82461463 140.55345155 -118.31815038 140.34199125 -116.8125 140.125 C-101.74888043 138.26693239 -86.42604361 138.0826755 -71.375 140.125 C-64.70169347 141.02913016 -59.04401672 140.62852156 -52.36328125 139.5234375 C-38.45687337 137.56214869 -23.34628793 138.22971592 -9.51831055 140.55175781 C-6.19217454 141.05519049 -4.25668881 141.11342064 -1.14453125 139.73828125 C1.21161539 138.00442486 1.21161539 138.00442486 3 135 C3.22085881 132.05311852 3.32486864 129.19840059 3.33813477 126.24926758 C3.34967087 125.35459778 3.36120697 124.45992798 3.37309265 123.53814697 C3.40744565 120.57359076 3.42591273 117.60924299 3.44140625 114.64453125 C3.44830915 113.63123938 3.45521206 112.6179475 3.46232414 111.57394981 C3.49818117 106.20904759 3.52170765 100.84425082 3.53540039 95.47924805 C3.55193307 89.94516064 3.61032971 84.41235451 3.67854404 78.8786974 C3.72339159 74.61747818 3.73689965 70.35656398 3.74201775 66.09512901 C3.74990065 64.05579419 3.76951343 62.01646873 3.80124092 59.97736549 C4.51713073 47.64061861 4.51713073 47.64061861 -0.29711914 36.8112793 C-2.64632829 34.72535641 -5.09683646 33.20646229 -8 32 C-11.31550202 32.27544195 -11.31550202 32.27544195 -14 34 C-14.66977494 36.32680295 -14.66977494 36.32680295 -14 39 C-12.31017599 40.51695199 -10.55751319 41.69059283 -8.62890625 42.88671875 C-7 44 -7 44 -6 46 C-5.8774671 48.71477315 -5.81429183 51.40557006 -5.79467773 54.12158203 C-5.78477814 54.96068115 -5.77487854 55.79978027 -5.76467896 56.66430664 C-5.73302208 59.44544629 -5.70829 62.22660304 -5.68359375 65.0078125 C-5.66302784 66.93309988 -5.64203146 68.85838271 -5.62062073 70.78366089 C-5.56536259 75.85695718 -5.51596983 80.93029447 -5.46777344 86.00366211 C-5.41758571 91.17825988 -5.36188542 96.35279794 -5.30664062 101.52734375 C-5.1990133 111.68484485 -5.0975785 121.84239774 -5 132 C-5.6876091 131.8582988 -6.3752182 131.7165976 -7.08366394 131.57060242 C-13.18868859 130.376166 -18.962199 129.71044261 -25.17578125 129.76953125 C-26.39626411 129.77021858 -26.39626411 129.77021858 -27.6414032 129.7709198 C-29.33948245 129.77390842 -31.03755982 129.78169077 -32.7355957 129.79418945 C-35.32448074 129.81258513 -37.91300911 129.81469757 -40.50195312 129.81445312 C-42.16406557 129.81936502 -43.82617562 129.82519191 -45.48828125 129.83203125 C-46.25400955 129.83314407 -47.01973785 129.8342569 -47.80867004 129.83540344 C-52.05345148 129.87276537 -55.76559946 130.29426658 -60 131 C-60 101.3 -60 71.6 -60 41 C-50.8842819 39.04663184 -43.59530812 37.55239188 -34.62304688 37.6484375 C-32.27024403 37.64738528 -32.27024403 37.64738528 -29 37 C-26.94267655 34.6089026 -26.94267655 34.6089026 -26 32 C-27.14258515 29.91542766 -27.14258515 29.91542766 -29 28 C-38.6527041 26.16583078 -51.00933765 28.36818347 -60.0625 31.875 C-65.5454359 33.69663331 -69.62788697 31.93625713 -74.91015625 30.0625 C-78.98463488 28.66141506 -82.71550416 28.1634219 -87 28 C-88.45986328 27.94005859 -88.45986328 27.94005859 -89.94921875 27.87890625 C-102.3818669 27.62395448 -117.85697757 28.04522977 -127.8203125 36.5546875 Z M-52.96484375 59.35864258 C-54.26510078 61.049765 -54.26510078 61.049765 -53.75 63.625 C-53.22254355 65.9312407 -53.22254355 65.9312407 -52 67 C-49.41810554 67.10091475 -46.863535 67.13971499 -44.28125 67.1328125 C-43.12163757 67.13424759 -43.12163757 67.13424759 -41.93859863 67.13571167 C-40.30102456 67.13639341 -38.66344781 67.13453957 -37.02587891 67.13037109 C-34.51068079 67.12502271 -31.99566127 67.13031626 -29.48046875 67.13671875 C-27.89322877 67.13605797 -26.3059889 67.1347768 -24.71875 67.1328125 C-23.96146606 67.13483673 -23.20418213 67.13686096 -22.4239502 67.13894653 C-18.91984437 67.44453684 -18.91984437 67.44453684 -16 66 C-15.66659529 63.04195427 -15.66659529 63.04195427 -16 60 C-20.96168932 56.69220712 -26.92149766 57.66723235 -32.73339844 57.68432617 C-34.99202598 57.68748883 -37.24934664 57.66401196 -39.5078125 57.63867188 C-40.94270668 57.63639906 -42.37760438 57.6356953 -43.8125 57.63671875 C-45.11832031 57.63373779 -46.42414063 57.63075684 -47.76953125 57.62768555 C-50.9497392 57.7373369 -50.9497392 57.7373369 -52.96484375 59.35864258 Z M-54 81 C-53.83557723 84.06991681 -53.83557723 84.06991681 -53 87 C-50.00910916 88.49544542 -46.93632814 88.16279298 -43.65625 88.16796875 C-42.93135376 88.17129715 -42.20645752 88.17462555 -41.45959473 88.17805481 C-39.92635737 88.18311925 -38.39310899 88.18546328 -36.85986328 88.18530273 C-34.50925657 88.18749138 -32.15911751 88.20565751 -29.80859375 88.22460938 C-28.32031411 88.22754292 -26.83203223 88.22952798 -25.34375 88.23046875 C-24.28589294 88.24124702 -24.28589294 88.24124702 -23.20666504 88.25224304 C-19.15392138 88.35037944 -19.15392138 88.35037944 -16 86 C-15.74994614 82.95817107 -15.74994614 82.95817107 -16 80 C-17.99384779 78.00615221 -21.95305012 78.83606046 -24.68359375 78.83203125 C-25.45429703 78.82870285 -26.22500031 78.82537445 -27.01905823 78.82194519 C-28.65242921 78.8168729 -30.2858106 78.81453696 -31.91918945 78.81469727 C-34.42351299 78.8125122 -36.92739521 78.79436405 -39.43164062 78.77539062 C-41.01562349 78.77245653 -42.59960845 78.77047184 -44.18359375 78.76953125 C-44.9357164 78.76234573 -45.68783905 78.75516022 -46.4627533 78.74775696 C-50.6910445 78.61855535 -50.6910445 78.61855535 -54 81 Z M-52 99 C-54.31543207 101.76988076 -54.31543207 101.76988076 -53.6875 104.625 C-53.2258486 106.93501965 -53.2258486 106.93501965 -52 108 C-49.50245859 108.11327366 -47.0336001 108.16417191 -44.53515625 108.16796875 C-43.78664902 108.17129715 -43.03814178 108.17462555 -42.26695251 108.17805481 C-40.68066016 108.18312693 -39.0943571 108.18546305 -37.50805664 108.18530273 C-35.07615631 108.18748773 -32.64471051 108.20563581 -30.21289062 108.22460938 C-28.67448072 108.22754349 -27.13606866 108.22952817 -25.59765625 108.23046875 C-24.86740738 108.23765427 -24.13715851 108.24483978 -23.38478088 108.25224304 C-19.23730007 108.36709434 -19.23730007 108.36709434 -16 106 C-15.66666667 103.5 -15.66666667 103.5 -16 101 C-18.48434841 98.51565159 -19.96641557 98.74443117 -23.35913086 98.69645691 C-24.08624268 98.69736832 -24.81335449 98.69827972 -25.5625 98.69921875 C-26.30959229 98.69493362 -27.05668457 98.6906485 -27.82641602 98.68623352 C-29.40672796 98.68048787 -30.98706636 98.6799917 -32.56738281 98.68432617 C-34.99069088 98.68748785 -37.41278035 98.66402592 -39.8359375 98.63867188 C-41.36979012 98.63639913 -42.90364604 98.63569527 -44.4375 98.63671875 C-45.16461182 98.627509 -45.89172363 98.61829926 -46.64086914 98.60881042 C-48.90143342 98.59484087 -48.90143342 98.59484087 -52 99 Z " fill="#000000" transform="translate(179,32)"/>
<path d="M0 0 C0 29.7 0 59.4 0 90 C-13.86 89.505 -13.86 89.505 -28 89 C-33.00014534 89.20176839 -37.80300364 89.42694461 -42.75 89.9375 C-43.86375 90.03740234 -44.9775 90.13730469 -46.125 90.24023438 C-48.75189845 90.47801398 -51.37619825 90.73056234 -54 91 C-54.13894649 79.59546524 -54.24559395 68.19113141 -54.31087303 56.785923 C-54.34220212 51.49011618 -54.38470418 46.19488788 -54.45263672 40.89941406 C-54.51777234 35.79005999 -54.55369415 30.68126275 -54.56926346 25.57152557 C-54.5803602 23.62098165 -54.60202985 21.67046864 -54.63438034 19.72016144 C-54.67786753 16.99017715 -54.68393749 14.26250081 -54.68115234 11.53222656 C-54.702724 10.72374268 -54.72429565 9.91525879 -54.746521 9.08227539 C-54.7215271 6.82183838 -54.7215271 6.82183838 -54 3 C-41.42528427 -7.73697786 -14.41785618 -7.20892809 0 0 Z M-44 19 C-43.67 21.31 -43.34 23.62 -43 26 C-38.05209823 26.0493651 -33.10433917 26.08570269 -28.15625 26.10986328 C-26.47230534 26.11993317 -24.78837821 26.13358988 -23.10449219 26.15087891 C-20.68680499 26.17508426 -18.26934857 26.18647296 -15.8515625 26.1953125 C-14.71867294 26.21079636 -14.71867294 26.21079636 -13.56289673 26.22659302 C-11.7070602 26.22699318 -9.8518072 26.12222716 -8 26 C-7.34 25.34 -6.68 24.68 -6 24 C-6.16442277 20.93008319 -6.16442277 20.93008319 -7 18 C-11.49156092 15.75421954 -17.65857908 16.81415568 -22.65795898 16.81469727 C-24.92515866 16.8125119 -27.19187089 16.79435507 -29.45898438 16.77539062 C-30.89843583 16.77245638 -32.33788961 16.77047179 -33.77734375 16.76953125 C-35.74562134 16.76336792 -35.74562134 16.76336792 -37.75366211 16.75708008 C-41.14780516 16.74387809 -41.14780516 16.74387809 -44 19 Z M-44 40 C-44.41666667 42.5 -44.41666667 42.5 -44 45 C-39.03831068 48.30779288 -33.07850234 47.33276765 -27.26660156 47.31567383 C-25.00797402 47.31251117 -22.75065336 47.33598804 -20.4921875 47.36132812 C-19.05729332 47.36360094 -17.62239562 47.3643047 -16.1875 47.36328125 C-14.88167969 47.36626221 -13.57585937 47.36924316 -12.23046875 47.37231445 C-9.0502608 47.2626631 -9.0502608 47.2626631 -7.03515625 45.64135742 C-5.73489922 43.950235 -5.73489922 43.950235 -6.25 41.375 C-6.77745645 39.0687593 -6.77745645 39.0687593 -8 38 C-10.49754141 37.88672634 -12.9663999 37.83582809 -15.46484375 37.83203125 C-16.21335098 37.82870285 -16.96185822 37.82537445 -17.73304749 37.82194519 C-19.31933984 37.81687307 -20.9056429 37.81453695 -22.49194336 37.81469727 C-24.92384369 37.81251227 -27.35528949 37.79436419 -29.78710938 37.77539062 C-31.32551928 37.77245651 -32.86393134 37.77047183 -34.40234375 37.76953125 C-35.13259262 37.76234573 -35.86284149 37.75516022 -36.61521912 37.74775696 C-40.76269993 37.63290566 -40.76269993 37.63290566 -44 40 Z M-44 60 C-44.33333333 62.5 -44.33333333 62.5 -44 65 C-41.51149326 67.48850674 -40.0378994 67.2461233 -36.64086914 67.27789307 C-35.91375732 67.2738446 -35.18664551 67.26979614 -34.4375 67.265625 C-33.31686157 67.26849518 -33.31686157 67.26849518 -32.17358398 67.27142334 C-30.59325829 67.27278498 -29.01292142 67.26909 -27.43261719 67.26074219 C-25.00951078 67.250042 -22.58714577 67.26063779 -20.1640625 67.2734375 C-18.63020669 67.2721159 -17.09635135 67.2695535 -15.5625 67.265625 C-14.83538818 67.26967346 -14.10827637 67.27372192 -13.35913086 67.27789307 C-9.22530367 67.36731502 -9.22530367 67.36731502 -6 65 C-5.66666667 62.5 -5.66666667 62.5 -6 60 C-8.48850674 57.51149326 -9.9621006 57.7538767 -13.35913086 57.72210693 C-14.08624268 57.7261554 -14.81335449 57.73020386 -15.5625 57.734375 C-16.30959229 57.73246155 -17.05668457 57.7305481 -17.82641602 57.72857666 C-19.40674171 57.72721502 -20.98707858 57.73091 -22.56738281 57.73925781 C-24.99048922 57.749958 -27.41285423 57.73936221 -29.8359375 57.7265625 C-31.36979331 57.7278841 -32.90364865 57.7304465 -34.4375 57.734375 C-35.16461182 57.73032654 -35.89172363 57.72627808 -36.64086914 57.72210693 C-40.77469633 57.63268498 -40.77469633 57.63268498 -44 60 Z " fill="#000000" transform="translate(110,73)"/>
</svg>
