<svg xmlns="http://www.w3.org/2000/svg" width="320" height="320" viewBox="0 0 320 320" version="1.1"><path d="" stroke="none" fill="#080404" fill-rule="evenodd"/><path d="M 143 32.139 C 91.602 39.196, 48.954 76.927, 35.630 127.131 C 18.378 192.135, 54.098 259.648, 117.766 282.375 C 136.859 289.190, 163.529 291.378, 183.152 287.739 C 208.162 283.101, 230.898 271.563, 249.027 254.311 C 274.345 230.218, 288.023 200.491, 289.662 166 C 293.465 85.933, 222.560 21.216, 143 32.139 M 146.583 58.038 C 117.040 62.689, 92.380 77.944, 75.884 101.773 C 50.404 138.578, 51.514 187.029, 78.653 222.695 C 92.380 240.735, 110.102 252.841, 132.716 259.624 C 144.521 263.165, 167.359 264.103, 180.115 261.572 C 195.644 258.489, 209.012 252.581, 221.540 243.263 C 254.428 218.799, 269.478 179.403, 261.368 139 C 254.328 103.923, 227.836 74.059, 193.552 62.550 C 180.311 58.106, 159.100 56.068, 146.583 58.038 M 186.137 92.369 C 177.719 95.416, 171.180 104.157, 170.096 113.813 L 169.500 119.127 162.500 122.868 C 130.595 139.918, 125.649 142.267, 124.081 141.118 C 115.391 134.745, 105.098 133.340, 96.500 137.353 C 80.081 145.015, 76.284 166.284, 89.095 178.836 C 94.826 184.451, 97.599 185.482, 107 185.491 C 114.006 185.498, 116.116 185.117, 119.005 183.320 L 122.510 181.139 146.255 192.747 C 169.709 204.213, 170 204.394, 170 207.481 C 170 211.934, 174.556 220.488, 178.784 223.974 C 186.343 230.205, 196.945 231.654, 205.500 227.626 C 215.949 222.706, 220.454 215.589, 220.454 204 C 220.454 198.207, 219.955 195.557, 218.261 192.357 C 213.103 182.611, 201.063 176.807, 190.534 178.993 C 187.571 179.608, 183.317 181.436, 181.082 183.056 C 178.846 184.675, 176.676 186.013, 176.259 186.029 C 175.841 186.045, 165.769 181.253, 153.876 175.380 C 125.403 161.320, 124.865 163.918, 160 145.809 L 178.500 136.274 184 139.120 C 197.730 146.225, 214.349 139.601, 219.512 124.965 C 225.384 108.322, 213.081 90.860, 195.636 91.076 C 192.261 91.118, 187.987 91.700, 186.137 92.369" stroke="none" fill="#040404" fill-rule="evenodd"/></svg>