<svg xmlns="http://www.w3.org/2000/svg" width="920" height="512" viewBox="0 0 920 512" version="1.1"><path d="M 447 10.087 C 388.378 13.245, 333.921 37.166, 289.130 79.432 C 279.618 88.408, 265.012 106.146, 255.841 119.859 C 245.816 134.847, 233.980 158.218, 228.421 174 C 208.215 231.360, 209.551 295.112, 232.113 350.227 C 282.575 473.497, 418.532 534.681, 544.693 490.896 C 560.637 485.363, 581.947 474.810, 596.500 465.240 C 658.480 424.484, 697.001 363.549, 707.597 289.500 C 709.919 273.277, 709.941 241.932, 707.642 225 C 696.488 142.817, 646.257 72.471, 572.500 35.738 C 542.235 20.665, 509.910 11.823, 480.100 10.462 C 473.720 10.171, 466.700 9.804, 464.500 9.647 C 462.300 9.489, 454.425 9.687, 447 10.087 M 447.500 30.156 C 418.201 31.648, 389.376 39.301, 361.500 52.987 C 338.572 64.244, 320.800 76.888, 302.072 95.266 C 232.098 163.933, 214.204 269.215, 257.478 357.635 C 264.140 371.248, 276.420 390.541, 285.269 401.300 C 323.965 448.344, 379.953 478.207, 440.500 484.098 C 454.997 485.508, 482.443 484.751, 496.500 482.553 C 558.030 472.930, 613.205 438.398, 649.176 387 C 669.051 358.600, 682.423 324.219, 687.657 288.058 C 689.909 272.498, 689.909 242.502, 687.657 226.942 C 677.479 156.624, 637.819 97.025, 577.160 60.891 C 538.961 38.136, 495.071 27.733, 447.500 30.156 M 431.884 82.592 L 395.639 107 412.819 107 L 430 107 430 120.904 L 430 134.808 435.250 131.967 C 452.777 122.483, 477.047 122.107, 496.692 131.014 L 503 133.875 503 120.437 L 503 107 514.500 107 L 526 107 526 119.500 L 526 132 529 132 L 532 132 532 119.566 L 532 107.133 534.592 106.816 C 536.723 106.556, 531.041 102.201, 502.657 82.342 L 468.130 58.183 431.884 82.592 M 383.512 215.325 C 370.734 228.312, 363.474 247.277, 361.050 274 C 359.281 293.507, 358.659 291.520, 369.205 300.053 C 380.162 308.918, 396.298 324.836, 404.151 334.527 C 427.553 363.404, 444.781 402.002, 453.013 444 C 454.253 450.325, 455.770 455.831, 456.384 456.235 C 456.998 456.639, 458.512 456.976, 459.750 456.985 L 462 457 462 366 L 462 275 459.314 275 C 451.340 275, 435.550 269.120, 425.300 262.333 C 409.359 251.777, 395.766 231.073, 393.390 213.728 C 393.031 211.103, 392.323 208.699, 391.817 208.387 C 391.311 208.074, 387.574 211.197, 383.512 215.325 M 540.183 214.709 C 534.585 244.222, 509.080 269.049, 479.074 274.194 L 472 275.407 472 366.204 L 472 457 474.378 457 C 477.764 457, 478.490 455.618, 480.426 445.500 C 488.311 404.278, 502.863 370.087, 525.325 340.005 C 533.720 328.763, 554.285 307.955, 565.358 299.500 L 573.215 293.500 572.642 279 C 571.503 250.174, 564.062 229.258, 549.802 214.799 C 546.114 211.060, 542.727 208, 542.276 208 C 541.825 208, 540.883 211.019, 540.183 214.709" stroke="none" fill="#06858c" fill-rule="evenodd"/><path d="M -0 256.001 L -0 512.002 460.250 511.751 L 920.500 511.500 920.752 255.750 L 921.004 -0 460.502 -0 L 0 0 -0 256.001 M 0.492 256.500 C 0.492 397.300, 0.608 454.751, 0.750 384.170 C 0.892 313.588, 0.892 198.388, 0.750 128.170 C 0.608 57.951, 0.492 115.700, 0.492 256.500 M 447 10.087 C 388.378 13.245, 333.921 37.166, 289.130 79.432 C 279.618 88.408, 265.012 106.146, 255.841 119.859 C 245.816 134.847, 233.980 158.218, 228.421 174 C 208.215 231.360, 209.551 295.112, 232.113 350.227 C 282.575 473.497, 418.532 534.681, 544.693 490.896 C 560.637 485.363, 581.947 474.810, 596.500 465.240 C 658.480 424.484, 697.001 363.549, 707.597 289.500 C 709.919 273.277, 709.941 241.932, 707.642 225 C 696.488 142.817, 646.257 72.471, 572.500 35.738 C 542.235 20.665, 509.910 11.823, 480.100 10.462 C 473.720 10.171, 466.700 9.804, 464.500 9.647 C 462.300 9.489, 454.425 9.687, 447 10.087 M 447.500 30.156 C 418.201 31.648, 389.376 39.301, 361.500 52.987 C 338.572 64.244, 320.800 76.888, 302.072 95.266 C 232.098 163.933, 214.204 269.215, 257.478 357.635 C 264.140 371.248, 276.420 390.541, 285.269 401.300 C 323.965 448.344, 379.953 478.207, 440.500 484.098 C 454.997 485.508, 482.443 484.751, 496.500 482.553 C 558.030 472.930, 613.205 438.398, 649.176 387 C 669.051 358.600, 682.423 324.219, 687.657 288.058 C 689.909 272.498, 689.909 242.502, 687.657 226.942 C 677.479 156.624, 637.819 97.025, 577.160 60.891 C 538.961 38.136, 495.071 27.733, 447.500 30.156 M 431.884 82.592 L 395.639 107 412.819 107 L 430 107 430 120.904 L 430 134.808 435.250 131.967 C 452.777 122.483, 477.047 122.107, 496.692 131.014 L 503 133.875 503 120.437 L 503 107 514.500 107 L 526 107 526 119.500 L 526 132 529 132 L 532 132 532 119.566 L 532 107.133 534.592 106.816 C 536.723 106.556, 531.041 102.201, 502.657 82.342 L 468.130 58.183 431.884 82.592 M 383.512 215.325 C 370.734 228.312, 363.474 247.277, 361.050 274 C 359.281 293.507, 358.659 291.520, 369.205 300.053 C 380.162 308.918, 396.298 324.836, 404.151 334.527 C 427.553 363.404, 444.781 402.002, 453.013 444 C 454.253 450.325, 455.770 455.831, 456.384 456.235 C 456.998 456.639, 458.512 456.976, 459.750 456.985 L 462 457 462 366 L 462 275 459.314 275 C 451.340 275, 435.550 269.120, 425.300 262.333 C 409.359 251.777, 395.766 231.073, 393.390 213.728 C 393.031 211.103, 392.323 208.699, 391.817 208.387 C 391.311 208.074, 387.574 211.197, 383.512 215.325 M 540.183 214.709 C 534.585 244.222, 509.080 269.049, 479.074 274.194 L 472 275.407 472 366.204 L 472 457 474.378 457 C 477.764 457, 478.490 455.618, 480.426 445.500 C 488.311 404.278, 502.863 370.087, 525.325 340.005 C 533.720 328.763, 554.285 307.955, 565.358 299.500 L 573.215 293.500 572.642 279 C 571.503 250.174, 564.062 229.258, 549.802 214.799 C 546.114 211.060, 542.727 208, 542.276 208 C 541.825 208, 540.883 211.019, 540.183 214.709" stroke="none" fill="#f3f3f3" fill-rule="evenodd"/></svg>