<svg xmlns="http://www.w3.org/2000/svg" width="294" height="172" viewBox="0 0 294 172" version="1.1"><path d="M 136.854 15.066 C 121.905 17.095, 107.338 24.449, 96.397 35.492 C 83.224 48.788, 77.008 62.969, 76.229 81.504 C 75.975 87.557, 76.232 95.496, 76.801 99.148 C 79.901 119.063, 94.616 139.409, 112.713 148.800 C 124.040 154.679, 133.747 157, 147 157 C 176.201 157, 199.791 142.014, 212.048 115.678 C 216.524 106.060, 218 98.811, 218 86.450 C 218 68.331, 213.339 54.370, 202.905 41.237 C 187.836 22.270, 161.289 11.751, 136.854 15.066 M 140.718 32.044 C 135.203 33.412, 131.939 35.323, 127.104 40.015 C 121.186 45.759, 118.568 51.886, 118.568 60 C 118.568 71.438, 124.418 80.554, 135.222 85.953 C 143.612 90.146, 150.388 90.146, 158.778 85.953 C 176.577 77.059, 181.015 55.476, 168.076 40.740 C 162.053 33.880, 149.457 29.876, 140.718 32.044 M 122.259 95.974 C 118.200 96.938, 110.664 103.039, 107.354 108.042 C 105.077 111.482, 104.786 113.112, 104.275 125.290 L 103.711 138.739 110.606 142.819 C 114.398 145.062, 121.775 148.352, 127 150.128 C 135.459 153.005, 137.705 153.357, 147.500 153.343 C 157.144 153.328, 159.576 152.952, 167.229 150.289 C 172.030 148.619, 179.183 145.337, 183.124 142.996 L 190.289 138.739 189.728 125.373 C 189.254 114.062, 188.838 111.473, 187.020 108.533 C 183.362 102.613, 176.430 97.258, 170.889 96.070 C 165.270 94.865, 127.247 94.790, 122.259 95.974" stroke="none" fill="#141212" fill-rule="evenodd"/><path d="M 140.718 32.044 C 135.203 33.412, 131.939 35.323, 127.104 40.015 C 121.186 45.759, 118.568 51.886, 118.568 60 C 118.568 71.438, 124.418 80.554, 135.222 85.953 C 143.612 90.146, 150.388 90.146, 158.778 85.953 C 176.577 77.059, 181.015 55.476, 168.076 40.740 C 162.053 33.880, 149.457 29.876, 140.718 32.044 M 218.310 86.500 C 218.315 89.800, 218.502 91.029, 218.725 89.232 C 218.947 87.435, 218.943 84.735, 218.715 83.232 C 218.486 81.729, 218.304 83.200, 218.310 86.500 M 75.272 86 C 75.272 88.475, 75.467 89.487, 75.706 88.250 C 75.944 87.013, 75.944 84.987, 75.706 83.750 C 75.467 82.513, 75.272 83.525, 75.272 86 M 122.259 95.974 C 118.200 96.938, 110.664 103.039, 107.354 108.042 C 105.077 111.482, 104.786 113.112, 104.275 125.290 L 103.711 138.739 110.606 142.819 C 114.398 145.062, 121.775 148.352, 127 150.128 C 135.459 153.005, 137.705 153.357, 147.500 153.343 C 157.144 153.328, 159.576 152.952, 167.229 150.289 C 172.030 148.619, 179.183 145.337, 183.124 142.996 L 190.289 138.739 189.728 125.373 C 189.254 114.062, 188.838 111.473, 187.020 108.533 C 183.362 102.613, 176.430 97.258, 170.889 96.070 C 165.270 94.865, 127.247 94.790, 122.259 95.974" stroke="none" fill="#f3f3f3" fill-rule="evenodd"/></svg>